<mxfile host="app.diagrams.net" agent="Mozilla/5.0 (Windows NT 10.0; Win64; x64) AppleWebKit/537.36 (KHTML, like Gecko) Chrome/141.0.0.0 Safari/537.36" version="28.2.7">
  <diagram name="PÃ¡gina-1" id="J5F_gPoIrCMwB1YH9aX1">
    <mxGraphModel dx="3679" dy="2723" grid="1" gridSize="10" guides="1" tooltips="1" connect="1" arrows="1" fold="1" page="1" pageScale="1" pageWidth="827" pageHeight="1169" math="0" shadow="0">
      <root>
        <mxCell id="0" />
        <mxCell id="1" parent="0" />
        <mxCell id="qI1FwM0eHs6hiQcFDH_W-1" value="" style="shape=image;verticalLabelPosition=bottom;labelBackgroundColor=default;verticalAlign=top;aspect=fixed;imageAspect=0;image=data:image/png,iVBORw0KGgoAAAANSUhEUgAACDcAAAfHCAMAAAD18+SmAAAAIGNIUk0AAHomAACAhAAA+gAAAIDoAAB1MAAA6mAAADqYAAAXcJy6UTwAAAIKUExURf///+bn6J2hpUxSWzpBSm5zerm7v11jasXHytzd336Difv8/Orq6llZWYGBgZOTk8TExN/f3wAAAKWlpRgYGPv7+/T09ERERC4uLrW1tdLS0m5ublReaqO0yrzP6LTH34WTpW55iczh/M/k/8vg+3eDk0hPWVlibqq70jc8RGhzgSUpLrXH3xMVGMba9J+vxL3R6pKhtTMzM7e3t8/Pz/b29np6ekZGRldXV+7u7qioqGlpaYuLi+Xl5Zqamu3t7uTk5fX19qOlqCgsM7O0t5SWmnN1emFkaTw/Rs3Oz05SV9nZ28DBw4SHi8PDw9vb219fX3R0dDY2NnFxcVFRUbGxsZ+fn4iIiGpqalBQUDk/SJqam3h4eEVFRUtLS0JCQjs7O2NjY0lJST8/P0BAQDk5OWFhYaampk9PT5iYmEFBQTlASY2OjuPk5YeHh5WVld3d3fb29+7v8EhQW2Fsesjc96y+1dHT1cLW8I+espqqv6uusnd8gTQ0NIODg8bHyGJiYjc8QTU3O6anqHFxcoeHiFNTU7/AwY6SmOLi4jg+RTY6PjM0NTc7QDg9RDc8QzY8QzU5PcnKyh0gJbCxstzd3SwxOA8RE3R0dd7e3oSEhL29ve3t7WdnZ6qqqvf3987OzvLy8sPExby9vrS0tGRkZFZWVkpKSnV1dWVlZWBgYJeXl35+fnqHmOG4Q5QAAAABYktHRACIBR1IAAAACXBIWXMAABibAAAYmwFJdYOUAAAAB3RJTUUH6QoTDwwoZ9+g8QAAgABJREFUeNrs/QmfZLmVt4cVm8l+Fw5nSJA1w5lpkmBf3H2vJtlDcsiq7uylyOYiy5JfyX4ly5Zsebcl2bI/vnHOAe4ScSMzIzPiRiDu//mRWZERd0F2BIAngIODV68AAAAAAAAAAAAAAAAAAAAAAAAAAAAAAAAAAAAAAAAAAAAAAAAAAAAAAAAAAAAAAAAAAAAAAAAAAAAAAAAAAAAAAAAAAAAAAAAAAAAAAAAAAAAAAAAAAAAAAAAAAAAAAAAAAAAAAAAAAAAAAAAAAAAAAAAAAAAAAAAAAAAAAAAAAAAAAAAAAAAAAAAAAAAAAAAAAAAAAAAAAAAAAAAAAAAAAAAAAAAAAAAAAAAAAAAAAAAAAAAAAAAAAAAAAAAAAAAAAAAAAACAZ/GtD759BwAAAIAL8p0Pv3VpH3giH176PxUAAAAA7u4+uLQRPIkP7u7+zb/9FgAAAAAux7/74N/c3X14aSd4At+6u/v33710IQAAAIDN8+/v7gKYqvjw7t9cuggAAAAAePXdfxPCTMV3QigkAAAAcPv827tvX7oIj3N39+8uXQQAAAAAcOjA9UcOBDGZAgAAANw+3w2hTw6hjAAAAMAWCKFPDqGMAAAAwBYIoU8OoYwAAADAFgihTw6hjAAAAMAWCKFPDqGMAAAAwBYIoU8OoYwAAADAFgihTw6hjAAA4m++972/HX753ve+d+Cwv/ve3+w+8f1LFx0A8CRC6JNDKCMAgPiBUsorwfft4wOHfU/9YPeJH1666ACAJxFCnxxCGQEABHmDH3D4HrwBgBskhD45hDICAIgfqB+pH73mh39vH8IbALg5QuiTQygjAID4gfreP6jv88Mfqr913vD6hz/+8fdFJl69/v6Pf/y3f+O84fU//vjHP/x7egRvACAUQuiTQygjAICw3vCP6h/44Y/VP4k3/O2PlOVHLAb/KI9/zN7wd/yL+rtX8AYAwiGEPjmEMgIACOsNf68UDSH8k/rRK/aGf1Tqb//+7/9Z0TCEfe17P3j9Q+sLP6C4yR/98PXf/x0/hjcAEAoh9MkhlBEAQFhvsA5AIwh/a3+yN/xIlODv1I/dD15p8QMakOAX/pkCKeENAIRCCH1yCGUEABDkDd9XP3r16jWtxyRv+Hu3MJMnLUQp6DnrDUr90w8sf2dPgTcAEAwh9MkhlBEAQJA3vPqR+v4rjnIgVfgBWQRBrvBj9U/8+B/s4x+oAXgDAOEQQp8cQhkBAAR7w9+pf37Fqyqm3sADEH6txY/FG37ogDcAEA4h9MkhlBEAQLA30NQEZ3Egb3itZM2lm6fgpFB/4+YpxiQO8AYAQiGEPjmEMgIACPYGawH/wILAcZE/lpiGf6ZX/lGSQv3QxUXSMa9/+LdYTwFAQITQJ4dQRgAAId7wfbdLBXvDP9Hay+//mFXh9Y/Uj374N/+s+JcfKPW3//QD+8I/whsACIcQ+uQQyggAIMQbrB5w7ifJ+/SPP6bYxx9/nx7/0z/Q43/4B56i+KFERdKoA7wBgFAIoU8OoYwAAOJvvseTEj+UbbH9Ptr/9L1/HkIZfvC9f/7Hv3f7aP/g7773D3/HKyywjzYAoRBCnxxCGQEAAIAtEEKfHEIZAQAAgC0QQp8cQhkBAACALRBCnxxCGQEAAIAtEEKfHEIZAQAAgC0QQp8cQhkBAACALRBCnxxCGQEAAIAtEEKfHEIZAQAAgC0QQp8cQhkBAACALRBCnxxCGQEAAIAtEEKfHEIZAQAAgC0QQp98BwAAAIArAd4AAAAAgKcSgjdcfxkBAACALRBCnxxCGQEAAIAtEEKfHEIZAQAAgC0QQp8cQhkBAACALRBCnxxCGQEAAIAtEEKfHEIZAQAAgC0QQp8cQhkBAACALRBCnxxCGQEAAIAtEEKfHEIZAQAAgC0QQp8cQhkBAACALRBCnxxCGQEAAIAtEEKfHEIZAQAAgC0QQp8cQhkBAACALRBCnxxCGQEAAIAtEEKfHEIZAQAAgC0QQp8cQhkBAACALRBCnxxCGQEAAIAtEEKfHEIZQZB864Nv34Ez8p0PUXcBuDVC6JNDKCMIkQ8v3a1ugQ8u/S4DAE5LCH1yCGUEAfLB3d1HP/kpOB8/0x/d3X146fcZAHBSQuiTQygjCI9v3d39/OMInJefo/oCcGOEUKlDKCMIjw/vPrp0p7oBPv4IMxUA3BYh9MkhlBGEx3fu9KU71S3wk7tvX/qdBgCckhD65BDKCMLj7u5nl+5Tt8BP7+6+e+m3GgBwQkLok0MoIwiPu7ufXrpP3QIfo/4CcFuEUKdDKCMID3jDOqD+AnBbhFCnQygjCA94wzqg/gJwW4RQp0MoIwgPeMM6oP4CcFuEUKdDKCMID3jDOqD+AnBbhFCnQygjCA94wzqg/gJwW4RQp0MoIwiPgL3BXLoAx4D6C8BtEUKdDqGMIDyu3xvixJLqbFcTTF5cumhHgPoLwG0RQp0OoYwgPK7fGxIllNX8+UzVzaXL9nRQfwG4LUKo0yGUEYRHCN5QVFWbWnHYeaHrLl20I0D9BeC2CKFOh1BGEB4heAPvoGFqFZIn7IL6C8BtEUKdDqGMIDyC8YaoUBTP0BW5ymMyiEopejor6rpoL13IR0H9BeC2CKFOh1BGEB7heINWidWGWin6X+e9oeXf1dWLA+ovALdFCHU6hDKC8AjHG3KSg1ylTdQkNPQg3lDaZ7v8+kMkUX8BuC1CqNMhlBGERyje0PRKmSgyLS3HzFTuvMH+oGUW1bVrA7wBgBsjhDodQhlBeITgDWWS5Eqp1D1RZblThojGG1QfQgIo1F8AbosQ6nQIZQThEYI3MLWsqtDu1yG+gaIbkuqF9zg/qL8A3BYh1OkQygjCIwRvKKqqcmMKWqk81v3oDZHpk8lYxNWC+gvAbRFCnQ6hjCA8QvAGPTw2NYczZBNvoGdzpa49wAH1F4DbIoQ6HUIZQXiE5Q0tBURSKgfvDVnR29/N9S/ERP0F4LYIoU6HUEYQHmF5Q1Sr3nTFGN9gf2Smi/dyUF8dqL8A3BYh1OkQygjCIzBv0BwUOY43RLGESV77cAO8AYAbI4Q6HUIZQXhcvzfEyVQKsqJM+yih1JH0IzJZnKf9tUc3wBsAuDVCqNMhlBGEx/V7w22A+gvAbRFCnQ6hjCA84A3rgPoLwG0RQp0OoYwgPOAN64D6C8BtEUKdDqGMIDzgDeuA+gvAbRFCnQ6hjCA84A3rgPoLwG0RQp0OoYwgPOAN64D6C8BtEUKdDqGMIDzgDeuA+gvAbRFCnQ6hjCA84A3rgPoLwG0RQp0OoYwgPOAN64D6C8BtEUKdDqGMIDzgDeuA+gvAbRFCnQ6hjCA84A3rgPoLwG0RQp0OoYwgPO7ASqD+AnBLhFCnQygjCI9L96bbAfUXgFsihDodQhlBeGCeYh1QfwG4LUKo0yGUEYQHvGEdUH8BuC1CqNMhlBGEB7xhHVB/AbgtQqjTIZQRhAe8YR1QfwG4LUKo0yGUEYQHvGEdUH8BuC1CqNMhlBGEB7xhHVB/AbgtQqjTIZQRhAe8YR1QfwG4LUKo0yGUEYQHvGEdUH8BuC1CqNMhlBGEB7xhHVB/AbgtQqjTIZQRhAe8YR1QfwG4LUKo0yGUEYQHvGEdUH8BuC1CqNMhlBGEB7xhHVB/AbgtQqjTIZQRhAe8YR1QfwG4LUKo0yGUEYQHvGEdUH8BuC1CqNMhlBGEB7xhHVB/AbgtQqjTIZQRhAe8YR1QfwG4LUKo0yGUEYQHvGEdUH8BuC1CqNMhlBGEB7xhHVB/AbgtQqjTIZQRhAe8YR1QfwG4LUKo0yGUEYTHIW9o2/Gxqbr5i0abS/fDoYH6C8BtEUKdDqGMIDwOeEOnVDX8Uqlk/mqi0kv3w6GB+gvAbRFCnQ6hjCA8Do03FMX4eM8bunJnACJS6tId85WD+gvAbRFCnQ6hjCA8nhLfsOcN+8AbHgH1F4DbIoQ6HUIZQXgc8gat5d9Kd/veUOlKflQ6o99brZTWzaX75msG9ReA2yKEOh1CGUF4HPIGGUDIEqVUmbE3tOPMhVaafsQ5vdpTvANRPakD3SiovwDcFiHU6RDKCMLjQW/QStVxqWryhk4p7V903lCrgl7FeMMTQP0F4LYIoU6HUEYQHg95g6lVbKIoUzzeUOTD4kvnDYpMoVZZhPiGR0H9BeC2CKFOh1BGEB5zb2g104gIVEqxKpS78Q3OG3J6XCiav4A3PALqLwC3RQh1OoQygvCYe4MEKlCkAomAMwOrBsveoOUxvQhveATUXwBuixDqdAhlBOHx0HiDdumdNLzhxaD+AnBbhFCnQygjCI+H4ht6VfLjFN7wYlB/AbgtQqjTIZQRhMdD3lBJ5GNUwxteDOovALdFCHU6hDKC8HhwHWap0iYyWtZTdONOV0ve0F+6Z75uUH8BuC1CqNMhlBGEx4PekCml0lrlpAZNrQZx2PeGwroF8j49AOovALdFCHU6hDKC8Hg4X2RT1NYcJF9kUQ+bWe17Q5dP0kKBfVB/AbgtQqjTIZQRhMchb6jc6IGpjP0/G8OYD7KpGveD/unccyYCB0H9BeC2CKFOh1BGEB5P2Q8TvBzUXwBuixDqdAhlBOEBb1gH1F8AbosQ6nQIZQThAW9YB9RfAG6LEOp0CGUE4QFvWAfUXwBuixDqdAhlBOEBb1gH1F8AbosQ6nQIZQThAW9YB9RfAG6LEOp0CGUE4QFvWAfUXwBuixDqdAhlBOEBb1gH1F8AbosQ6nQIZQThcQlvaDaYWRL1F4DbIoQ6HUIZQXhcwhvqDaakRv0F4LYIoU6HUEYQHqt4QzXfiLvNt5eSGvUXgNsihDodQhlBeFzCG7YI6i8At0UIdTqEMoLwOOQNWkdNq4etrEzvNtGudBVlujVR1Ol+eLkaj5zS6YxGFnShSnu9yF6v6e2RfF37w2S6mtzARO3yZW4B1F8AbosQ6nQIZQThcXgf7UxZEtnzMq6V7frZAZRO7POlKejlgo9t6ZmcxaItxkv0tTtEMVGUqNj+W9l/K/olo9fLjG+g6bHmF24T1F8AbosQ6nQIZQThcdgb6jJOlYojmmaw3b91g9qQN9R1rEuVq0RbdSCtsK8k9hllDaBRY8ijqVXR8tN+vIEuUejGe0NdF9ZHcjlUJUWtangDACAMQqjTIZQRhMdhb0jtz1aVLAY07FCVJBFaqY5NouAXen5M9hCrOpqFPGq6gomTdohvSFRp5F/xBvuL4ZO1Ku1Pkyp4AwAgDEKo0yGUEYTH3BtazTTkDTTvYMgSDA8lRFFPZqDZJCJ5qiUfiGW2ohF9GOkVWQUzeIM84byBT0vpuZyHNezl4A0AgDAIoU6HUEYQHnNvSCQUoSIxGIYGKopNsHT0rxYFkB6efSBRZULsdvoNhUdIoOPgDdXUG1hGNE1sODEx8AYAQCCEUKdDKCMIj8PjDUMXX3EMgpOFJW/w7HT6jYROmkPeUE28oYnGq94kqL8A3BYh1OkQygjC43B8w9DFV27soTo03tAf6iybLOfIyse8oZZLdPAGAEAghFCnQygjCI8neIOfRuDQhn1viCXiIep2L8EOUFBQxGPekHAQJsVcwhsAAEEQQp0OoYwgPJ7iDanK7c+Wt5XY94aO4x+7nNdHdPFwhZKXZGp3SPaQN1RKJVVT1PAGAEAghFCnQygjCI+neEND6RVKxWEO+94QxZSWQbE92CMHcSAZiHM5sFR1Yg57QxRziqg8hzcAAMIghDodQhlBeDzFGygtg5UAN1mx5w204lKpkoWhqMfpirgkF+DIhSqnEYfD3hCZvsx7g3yRAIBACKFOh1BGEB6HvKGSHryrXB6nziVnaKpOXqbnTeUsoat87oZZDodmeNo+HC/G/7pfJoe4JFC3CeovALdFCHU6hDKC8FhlP8zHMCkPVugb3jYT9ReA2yKEOh1CGUF4XIU3ZEolfZve8PYU8AYAbowQ6nQIZQThcRXeQBmmLXV66XKcD9RfAG6LEOp0CGUE4XEd3hBFVa9vd7AhgjcAcGuEUKdDKCMIj2vxhlsH9ReA2yKEOh1CGUF4wBvWAfUXgNsihDodQhlBeMAb1gH1F4DbIoQ6HUIZQXjAG9YB9ReA2yKEOh1CGUF4PMEb2t0dq5qqe/iM5kCIY9deuvu+GKi/ANwWIdTpEMoIwuNxb8hUvaMJD+dnaii/dJ0uKEJTy8aaWwT1F4DbIoQ6HUIZQXg87g2mKHaeedgbaAOsRCnVRsPuE54iMZfuvy8F6i8At0UIdTqEMoLweE58w4Pe0KqSNpmIVRntecOGQf0F4LYIoU6HUEYQHoe9wbS9zE9o1/dXurP/rwZvMJXu9wMdStX6fxudqITOtv/vev634V9MpscNr/psvMXtgvoLwG0RQp0OoYwgPA55g8l5c2zyAtlSm7bSVnlMAwjiDS43NAmASUd/KMchhoqPUHQF7f6t6EdX06X4lKaga7Ru1+4bBvUXgNsihDodQhlBeBzyBq3KPra9e+S8wT4udWk7ee8NtvNP+rhkhUhVbcYTax8SOYw3kBvEevCGuoytLlDURGdfKQpVwxsAAGERQp0OoYwgPA54g6lVF0VVUjTiDQ0LQ9SP3tDmruOnn/W4eqKh1RSF+93FNygXEOG8gWQkU7X9ab2ikVMu3a+fG9RfAG6LEOp0CGUE4TH3hq5iDHlD7ocQqFPvuZuPonqcpxBLUPt7X7c0LFFqOn3whioa/lWqlyvxYxaMGN4AAAiLEOp0CGUE4TH3hkQiEmyPXtDUQuZ6exIA2eM6nXhD16eJWvCGKMoohQMZw+ANkbtSNUhEYv/plGI5yeANAICwCKFOh1BGEB5zb2g1Q7GOMmqQuV4/VTEfMImLpNdVXqrl3JAFhzw84g2Ve6GBNwAAwiKEOh1CGUF4PJC/oYoVjwfIeEPOz+WDN9hn+ka6/yWMO/JBb7C+wKsqengDACAsQqjTIZQRhMchb2hozCGrKRaBOvVMKV5wOcZFcnzCfnxDKysz3XrMR7xBwiVoNAPeAAAIihDqdAhlBOFxwBt6VRpeVVG5Xr9UZW/acvQGzu9kCrGAeMzfkEskhOZ5il72tjjoDVqpoqkKBW8AAIRFCHU6hDKC8Dg03pCrsihqDmTgTr3icAY1zlNYJUjtAWwWsR9kiCTZU5LaHxQQYZQq0we8waR81QLeAAAIixDqdAhlBOFxyBs6WipRF5PRgioti0oP3mAKyvrYc/ff1ZOtr3TNLsDrMKO+pAmOg95Au2fWaW/gDQCAsAihTodQRhAeD+xPkbnIhWoSwVCQNzSVTEvQAV1FftDMzqyydjyl68YrUGYI+eFPdM+77BA3DOovALdFCHU6hDKC8Hjqfpg9b4FtJDzyZHQJ530qbn/bTNRfAG6LEOp0CGUE4fFEbzC5KuMsdkGPJyNWKm379MQ2co2g/gJwW4RQp0MoIwiPp443yP6YbhfL01HIppo3P9wAbwDgxgihTodQRhAeT/WGKGpa3ZonHvt0TKX7E7vIVYL6C8BtEUKdDqGMIDye7g3gJaD+AnBbhFCnQygjCA94wzqg/gJwW4RQp0MoIwgPeMM6oP4CcFuEUKdDKCMID3jDOqD+AnBbhFCnQygjCI8XeYOpdkIam6pxP55AVz0rIFIHGUaJ+gvAbRFCnQ6hjCA8XuQNFe9fMe3TJ5tgPoyJZWeKo1do6DBzS6L+AnBbhFCnQygjCI8LeUNX8iZZSvbLPAaTtzvPJDtbeV8lqL8A3BYh1OkQygjC40LeYJWh6KKmqFX54i4Z3gAAWJ0Q6nQIZQThccgbtI66vm843dPQLZs+Gw5odDZ4Q9W7YwZvqLQ/cprYyWTuuFYpec7ULBlau5vaG7a6aXrtrrsfKdHoVn50PaehqnSpCn315oD6C8BtEUKdDqGMIDwOeYNSLcUfVBX9LLn7bigpdB1zREKV0uOevaGTjbO70RtimoEoez5QEkmzJaT8kKYZkmFIQsIV3D7avMV2oij0wSpFS3MZBRtBlwxxEOwq9gdnqC7oArxr96W9AN4AwLYIoU6HUEYQHoe9oU77VJV1qeOSu+XMqkBsu35ShZYEIlH8i6lVrvuc+3/nDbZDtyfV4hR5bx+XfFKt+1rVDV19GIJgZZh7g6oLzVMZSWyVhDyjHidEnDfYZ3ROl8F4AwDgAoRQp0MoIwiPw95gv8tH9hu/oQ6/5McxiYBSGT1ODY8lUB+e5hHbQzV6Q8N9vT2wzekyDV+mVL19mKYV/T65UbXrDaURy6h42UVNJRjDJ503sE4UXCTENwAAVieEOh1CGUF4zL2h1UzjunCrAKn05x111TxXQFMMnRsvSMZhAMNW4LyBRMJ26sXwohMC3/tXE29I9r2hl+fT8dQJ3huoMBkLDbwBALA6IdTpEMoIwmPuDQkHC4w9uVsaQc9kqk6I0vbnlcuhIPENUdOmicQYTNdTaHmx6/nFiic3VNFTf//IeANrQK5kvWW+E7vg4xvcCfAGAMAlCKFOh1BGEB6Hxxt2vEHiDxXHNDhfsC6ReNko62VvoNhGlZfctVd0ZK2jx+IbquFxRMMW8AYAwNURQp0OoYwgPA7HN+x4QzbJtODnGWIXo0gLLZNFb+hVTmspfdfe9TXHRyQcmCBHldGB8QaerpCoCHgDAOC6CKFOh1BGEB5P9obODQA0hucZMunbk2EioVz0Bo6WpOMpxpHGGLqcwh6G/A2N5G/gGEpasTF6QyrxDc2B+AZ4AwDgkoRQp0MoIwiPJ3sDBSo2vK1ES4/zKjKa11PIRIJejm8o6Wg6qfLBlJK6IeHMDJQRgkcxClqf0aRTb6jsBfk5OsAUe/kbxlKmu1krrxHUXwBuixDqdAhlBOHxdG+gDE5pqXixBD3Oa1W7tQ2UZ2E5vqFVdVrQixXNatjHJa+rpGEHqwz0fx53yChsQtXlxBsoS1SdSkRllMsSjWVvaG1Z+ujKQf0F4LYIoU6HUEYQHk/3BunradDBYnRtH0pcpKb+P9bLcZEFJZPU7AImpcepJKA2cT3dD7PNSSGSqTdEFY1GaD6gVcNmVvveYOw98ujKQf0F4LYIoU6HUEYQHoe8oZJghqqRX6R7b6oxksDY50wlUQpdZuTQ8Qf9Iy9m9pzOXaCaRiL4A4SucYf5Y/mI4dHkvl003Nhdz1T7+1hcGai/ANwWIdTpEMoIwuNF+2GCJ4P6C8BtEUKdDqGMIDzgDeuA+gvAbRFCnQ6hjCA84A3rgPoLwG0RQp0OoYwgPOAN64D6C8BtEUKdDqGMIDzgDeuA+gvAbRFCnQ6hjCA84A3rgPoLwG0RQp0OoYwgPOAN64D6C8BtEUKdDqGMIDzgDeuA+gvAbRFCnQ6hjCA8XuQNZpa5KZrnfXqIriKefd+2e/aplwL1F4DbIoQ6HUIZQXi8yBuq3R2lpnmmHyJRTPnogYtkqg5OHFB/AbgtQqjTIZQRhMelvKFMEtruIj1wgGyPcQBTFDvPPOGWF+bu7s0n4GF+8ctL1wYAnk4IfXIIZQThcSlvoEOaWCmzfMCD3rBPEN7wK/Awn775l0+gDiAUQuiTQygjCI9D3qB11PU9RSu0eghEMH02HNDobPCGqnfHDN5QaX+kqXTvZxVM5o5LXD+fqz6KWt3Ym1BMRNfqjESi1UppPnR69uTWmn60tmxUQvswUYluo2sG9fcJ/Po3n376yaULAcDTCKFOh1BGEB6H99FuKQKhqjgOQTa4LOzDOuYRgiqlxz17Q8c7Yqtu9IaYpiDKng/k1yQeIeWH7cQbeK/tRPU179TN+3Srwoc/aNo/m0+h25tk8IeKRiMqlbduX2+5RxJdM6i/T+OTN799fekyAPAUQqjTIZQRhMdhb6jTPlVlXeq45F4+syoQp9I/tyQQiXTWpla57nNVj95gO397Ui1Okff2cckn1doaAlmA94bCW0KqG/tLXdhbWoPw4w2dfYHOTlg6aj+n4byB4irt4T3GG26JX38KcQBBEEKdDqGMIDwOewPFHpYcgNByt1+qmERAqYwep4a77oSGHvKI7aEavYEGCGo6sM3pMg1fpqRJiSZNq9Eb+JhEohyaouzYD+LIxzfI2R3/0tWDGHhvoBd7Dq0MIb4B9fdp/PrTf710EQB4AiHU6RDKCMJj7g2tZhrquCvuj1ORiI76af6+T11+J7MS9vEwOWDYCpw3kEjIWIJ7ka+WjMsnE1VUVVbULCSJmi6PKPia07jITsoy4r2hGpQE3nBD/O7N7y5dBAAeJ4Q6HUIZQXjMvcHlVah8x+36Y3omU3VClFYlKp6DoC/77A1NmyYSjzBdT6Hlxa7nFysJVih6M7mPqrNoHHyITBbby8+8YTx7wRsiXzZ4w03xq19dugQAPE4IdTqEMoLwODzesOMNWnkS7wvWJRIvAWW97A0lvZiX3PNXdGStI5e/IdH9MILBN2eTSCbeYKZnwxu2wu/eYDUmuH5CqNMhlBGEx+H4hh1vyHhOYdJxW2KOb1A1LZVMFr2hV3nPcZDS83e0ciKbDDFMvMFKQpz5nBD+9nnb0DoLeMOm+PQXly4BAI8SQp0OoYwgPJ7sDT7KoDEcVMDpGXLq43M5plz0htoHIdh/DEU3dLksodj3BjeIMYlvMNOz4Q3b4VdI4gCunxDqdAhlBOHxZG+w3XvaRCZWqqXHeRUZzbEIBR+jl+MbSjqaTqp8MCVbwpI3yKqNTuIbarecg85OxRvi3fwNM2/IDySevBZQf4/g91hRAa6fEOp0CGUE4fF0b6CECWmpeLEEPc5rVcs8hUpierzkDa2q04JerGhWwz4uOQ3DkjdYS8jjXK5pj1V5FvXzs/02m/ve0FFuiUurAbzhVHyCwEhw/YRQp0MoIwiPp3sDTTFIfkaL0bV9KHGRmqIXY70cF1lQMknN8Q0mpcfpbAnF1BsyzjLZ8mlNSukZDJ/d8tldPazW3PeGyIrLcTtawBuuGHgDCIAQ6nQIZQThccgbKglmqBr5RWYBmmoMNDD2OVPJ3EGXGTl0/EH/yIsZdfruAv78rmrGW42/NFkzXNPIKePZzeTWlfsxKVt13Vtro/4eAbwBBEAIdTqEMoLweNF+mODJoP4eAbwBBEAIdTqEMoLwgDesA+rvEcAbiG998O07cEa+8+HL6mQIdTqEMoLwgDesA+rvEcAbLB9eulvdAh+85B0KoU6HUEYQHvCGdUD9PQJ4w6tXH9zdffSTn4Lz8TP90d3dhy94i0Ko0yGUEYQHvGEdUH+PAN7w6lt3dz//+NIf2pvn5y+qliHU6RDKCMID3rAOqL9HAG949eHdR5f+yG6Ajz96yUxFCHU6hDKC8IA3rAPq7xHAG1595+7aM6ffBD+5+/bz36MQ6nQIZQThAW9YB9TfI4A32Hr5s0t/ZLfAT+/uvvuC9+j663QIZQTh8SJvMLvJlqZ5nx6iq4gT1n995dtTwBuOAd4An1+Hj19SL0Oo0yGUEYTHi9on2fN6wjTP9EMklLFa1UV2ouof864Z1wzq7xHAG+ANKwFvAOB4LuUNZZKQPBSPHfk0urLdeWZ37+1Lg/p7BPAGeMNKwBsAOJ5LeQMdYnreHPMswBsCBt4Ab1gJeAMAx3OofdI66vqeohVaPfTAph8nFhqdDd5Q9e6YwRsq7Y80le59FITJ3HF+C8xctXSlNnIvDDeo7O/+GpV2SNhEp/d3sKrsJficTreGf1eq0NdkDuerv2/fvXs9/PLZ+Mvbd28v/eF6LvAGeMNKwBsAOJ7D+2i3FIJQVfSzlA0uC4pJiHmEoErpcc/e0NUcrUC9ufOGmHfE7vlAiWTgrj7lhzSj4L2hJG+w9mGPt090BZ9m5EI534EfO8gDMprdyPnSXTIMVvCe3fYcKaE/5ZpWsp2t/n5+f3//bvjti/v7L93Dr+6/uvSH67nAG+ANKwFvAOB4DntDnfapKutSxyX3wJnt02Pb9ZMqtNQ9Uw9ufzG1ynWfqzoavMF+2bcn0RPWKfLePi75pFr3taqbwRvsJY2oRa4r+o0vWvKFapXa8/h1HmzI+UQrBgkZRc/3TX1pnTfYZ7Q9p9nOeMNnX9/veoP/Dd4QMvCGdYA3AHA8h72BQhal4265Ky+V/SIfdUpl9DiVDj+hoQday2B78Wr0BhqfqOnANqfLNHyZknr7Jk0r8oZEk4/w4EPFGkCvF3TR0l2j46f8dIfct+GfUc9O0tbDhIXzBn4x56ttJL7h/f37P+x6wx9lpgLeEDLX4Q1xYkll7u9px3cPvdwm8aX/ol3gDQAcz7x9aodAAul3tXylp0684r5fhgo66dWp+/dnGrYC5w28KLIYF0sYvlqiho4+cTMPKQlGxRZAN+CXY3GAUh4Xw+XjyPmBv94EP95Aj2XyZCPecP/1Z6/m3vD1+/sv+CG8IWSuwxt8PS2fWJkSqnUUr7SM3o2jvjzwBgCOZ94+JUMggVJS0Xk+gZ7JVE1fPpLSqoTr6V0XHTVtmkg4wXQ9hWskup5frHhyQxW9k4+iqiqah6iGVRmZqAJNVwzXGBZsJN5FSi5EreZNk/OGZDxnI97wuf2/eMNrtoUv7r/64v6eAyLhDSFzLd7QV1WbqqemR0km9XkBeMMFPkfXX0YQHofHG6SiD94wRCfauu98wXbxSeRko6yXvaGkF/OSe/GKjqx1NMZF8piEa2d8o9IseIPm4Ibx+89uzONmvYFgb3j9NQdEWm949cf7r+lpeEPIXIs3yDInmXl84vHwhisihDKC8Dgc3yAVfTLeUA4vVvKqTClUqqaFlsmiN/Qq75uh/Ym6vuYgBO8NPHAxjDfIIEZL/869IVMuzqFQyxOk8IaJN3xzf/+nV/CGsLkqb4hSqXdNUScu1iGLyzrlsCTXFripyCoahiy7IlelTwlrvzOkmfeGNqnjp4nI2YE3AHA8T/aGzvXEjRnCE6Oc2oFcjikXvYGjJel4+4+h8IUupyGGJW/wQROFW1Mpr9NLTe2HF1wIQ7TrBPCGV6/JFdgbXv35/v1n8IawuS5v4HHBJpU11Tx0aP+tZdTvkDcY+3rtlmB3POyouL2IsnKMbbo48AYAjufJ3mDbBFvTTawotCBRuW0YNK+nKPgYvRzfwAka6KTKewErg1+HmdP3GD+uyReNWo5dmHqDyYfhTTIIEzUJT1t049jDvjeUp0phfQXt0yPM4yKtLHz2nn7CG0LmqrzBcJ1MVd5S4pbS0AsxVUOq0bve4OuzrbUduUbKj8s2aktuL+yXiKQyerKK+pLAGwA4nqd7A6VZSEsJkeKUC7X9OpHIasyYHi95Q6vqtKAXK5rVsI9LTi097E9B86ZD1kn77SSRtmXmDdY6co6GZJ+wF5EvOtYhBnHY94ZeUSt3PazpDa/+dH//DbwhaK7FG3qKX86pnnYS5GBorNHwt4eIN7495A2GZzR4erMaTuXvGRxk6YcXLwy8AYDjebo30BTDMLxI3xdUKnGRlGpJxXo5LrKgZJKa2xNDHb49KZqsw5QxTzecYPrSPTXzhmQaC9nSNUoWhmIvf8PEG2hQ9Sq+0JygfXqEfW+wzvD+NbwhZK7FG9QwN9GqsiLcgKGKXVKHQ95AVJTedVhVLfOaidP93TVRlwHeAMDxHGqfKglm4G8U9hdpI5pqDBow9jlTSc/dZUYOHX/QP/JiRiFS7gL+/I5boOFK4xePyk16umvwS3Kwxe1PMRw+TpDyvdwN/eVMdRUTqCdonx5hwRve3t9/Dm8ImWvxhjyhJPCSQ95TcHY2pWQT2oPeoJ11jGlY4jHkiaY9riEPPLwBgOO5jvbp9lnXG3ifCnhDwFxHvZT4BokV0ip3+8uxLrRJLXOWh7yhp3FB3cl4gwz9FeINssQC3rDO5+j6ywjC4zrap9vn7N7w9s+UXtp7wyvatwLeEC7XUS/FG1oecGjdWqYBU/CyKoldaHa9wQxLqXxeeBKQyTyFUtkxRTkT8AYAjuc62qfb59ze8Nl7zvY0eMM7eEPQXEe9dOspSrcOgjr6JtVNVMWxPN/7/WD6qTfQiguXjqUgb3BruBvlUshLwOQTc0mdF3gDAMdzHe3T7XP28YYv7//wauINtL82vCFcrqNeOm/IuN8vVB03uqaMDE2t+qbRvDaqV7WuKPzZewNtkNuxVDQdPc/XUUVHodSyf26tO+sTV7HHFbwBgOO5jvbp9jlj/X33jjfAfEc/Pnv31j37+t3wMDjgDVdSL33eJ94exrg4R9mRdljh1HAapyIZvIHGGIbE9DzeEJEm0PIpnsHgdPPWQZ66yeZZgTcAcDzX0T7dPqi/RwBvuJJ66ffFrhJ+0KZ50rtntH3oJhqytGjlUHd8ViS0iCrO0z5K3K4zRR53fh9t+8uTt+Y+M/AGAI7nOtqn2wf19wjgDaiXKwFvAOB40D6tA+rvEcAbUC9XAt4AwPGgfVoH1N8jgDegXq4EvAGA40H7tA6ov0cAb0C9XAl4AwDHg/ZpHVB/jwDegHq5EvAGAI4H7dM6oP4eAbwB9XIl4A0AHA/ap3VA/T0CeAPq5UrAGwA4HrRP64D6ewTwBtTLlYA3AHA8aJ/WAfX3COANqJcrAW8A4HjQPq0D6u8RwBtQL1cC3gDA8aB9WgfU3yOAN6BergS8AYDjQfu0Dqi/RwBvsPUSrAO8AYBjuXSt3Q6ov08G3oB6uRrwBgCO5dK1djug/j4ZeAPGAVcC3gDA8aB9WgfU3yOAN6BergS8AYDjQfu0Dqi/RwBvQL1cCXgDAMeD9mkdUH+PAN6AerkS8AYAjgft0zqg/h4BvAH1ciXgDQAcD9qndUD9PQJ4A+rlSsAbADgetE/rgPp7BPAG1MuVgDcAcDxon9YB9fcI4A2olysBbwDgeNA+rQPq7xHAG1AvVwLeAMDxoH1aB9TfI4A3oF6uBLwBgONB+7QOqL9HAG9AvVwJeAMAx4P2aR1Qf48A3oB6uRLwBgCOB+3TOqD+HgG8AfVyJeANABwP2qd1QP09AngD6uVKwBsAOB60T+uA+nsE8AbUy5WANwBwPGif1gH19wjgDaiXKwFvAOB40D6tA+rvEcAbUC9XAt4AwPGgfVoH1N8jgDegXq4EvAGA40H7tA6ov0cAb0C9XAl4AwDHg/ZpHVB/jwDecLBetu342FTd/MVm9wnwGPAGAI7nNN7QVY1txvTjB5pq0rRVVXXwqPkTDV2ffzxKqbLjSm4eLu+JWmLU3yOANxyql51SY9WoVDJ/Ve8+AR4D3gDA8ZzGGxJlnSFX8aMHVkqV/nGmlDp41PwJTdfnH4/Rjtd/Ysmrh16uTtUSo/4eAbzhYL0sigc+nPve8KQ6s2XgDQAcz1O94VAXL7A3tPXj382tEQzjAcU5vOEp8jIvefXQXwdvuATwhifVS3jDy4E3AHA8J/SGp0DekMpDo87gDY1ST5nMmJYc3nB1wBsO1kvt6kClu0PeYA9p2p6qQaMTleg2AgeBNwBwPA97Q9PqjOb/W62U1pVtrXhUv3FtUdX3MsQg4w30Yqsd8wNa3Rj7f9vUlUpJREGvat9dm36MSWh0NnhD1cv9Rm+o9HBkpfthfCNzx9mL5q58mZRxcmnjj9K6cWUSb5C/jp4zlW6bsSSTprnTx/nIKdunzQFvOFgvpWZkiXXuMuMPZzvOXIg3KEUzgCpp2NIVYh4eAt4AwPHst09dMoz0F9zuFNS7Etp/5ZfetKvpSZ6cYG9wPxy7B/Q1hXTZM3PV88VzVUgj2BT2pTpmm6jolnU/OZ2nNZw3xDk1l3z65NpSzJo1IeUC2rsk3F5OL53yUXQ1F1vGQw30Q8pM0sMPcikJN829tLrcTqd8lkmfFSmJ+nsE8IaHvUHTh7q03p1wpOQwDOe9oS61/bT3GG94HHgDAMez3z6No5+FqgtqgNphvGHqDbbnznWfqzqaeoOMN3CL1swOqFXK4w1JL5GLne3DuRGkUMk4la9FFTWIiWiHyVUe0+lm8AZ7DWouI3dz+7jkk+rYWklNAwKymoK+Z5W2veTLuUu37iiz7w1+vMFqQ9rbi6Z8OJeE/xASk1KX0kCnfP9V26fNAW940BtMrUiFM/lgF/mwIsh7g3yA8wjxDY8CbwDgeB7whqYo6at1QQMObnx06g1tTscZpbqpN0RyGHXPVZ7LAdw9q86dKU/QZWU6QiIZO9IT2+2ndCJPYFQpN4g1He28ga/BatDmVCiJZkhoAKNJUwlUqPguUpREuaP40sNRu97g/7q4pLMyFoNSFYYvlPDPlv8qultXP+v7G+rvEcAbduqlm/1r5JNauam+cjm+QYboDH9a4Q2PAG8A4HgeGm8QfGMkj/XOIaakPnXuDdl0kbnhDlt6cDlTRMT6AHtD5yIZaYahcSemkzjFcgiJ1PwNKorVMKFrWCpSVfvbdXJixd4yBEmmZCa5GpZ7HPKG4Ro8M8xH5/SXare2s35BI4z6ewTwhp166Wb/KvmkuopgK9IBb4iGjze84RHgDQAcz7x96pIksR2s/SkxDlmclOqgNzRtmtRqEtogbVQz9K9NW0wPcGdm9HWJ8ixU8uWJbpck9OXJx0P2LvBhOH26nsLfvE+TMSqh6CUowXtDIv+Ml+aJh6Llow57Q9cnctHMqQK3xIlb21kcucbzVO3T5oA3PDjeoN2SJA1veDHwBgCOZ94+VT6qkRsgDsuuk0PewF+C8nrXG0zuV1ryAWW96w0RDVHQ8EIljeB4y8x9kZLuP+bT82VvyPnmpUxL0I1qerGbeUM/+2va3B91yBsMx1om9LJvkjPxBpmaeEk6PtTfI4A3PBjf4CKEbB2CN7wUeAMAx/PQPEWp0sy437038Dfulp7KVN1386UU3EYVqjTuQjsH+ItrlRs3GUDPlJNby8StdgMRupsqwyy4wl9bZig6Wq0hSyWaaDLeMM8d2cmaDu8N+a432HK1jbycuejHmK6UupmRFOMN6wBveNAbKjf/VsMbXgy8AYDjecAbeh9PMDZGLotz6kcN+Dv63BtaFxngIhFdVMDMGxqlehqTYG9oXALJxnAsFz9O6AVZUjmLbxi9ofSxX9Tr0/3cKIcbgHBTGZNLR4aO6mpSAFkJ2qgdb2i8dPB6UXGLch7f0F+kfdoc8IaH12FaoW8io2UcrRvjdPe9oVdPSOK6ZeANABzPA94gc/yNfKsp+Tu3dOyyykBUQO/EN3Rq6FzT3QOGi6eqdteJ6KWUA78lfDJ3AQt+HUe/HN8gUwcx9e4umFLuwGsrhj9hculOdIZnPawQ2WY3nnkDncZRlibl50uVd75ptnfQJmpSibbUD26EdY72aXPAGx72BppATGuVu9XOgzjse4P96JbFUz6fWwXeAMDxPDxPkXOmJU5eq1Te8kqHspQGy/b6aVyrHW+gMEqm8wfsjzdQuyeJFzi9EzWCpaRboviKhK4vAxEJJ7c5ME+RUk4nGYutOa0D9ecxjzr4P8G2qXQ5vnRMZ5Q8h9LQXWpVjt5Q2CcoqKEuChe3XknTLNJkFaOmtFE9P87Xbp82B7zhkXyRnM8slXyRxTiisO8NUT/kZwVLwBsAOJ799mncOrrKx5SJ9ts2dckNmUJSuQbLvhzvxDcMoYi20WKriPW+N8jkg1/90HGMY8J3NdqekzeSFa+kvns5vmG4OY8Q0ONUpiS4lRyzQ4+XNpwvUnI+tgnll5zERdJxmv9G+7yMX/Bf6ppmbqfrWLJTq2d9f0P9PQJ4w0Fv8DvMm8r4mjomQG/4CXeI3yG+w0TFA8AbADiex/anaAaPMJU0UGODFWWZsc0TJUMaflQe4w9ohteiQUqkTTO+EWyySb6HrBmbPn/6+COa3HzSNmb+O1VKo7aj+thLj1tfVJNdMDp3sr9CIyVqaajBPWWy8S/lX4TnNcOov0cAbzjR/vbgMeANABzPrbVPu2sorgXU3yOAN9xcvbxW4A1go/z6L5/86rm8eXNr7ZOstLg6UH+PAN4Ab1gJeAPYIq//8i9vPv3Vbz55JrfnDVcK6u8RwBvgDSsBbwAb5K+ffvqbX7/kAmif1gH19wjgDaiXKwFvANvj929+8/plV0D7tA6ov0cAb0C9XAl4A9gcv//0dy+9BNqndUD9PQJ4A+rlSsAbwNb4zZtfvPgaaJ/WAfX3COANqJcrAW8AG+P1p5+8/CJon9YB9fcI4A3nqZeTrSyOpKqee+ac9tqSUMEbwMb45NMXxjYQ8/bJjCmbnsQkwdIiu9fKnpRdwejZJS7dtJwE1N8jgDecxRua+nlrlDvep744wfrmTNXNy69ySuANYGOcYrhhp32qXJLo9Im1u9rdyXcHt6vkSKme8JUnn+5X7bLthw7q7xHAG07sDbJxRVTkz9mqgraZoy1jnpdg3SGJ5k1+bZtswRvAtvj1m1+e4Cq73lAnCX27UE8TB/GGRB0aE9jzhiftCtWW3fQSl25aTgLq7xHAG87jDc+iUaqm7WC17Cj7TPwGNdcGvAFsi9+9OcVVdr2B2hfT5sNm2A9ztDd0TzWSySUu3bScBNTfI4A3POQNTd8OwwaNdtWp1U3T6442UtHDhIJp5UidqFLTznDuaDNeoWn1sPNK1OmFypl45yj8g0Z3401b/iXTrX/GXmWs9E0v283pUiX2kEZrf4mhkF0/OT7rV968E94AtsUnvz3FVZa8gYYmy7163LkGppJqXlFLQcdXtk0opNmoJk0At03eG0zvn58YydCIuLMaf1Cr/VkZvGGLwBsOe0PFO71LNc1oaDDhHjhRPT2vaet4VbvOuqawhM5vUus1njfhVomR09QwAUG7xLoNY006DC10g/ubJKFHFe0am7Rydsvb0pqSN5LlZ7J8eDnqqKxlbNz8Z+J3wOVLyGQkl1dJ3IWhTb/rYtUICHgD2Ba/OUnjuuwNhsckTVsOLUlf+wbGbWfNQ590vHZtQtTVfgNttwu18ltSc/PhvvrQbtz22NTQAKjsA8z/cnuYu+ZI+7NoV+s1m5GrbJ82B7zhoDfY+lDHtuOnTtdWkJI2my+4zqi8L1Sd14XtfVOpVvZIe4gZxhu4Olb8vBxjTyj6VGppSl18rbjuJaoem4T5zKKm0+1NUzms1LYw9qY65+PsM1ImLWUt7a3toX68QbxB0/NpTd8gTG5v2ueqto0D2UdSKKXWjISGN4BtcU5vyLh+U5NkWxIKgTa1Ksgi2n1v8OMNtgnIhybAtj9F4Swio5bGNh+ltHv0D12OWir+otNTi+ObI5n30Nzs0SVqeMP2gDcc8gZbcWLjBgFsDem5RpF2J9xtF1zh7AuGHqdSE/shvoFfLTnqmddWNAVHEqVkIRVXbhNzde/qIXx5JzSikQLIN4KEK3PMZzY8A5lImTRdxXqA5jZFyuce85Fa2hgTVSmHatZ0Na1KKnzylBCoq6iXIdTpEMoI1uQ0jeuiN3Q8p6npqwrV+NS1HiZOFrzBxzdMm4BCldQ25a6hKuwLVTm2HLbdoWMz+VZT2qbGDM1R5tqYVOV0iRLesD3gDTv1sqvcAumKlcA+Ybh+RlJ/NM9TRMM655yqnfveHktVHryhc6N83TgdwIf4iOV6J7RJzwMaezcSwWueEh72qOQpLoEfqCCVqPgrBB2qZ96g3TGTNdr8J7hlVN2L4i/XrJch1OkQygjW5DzeQOspSpkhlabI9uU1NRdDc3LIG6ZNgDgCnVW57xuudaIZkLHB4vXkHTWFmWsPExqC4DbG3TCGN2wPeMNOvZQwBFuZ9OTLeOHiEgoSe+fu4geJ+EFC5KQSE2/IxikIqo5ZnMgoX+IWP6c7Cx92xhvcPKM8vXNT7b5kuF96bkyoOYln3hC7Y4SmLRKZHfETFPWaExXwBrAtzuMNQt5xK5Nzvae6biiEQaKtD3vDXhPQSUMlX4tk7mO2xCKmlo9/+Napl+ZIu2HP4azgQf09AnjDTr1sNdPYejImQPBLG/uFLrwaqrKSr/iDN8w8IKOX60QuICscdpds7sQ3+Jtmh7xBXo7tv3ooQDLzhtmSzJheL3NpNMzsFldfL0Oo0yGUEazJebwhr6oqlZ5+bHgqF6XIEw4HvaEYmgDjm4BpQ9V4bxjHGzr67lNSg6Xdtx0e86SGw81n0KXWa0SutH3aHPCGQ/EN/STh6jjeUCx4Q+PrIDHxhmoy3mBKFWfurEPjDbP1FN1Qm+ND3iAv5zzeMDGOA+MNtjS0jlOLN4i5rBoYCW8A2+J88Q0NBzrt1t+GVn0VD8Q37DcB1XRglOc7vD04cpV13BL68Vftv5sYN7uB9RQbBN5wyBsqp92UmMHHCdTSYe94g5/oa5poN76Bq3XWNjJS4RIz+GgJtZvRdZ6/wdfHfOGm/Ay/bKgB8GXthlfFG3yIBK2ydpbiQjTi6Z94/fUyhDodQhnBmpwxLrLgiKZEvs+YsfIXEuqQS8Ox4w3JpAlwIU56GoglaWPmw56tKuIxuDpaiG8o4A3bA95wcB2mrIbgmKGmVkVDA4F1s+QNEpvc85JN6+4y88iLIPKKhxEyt7ipkVXUSlFWyFSCGfU4VjHPF2lqKoDRbpHEgjfEw1VKWtFhYv4SUSiKhGZvkEuQPhg3ZtLz5GbPKSCq/AW5LdetlyHU6RDKCNbkjN4gK6VaVVe8DiL3gY78taXxiysHb0i5TSjYFaQJ0NIElJOGqq35i4z7itPJoKhRdcnfLkzpm6PKtUAF373FOswNAm846A0UkVDkItWU6YkyKNHjfW+gtdC57cdrWeVUJz5/Q00Rk5J2ydbtOFc1n2X795quRrW0mNo953Ya9qeg3SrSWk5f8oZartJHEi2VurXVHWWHcLOPXO6cdYKcJS4VD5nYbxuqpAKvuWcmvAFsizN6A/X7RuoxtQEdNwGJlmWV9HRuG5zRG2xblmsO4PZNALVZJbUhQ0Plmg83MNnUbja1GFLfzZojd4mkRP6GLQJvOJwv0lBWpVJqD2V+rGMeD9z3hsjwKoxEpvtY4aX+urSMXOtyzsjmvi0UNLIg0yCzyYr5fpichrJYuqnERVKL4XI+VpxHMuWxC0op5aOWOCtcyeOJmlPLublPmgkt21UzTcMbwLY4pzdIXibDwc6Sw5Hrd9771krF1egNkX2idIcUrgmghqrMJg2VS2DrJi8L96UiG6ZTpTmazIXyWXkHb9ge8IYH97XKxi/kxveyHWdDcPvady41gqkme09Uk23txys0WePPolWZw9M7t5ztZm+y5Zs2LjQpG89usvFEe5jx15kc09mrNZX7tVkzV+RL62UIdTqEMoI1OYc3DC1IJw9swzPU72Z8aCp36HC81PtZE0Bt09hQ+e13fCy1v1Y1yf4yNkfNeFa1dktyHlB/jwDecOL9MFfjWre9PAi8AWyLc3jD2SlXTT5/RaD+HgG8Ad6wEvAGsC1C9IZs1dzz1wTq7xHAG+ANKwFvANsiRG/YLqi/RwBvCLVeDlOMoQBvANsC3hASqL9HAG9AvVwJeAPYFvCGkED9PQJ4A+rlSsAbwLaAN4QE6u8RwBtQL1cC3gC2BbwhJFB/jwDegHq5EvAGsC3gDSGB+nsE8Iaz1MtmJxfKkH1lw8AbwLa4tDd01cgjh3IuKFNNmqmD55jdF/jc5klh2rQjdzrLkGuuZlUY6u8RwBvO4g2F36naUa26g9R1Am8A2+LS3sDZ7x2PHMq5pyvl9s+NeJebA+dUuy9o2SfrCQLAG3W3bjtgob6a5eSov0cAbziHNxi/NdW4q/WuNySbS8sGbwDb4oLewM1LnCS0rV5O/+y8uttZe28YxgKKc3hDzntqzL5TtbnZvfyFvmKh/h4BvOEc3tAqt0k2vGEE3gC2xaW9gVELDc0D3uDaKdrr8uTe0PDGnVZJigcOgjeEALzhoXrZ9K7OtZofVJr2rLePM/nd9Mudf6IymcVrdKkSe9JQGRrdyYVKVbhr9v02Yh/gDWBbrOINjW1GGq39L7vNy9Qbur6Rg6RRomdcw+a9IXebYfI3H6cHph+HBxr72HtD10/PpR+VHo6ctmqusYyiXmYosnE2hFrWRn5kUnRdqFLrS6S0Q/09AnjD4XpZFcMetU7QNXX/WsW2etnfu0INm1HH01ifxlYM2TG74rnFxHtDlbitbjU/T9cgr1f1FswB3gC2xbm8oUti/5DbqLqXrrxKd5uXaOINLTU+RTU2SpHJ+RE1Xc4bktSdlahWrtnEtoWqYxEOvpnmF3bPtT8SLgoXcNKqxbU/LirmReI2kwdG7PcsOqqs6DXiEmOxqL9HAG846A0t1ZdERu7m3lCr3Cq0f50cup991HtVuG3s5+MNttrl2ta3fvhC0NGl+nwq4DcLvAFsi3N5wziUn7k2iLvyeK95IXzLRC0V9eF6aJRs11/GWoYYvDe4oMVGKcPXpFDJmNoteawKd7O9c6lVTOPSnhdJq6alVavs+bqWCYpcsVW4fzU/6byhrouiprtgvCEI4A2HvMHUKrZ1oK3JlefewHE9puTXq5JeN/l0yo6fSqWSTOIbGjmx59AHmYBsc9rs3ki1unHgDSfhWx98+w6cke98eKr38fzeUKqU2qCauvKF5oVw3lDxd34Tu1e5UUo5JpFbK+8NttWji8QqjdgbEkUNVEMyYh8njb/ZcG42eAPfhy/W5lQ+adVSFduHRZJFU4Wh20ub6b3B8F0axDeEAbxhp166Nc+GKhrPQKT0OZ57Q+kqIltxsfc57/hMZ+4Tb9CyRa2tmtU8LtJsYs97eMMp+PDS3eoW+OA079XZvaFzXzg4FuFA8+I6a99MqcnXICEZwhrpugWLAvkADysMjVxBp2byWC2c61rFmE9npFUrVD0EPfjgCT0e5L2Bv3bxOAS8IQTgDTv1MvETbK4a2v4/3/UG/mC7IJ+d5chj3XGDCBNvKFRJK6ISN4IhFbtp0+RCE3orA284AR/c3X30k5+C8/Ez/dHd3YcnebPO4Q2dbUByVdufMU8C8JMc3xAPzUu/4A3JELigx19MViSlmnkDfx3iyEUeVlCKr1nKK/xFygU+mLZIajXxBo65cL1+Iy9WPJOiit7Ia044+oka+PgGejwUIrj2aXPAG3bqZauZxn6IZeqBP+0L3uCludtbr1T7XCtFNPOGMQ2LHio2P5fX8IbH3qPrr9NrlPFbd3c///jSb+TN8/MTvZXn8IZqaEQS6oBz/+Ry8xIN3uCHNLlZc81ZTAeX+cwb7IG9TC44bxjuVrkvSJUPppid69ZhVi4cbGzVOBa81jIPEbky7I03VPI8vCEQ4A2H4hv8eEJ/YLyhPTTekA11rY52xhsmQRBSVazY991GkjnAG17Oh3cfXfpt3AAff3SamYqzz1P4IYBYxhv2mhdiGG+I3QvDeIPtx+Nq2u1X3kVqmlAQb6gnd5Vpht4FU8zPnXrDTqvWtbksqPBhXPFkmgTeECTwhkPe4KtJSnLciyGXE2+ohrnFnc+51wMJMZrFN0gl7MaKzWFEbkry1oE3vJzv3F1LVt6b5id33z7Fu3V2bzBugWMu8Q17zQvhFz266Ac1NkqFjyqYeYM9QuYRXHwD36AxkQuNcMEUqWjI8njDrFWj4pic2083HUGLPIe/Bd4QJPCGg+swS5U2kZE4Ycl01qqJN9g6k3T2dQlAboeaMKZR5RCjQlHgsaynqJU2UZOouvGhQFKBNeIbHn2Prr9Or1HGu7ufXfpt3AI/vbv77gnerfOvpyhUrRueCRial3TSvBDjegr3qvGNkszEZvP4Br6mGx2I+FsRrbTkXSRSlVe8wGwY3MjUojdMWjUjt0/5cJ8cwn1NiiX+a8cbOjXb92o9QmhjrgZ4w0FvoPmG1FYSHmmwRp+XKpl6QzV5PRtzrrfD0F5Go4gdLZt2NdLWpJrOiPkwSimV2Sc4MQq84ZH36Prr9DregD2VV+Dj07yX5/eGRoIaeLxht3lJJFmCb1tielVJOyWNkv0ylFDGhR1v8Ltb8TWtjKjEXr407nEpN9s7d2eeYmjVND12aSjdqK2sN7MFEsHZ8QZqalPkb7hy4A2H22KjS0mwRp/1gipkNfWG6esmH7ZnGU0/4shme2Ltazq5uqr5dZPy4AVdVsWIb3j0Pbr+Og1vuB2u2xvMZLtr2zClrVupsN+8RJN8kZTetnYZlbhRinrq+JN4xxuiUlowuWbHeSETviENrqpcAsF3z53FRU5bNTIZlchshxcGvn5XT/I3TLyhyi8z4hBCG3M1wBsebIuzUXxN5SpsM6m1w+tm2NWtGjei7+ShPX6o6V3WjRfkV7PM2ANNdPPAG05xD3jDGly3N+wxxGbvNy9RNbYtZrIPpTRIXWtse0aJbemHa6UaOaNyvtFQC+WhBq/y4Y7Tcxu5nW/opq1a1/rzC86F55d28Al8kDvSXcMXIMj3fCPAG9AWrwS84RT3wGd1DULxhkoGAvILhQQcCy/lbC8V+PgIIbQxVwO8AW3xSsAbTnEPfFbXIBRvKFRdtH0SzP42tJIivVLJCaGNuRrgDWiLVwLecIp74LO6BqF4AyV9pvxL/aX/g90AIbQxVwO8AW3xSsAbTnEPfFbXIBhviJpM9xvYFG8FQmhjrgZ4A9rilYA3nOIe1/xZrZJkvi4ouc6Z7McJxxvAqQihjbka4A2olyuxWy9/+ddj3qPrr9PwhkL5NciVZoHY27ql1WEsOIY3bI8Q2pirAd6AerkSs3r5y7/8J2/+F8e8R9dfpzfvDUbVbr8Ev5p/zxtmGzhfMfCG7RFCG3M1wBtQL1dirJckDf/pmzf/y2Peo+uv05v3hlYVPlYe3kDAG0IihDbmaoA3nLFeNtV8VNZUYYzSngdXL3/9CUvDG3jDs+5xxX1IotrWZypWvGWC84amqJPW+OfpiCytVaKvN9kZvGF7hNDGXA3whjPWy2InYWq19/1rS1C9/PVv/jMnDfCG593jevsQyiJseCOCuTc0qWwqn43e0MoB+aWLfBB4w/Z44nv+y79+slH+8//Vfxj4L/7L/7Bx3rx5Zr18fMzVb4o1ZF5fGLfdzgjE3f/6fzORhud6wyef/PWXp2iNT8/WvYF3LXJbHk7nKVJVtlGV8tZIUmcypXpDP6/2ww9v2B5Pec9f/+K3b978aov8x9/+V2/e/NcD/9v/5r/eOOfzhpa2y5zGicEb5t4g/7zmGjl5/pe7T7zhPlke/sdfvXnz21+8Pl/X/IL2fdveUNLgmtspYeINHW9B77aXd3Wm440S0usNdoA3bI8nvOd//fTT3x+xCuyG2P3LMU9xsF5q26plvdtpRbdRxmvITKZbeq7SpUo0T0N0/fLqslS1spFLoxM+dvCGRnOqFrpGIedWfSAr1J7PyeYp/vr7T6+x8m7cG2R3ZCOWMPGGTJUVwcowunZT9TW8IfD3/JZ4wt7pv3/z+2v8wrICe385vOFgvVSKp2ELtgSV57zXvMzM5oY2u5e5WlPyIzaIYhrOYJtQk/Ecrp/Xdd5gm1BJDSvX0LSlLD+67bxviIs8xT2utg+JVaktsgnzxBvkQ06k43hDXPqP/nUCb9gcP7u7++7Db8TvP/3d2Sv4dbL/l8MbHvCGWhWU/91FeuW6Im1IW9vopcN4g8lVGfc5H9XOZmx5vrcmGZiPN2i6FFuIH29oavuMvUYou9M8D6zDPMU9rrYPqb0e0Kd45g3sE5Z28AZrDbY+xPCGp/Dtu59c+j/HFtB333n4ffjNm1+cvX5fJwt/ObzhAW8oaV/5nAYVbI/PW8fEJY0oyCSutIFVmlMIQ0mzt1FRTM7nzW0LFfOHcoxvsJJAh/ZsGhLfYK9hf5r6toMdkPfpFPe4Vm/IrAgz/PGezVNMdFjqTMsxkrZuwBuewAd3H3186f8eG+Cjuw8ffBtev/nL2av3dbL0l8MbdtriVlq/hho97vJbavyq2ViAjBvM4iLzvTaw4fnebBonxuf18kzEljCNizSluult7U6dZ/p3VzbXuG1vKPzSIX6g5Tf2ZJnDa1LNnkx1KuUPukF8w5P41t3dzy/93+Pm+fjnj73ln3x69tp9pSz95fCGnbY4kcHWiho9jvpuaGCgUn6HnkonuZp5Q9MWSb0/VxtL0ymjCxNv0KpMiFrixCp3jTS55vneU3Dqfa0+/eTSn5zHy3j6e1ypNxhXW3jgwVCQZNG5dZixquNO16ruWML7jsYbKtMmV/x5vyZvePXh3d1H+mcYczgbH//0Jx/d3X3w8Ltwbc3Neiz95fCGB8YbZA0lSYT3hoZncdOpN8T0TLk/3lD6+d4xToy9IRnixEZv4OfyK/7+dQpO7Q3X9gVg097QjgNyPGxWjnmfjPvE06iDkWxPUjfy6/28X5U3vPrgDpydh2cpXv3uzZUNb67G4l8Ob3hoPQX9w+vLvDcUKqeEuRNvaGz/3w0TuiPVoAekH7PxhkkQhItvULX9FhZM8v5ncmpveP3musKbN+0NOhk+u30SW0Fo06Tx+2i3RZ70slio6ZOUXy3jqk3a593s/FyXN7z61offuXS3ett8+4PH3u/fvTlz1b5aFv9yeMMD3sAdfC/xDdwCNqqmVZnZxBtSHyG+0+cP87016cfEG1o3jsHtqHhDLoENGG944D1aOBfeAM7ElXmD5bvfAmfju4//9//kt2er1FfO4l8Ob3hoHabt8bOa9MF5g6lpEQQNvEY89mBomoLsIpO52nb8AlX7rSkKOlXzsewNFA5mOGl/Q9aRRz6wXF/xfO+l2+LFc397XTOO8Ibb4fq8AVyW7b6Xi3/5dv9zDDywDlOVVhFqE03mKcoilT17yALKmOYpkrhUPFaQDcFhw6gCz3M0dJQ9VtZh9BQhUctohj0s7+n5JK4VxhseeI8Wzv0VvAGcB3gDmLPd9xLesMxhb+hy291TPMMYF0nSULeS97GoKRispyCvhHPYmDz3WwOnfprCTWFYLVA+X2RGwZW1RDnYa+SUFsI+E2t4w+H3aOHcX1/XlCO84XaAN4A5230v4Q3LHPYGyqIvj03lc0CbzD6q3NMV717RZcYeSA+N14aok5fkoWxG0dmrVLOnFq9xs5zcG17BG8B5gDeAOdt9L+ENyzzkDeB0wBtOcQ94wxrAG8Cc7b6X8IZl4A3rAG84xT3gDWsAbwBztvtewhuWgTesA7zhFPeAN6wBvAHM2e57CW9Y5lBbXN30LlPrc3pvuC7gDbcDvAHM2e57CW9YBm3xOsAbTnEPfFbXAN4A5mz3vYQ3LIO2eB3gDae4Bz6rawBvAHO2+17CG5ZBW7wO8IZT3AOsA7wBTNnuewlvWAbesA7whlPcA6wDvAFM2e57CW9Y5kJxkc3O9c0kF9RNgvUUp7gHHHcN4A1gznbfS3jDMhdah5mOm1kwPpX1zQJvOMU94A1rAG8Ac7b7XsIblrmMNxjl9un2G3Lve4Nssn0zwBtOcQ94wxrAG8Cc7b6X8IZlLuMNrUp5p80I3vCk9wjeIPeAN6wBvAHM2e57CW9Y5iFvyHrZaqrRbZRp7sZN76YXKvt7pTP32CGHd/rRWIVcZalq+dKlSuzlB29wJ1f2+UJuWen+BmIf4A2nuAe8YQ3gDWDOdt9LeMMyh72hVTSZQCpQqTxXNCzQFfapsqeBAq10Thti9/zYQf18ltgHOT0ddYlZbpgaVUctm0LF5yXeG4aT5ZJ0S9p2W9XBmwO84RT3gDesAbwBzNnuewlvWOawN9SqIE1opHPP7Zf/zD4Z2569jKhjr1Ual1YA/HhDrmp7rD0lIaOwfb+xRyw3TFoVFOLQ7I43jCf78QarDbnuc75N0MAbTnEPeMMawBvAnO2+l/CGZQ57Q0ndek79ecUaEEW2Kzf2t5LGAbRSHT/ll0V0vEKikUEHzR19e2iYgM9K5aKT+IZGFln0fLLEN7Q5qYeRm4UMvOEU94A3rAG8AczZ7nsJb1hm3ha3Q5yCUjE/QXEOlXzdr1zvHVMfr3nUwT52yyJMzSdomW8w6qGoxk6sQq4w8YbZydO4SFMGHyQJbzjFPeANawBvAHO2+17CG5aZt8XJEKfg8is0NJvggg9cR0/TFRzfQI+HeMZE5fRPqsqEqDnq8QCFmgwiTLyhmJ7svaHp00QpeMMeD3nD23fvXg+/fDb+8vbd27N9juANtwK8AczZ7nsJb1jm8HiDxDRSj+3kwA0HkEvseUPMwQ2DeEhM4yFqf0wRzbxhdrLzBn4ux3jDUXx+f3//bvjti/v7L93Dr+6/OtvnCN5wK8AbwJztvpfwhmUeWE9B/3TkD36xg4tObOnfuTdkfkCgkOmNB8kGPZA4hsl4w+RkF9+galoMGn4yhxW94bOv73e9wf8GbwCPA28Ac7b7XsIbljnsDRy40Et8A8tB5+IbColFmHhDV/vhBe3c4qFuPnUxEaamuZBZfMPkZFGFkvXFHglveDLv79//Ydcb/igzFfAG8DjwBjBnu+8lvGGZB9Zh2h47q6mP95MRicorWiVBffnUG0w+ZHtsrEGYqEl42qJbHHsww9YUHOdQqNz49RTTk5PJLEaM+IYjuP/6s1dzb/j6/f0X/BDeAB4H3gDmbPe9hDcs88A6TFUmirNBe2+oaqWSUvFvU2+w3XrOAY3sE6pOJUKhqRcnLdohGUMmkyCqjN0t+ORalnK09qItHZIWNeIijzn8c/t/8YbXbAtf3H/1xf09B0TCG8DjwBvAnO2+l/CGZQ57Q5fbHr2l6Mhh0YTprTWk3IVPvSGZxkK21MuXLAzFYv6G3C/dpADJlo6yIuGXbIwnm5QFhaUhRnzDPg+uw2RveP01B0Rab3j1x/uv6Wl4A3gceAOYs933Et6wzKG2uLIddeM6a1ON/X8le1DY15rhpa5yuP0phsOb5SsPT3fy0P4cbjGebJ/jV7OMnj2QsToYLuwN39zf/+kVvAE8BXgDmLPd9xLesAza4nW4hDe8ek2uwN7w6s/37z+DN4CnAG8Ac7b7XsIblkFbvA4X8QaBveGz9/QT3gAeB94A5mz3vYQ3LIO2eB0u7Q2v/nR//82NekM7yU06nVOb0D2eVgR44A1gznbfS3jDMvCGdbi4N1hneP/6Jr2hm662GWJ4Z5j6ofylYA68AczZ7nsJb1gG3rAOl/eGt/f3n9+kN0RFMT5e9oaozXcCaw8cByJ4A9hlu+8lvGEZeMM6XN4beJ+Km/SGKU/1AXjDYeANYM5230t4wzLwhnW4iDe8/TOll/be8Ir2rbhFb9BuDqLS3cHxBtqrzf4wmeb4B12oUmPqYhl4A5iz3fcS3rAMvGEdLuENn73nbE+DN7y7UW+gPVSiKKP0Y2U28YZijJfkxGGJkrxivE08cekPxZUCbwBztvtewhuWgTesw6r7aPvxhi/v//Bq4g20v/bNegPlKI9LVY/e0E/iJZ031HVR1CrHeMODwBvAnO2+l/CGZeAN67CyN7x7xxtgvqMfn7176559/W54ePrP0WW9wdQqNrzlyeANJh/jJb032IeNUg3iGx4C3gDmbPe9hDcsA29Yh5W94QKfo7W9odVMI95Q0R5pEW28vugDzhtYJHLaFQXecBh4A5iz3fcS3rAMvGEd4A2nuMf0s+p2U6vEGzTNPkS0LftD3jBuyQZvOAy8AczZ7nsJb1gG3rAO8IZT3OPweINWKT+r4Q0v5kze8G6MrrEPJy+8/vJ8cTfgFGy3o4Q3LANvWIeV11Nc4HN02fiGXpX8OIU3vJjzeQNvyvpqxxvennN9MDgF2+0o4Q3LwBvWAd5winsc9oaKox2jqIY3vJgzegNtyvpq7g1/sM/+Ed5w1Wy3o4Q3LANvWAd4wynu8cA6zFKlTWT0ZD3FdL+rPW/olGojsMj5vOGP93/2D4env7r/6oz7poBTsN2OEt6wDLxhHeANp7jHA96QKaXSWuWjN9hnMv94zxusZ9RJc+lPxXVyPm94R5uyvhq9gRYLf/XFOfd3B6dgux0lvGEZeMM6wBtOcY+H8kU2RW3NIZvmbxg3s9r3hirHiMMBzucNb2lT1leDN3z5tf2FZi7gDdfNdjtKeMMyd2Al4A0vv8eyN1QuLaSpjP1/Nzxvxj0wO/uS/LCCUck4Q1NFYIkzjjd8dn//+SvvDfbnF/ISvOG62W5HCW9Y5tK96XaAN7z8HhgbW4MzegNtyvpuGG/4w5fuJXjDdbPdjhLesAza4nWAN5ziHvisrsE5veHVH+//uJu/Ad5w7Wy3o4Q3LIO2eB3gDae4Bz6ra3BWb+DJCXhDWGy3o4Q3LIO2eB3gDae4Bz6ra3BWb3j15f39W3hDWGy3o4Q3LIO2eB2QZ/oU98BndQ3O6w2v399/BW8Ii+12lPCGZdAWrwO84RT3wGd1Dc7rDa++ub//HN4QFNvtKOENy6AtXgd4wynugc/qGpzZG179+f5evOH1W/cSvOG62W5HCW9YBm3xOsAbTnEPfFbX4Nze8Nl78YbXX7934gBvuG6221HCG5ZBW7wO8IZT3ONSn9VuU5klz+0Nr/4k3vCNJIF6BW+4drbbUcIbloE3rAPWU5ziHhf6rDb1uNPFBjiTN7z96is/L/HlV+wJf3Da8Orzrz5/8nXB+my3o4Q3LANvWAd4wynusdpnVfawGCjGnS42wJm8AQTLdt9LeMMy8IZ1gDec4h6X8oZtAW8Ac7b7XsIbloE3rAO84RT3WP6sah01bT9sim1aF41Q6SrKdEs7WvXjy5V+YPvsTNOERKMTldir0pW7nv9t+BeTjSebPuPnbg94A5iz3fcS3rAMvGEd4A2nuMehfbQzZUm4S2/iWqlS07yCVrb/t79EBb1c8LEtPZNPwhzbeHxMO3HT7tqVYujKvfu3oh8dvZ7zhpsNXbNuZQvvGwPeAOZs972ENywDb1gHeMMp7nHIG+oyTpUiA+jIEKwb1Ia8oa7juFS5SrR9mbTCvpLoUo1hjlYR+vFxHfdWDbphvIHcINaDN9jLFSIgfJtC1fCGg6BxvR22+17CG5aBN6wDvOEU9zjkDYn92aoyIjGgYYeqJInQVgHYDAp+oefHNFpgO/zh5EnIY0onmSKthvgGufLgDbl9mPG5cpumhDccBI3r7bDd9xLesAy8YR3gDae4x/Sz2lWMoQ6d5h0MOYFxQwk99e6aTSKSp1pSgFhmKxoZfNjF6oQfhxi8oYqGf93IRC2PeaojhjccBI3r7bDd9xLesAy8YR3gDae4x/SzmkgQAnfiRp6oaECBX+zoXy2jBdL5V/RLosqE8D4wh6Ikip6vNXiDvOJuU/nbdO6WGbzhIGhcb4ftvpfwhmXgDesAbzjFPaaf1VYzzdC7izfk8ip18kve4Fnyhqii12ttHvUGrycNvOEgaFxvh+2+l/CGZeAN64A806e4x6H4Bv7Hdeg8EFAdGm/oH36bujbnKYhHvMFInESE9RSHQeN6O2z3vYQ3LPMEbzBVt/dUmyY6Mno3i148HtmMZzVVFT2TpmqOPaVUL9xMoNv5e59Rhn3gDae4x6Pe4IIZJLRh3xtiiXiIuuU3iZ42uUof9YaoltdTeMNB0LjeDtt9L+ENyzzBGyoXVD6BFq/HttXceUHz8jehd000H50+twk7Pm9fO4mVfxZGjSV/ZhkWgDec4h6Pe0Oqcvuz5X593xs6HkzoksnntB0s08iBKZ3aq7qLHvAGrVTRVIWCNxwEjevtsN33Et6wzLO8wbaweWWirtz53mYmCXXMuEi+fv4IwPF9duoS/DwbyvTj/i7pFfbKsCBSjwJvOMU9HveGplYqKe3n0yx5Ay2AqKm3H6YrskkuB6u9aZyzU5A8pg94g0k5SqKANxwEjevtsN33Et6wzLO8oVLl4/v8DB14Nvl2dyxHe4M5EPL2dHLbG7iSwxuuqoxP8YbItNYaEjdZsecNbIWqHHNEmnyyZVVK+SDl3L6ktZoHvYHzUqa9gTccBI3r7bDd9xLesMwj3tDobOwmG83fwytdqJIC2Sn/P/+odOYOaOVHZf8/TBh4gfAbA9ABXd8OzXXTZ8PjTo9DGFXfjH12Juvj5GQt4xfteI3MlcBl/5HT3atuD4GWbm9/NL0eLr/0F6uykZK3Win6M4cyuPvJn8/HZrp9YuwD1lOc4h7Ln1UXPtNV7g338SguxIZzPIxROlU2e8vMzGm7yUexG64sl5DrjLeJOMPk097+oIA3gDnbfS/hDcvst8VdMnwbq2g0tu7FG3iRWt7z3K6sZNMyicybANR95L7T2R8J59lz0xNuwmLcGMAeoMcNA3iS2AVAZP4WdHxJ3/1i7rMNffuri0ZOLvjqRtf0HHcGMe8rwOcVnG1YvnUqeXX6dTRRscxJU9y8Krhb6NJp1xHbC+Rc8mT6Z9r7+Sv6zQtk24Mnxm7AG05xj6tZ+9MlrXzasK/VIdC43g7bfS/hDcvst8XjKHxG2fmp90y4ibTdfU698zDe4LyhVmlc8vo35w20r1A7hEPKCEA6bgxgv6SpnC5FOtHTPYqae/vCHdPL49I+5vg2QyPPhSy6p5PLuKWV87xZQGkm+wpENMvALXlOzlFLVr+5N1jX0Pxv7l8vZ9MOpT2s55LPxhuMPbiwZ9RmGG/oVZ32Rf20rgPecIp7XI03WPtM2z5dzjsZOvAGMGe77yW8YZmHvKFUKffK9ETju/l6PMR5A8/38upH7w3Sk7qkepz1320MoOl0dwBHEdjuODZ8aEc/qskxPT+WW5QU8ZaSgFTuC36hEsNG0Q/7CvDEtFyjVTUFr8WsFXNv4MgM+3rLr1PkxSy8k0eeG5cFYBLfoDnSzuRUaPfnx2XL/0WeFOwAbzjFPa7GG9xYU32Lww3wBrDDdt9LeMMyD3iD68dluaWWRHzGfemfegMHFMTUnTtv8GGQ7BKSIieW3p43BqjkW1rm/EAmjcfwdyNzA6V7zIMDsStP50/2QWoxnTPZVyASP0mGfQiqXW/o5U9Kx79mhsRE5nLYxBtcVoie/jPM4iL7p4XGwRtOcY/r8YbIVFp3L7/MNQJvAHO2+17CG5bZ2SsoSZJc1fZnPAZ99dI3S2b/ehhXGLyBO3Uf2jDtVdk1WhaO6cYAPhewpPTLh5unwy2yyC9p4GkHv1SOXnAZfq0R8LG5G4NQqURBdvKyz/3E/f/cG6rh+WiY1ZhQu2GV3JfQ/ZnD/dTkL6w0PQFveLVBb7hh4A1gznbfS3jDMvO2uBry9yfjCPxOZn+96w16OGjHG3h0IeUuenp6NWxOPFgHMz0mcR16Kn124w7Q3hvGgtKv474CbmGcH0dwp7uzR2/wr8e73tAOlx3T/tBf2E3v5/4Aee6JKQPhDae4B7xhDeANYM5230t4wzIPzFP4OQQt4w3x3iGPeQPNChjp9KcbA8y9YTreMN7CzWtE5Xy8oZqMN8zWzzVuXwFnBH48gccdXMdeTrwhOTTekA56EEc74w1jBJz7AxKVtiZ64hJ+eMMp7gFvWAN4A5iz3fcS3rDMA97gQiFt55q4aMXIZfZ/qje0tmcVAdCTjQGm3uDDFSiFw/QYd7vGxTcUcguJb3Anc89v+GzO98PFtMdm/NOHU1QkDPRUpibe4DJkN7vxDUPAgywCmcU3xMP95A9wcRxP3NoI3nCKe8Ab1gDeAOZs972ENyzz0HqKRHL9y3qKWmkTNYmqm6d7g+2GE4k06Lifl40Bpt5AazYa7tQ7JwlyC/s4NrSEgp6S1Q9V7lZr8MmxolUQPS3gNBKTIOmlZEV9xrMWsgKDxi4MJwYevYGWdAyvm2J/Uw1JOuEXdUj4p71fVpOQyC4HDXtDU3KBmuqRGDl4wynu8XCOssfeA3rjhz3KnrrXmn52rtPl+x91eEfFbSrLmiGY8AYwZ7vvJbxhmYe8gYIIEsqhQE9opWrKwxtHT/cGWq3mFldMNgaYeUNGyZTyYdVlnUoEBR9vH/M8BWVjKCnzQjd6A+VTyOm5RhIpxLmMXLiIxtRdipppikOwMjKdp+CC0esZX32YK8mHqRK2EEoo4fM+TcpgH9cpRW6URWr/60gKqEfSPyHP9Cnu8aA36CesiFXDe/3EDNHxZCLtBByZlzpxK52JPF0rVwS8AczZ7nsJb1hmvy2ebJvNORnzTNrjlpIy1m7G4InekKlhl6lxY4CZN0gexlLCDCh5k988gPJI1rG/OikEr5jw3hAZDqPMuayyr4DPTtn400v3XZFiH8pqGhc5e70dtt1qhh2taJTFRF1OnuTyRXLog2zcVXEwRcfRmLKCYxq/cfK2GN7g73GcNyxsbqJ8cpGn9uBdfdyebMnD26M8zxtqXsij9ouSvHQzlkXgDWDOdt9LeMMyj7TFpm1Gkegy98A908goajM8Nf7wjOPC48YA/oBhzDYbT+gmj5tsuLr8IicPLaWpJpsJDA+H1L/NkNPBvty4fQUmmwuMrzfjFcdmWHYjaOxPXwZTTfbU4ANN5vcweDRxILzhFPc4hTfUjXsUnYOzeIMs38n3s43AG8AabPe9hDcsc3OxZt2wsdWKmEdvCm84xT0OflYr3Q3eUOme5LPRiUrc/mOtdl5J62ano120NdmgnE0/bnXWuI3SaIc23rst02SN3eSQhX3aKl2qwu26NuyrNmXHGyY7sw135FN70eepN9DcWT4rs9zNBfL2p4vDgDeAOdt9L+ENy9ycN0SJOm5k+RRU01Wqi8AbTnGPA59V3g+t5NyhLqtG3fkUH5FPDMITZko1sl7X9eDF+FKT80yaGS7I76mWxUS8d1tpinE/tsV92rTPfTLdV226b9rUG3iGro6baH7HqKvdX7DrDW75z1Bm7fOp8L5vKj3V2AO8AczZ7nsJb1jm9rzhEmTJY2021lOc4h7Ln1WKp41L6bBtp5v39pdyHG8oVF30spyG+m0tobrcg8f0UlG7ndRyOsrt4VbqlFOjOm+o69heNLcXTH1CkqV92obxhtLtq0ZDCPVk/mTiDRTZy7u1dcMdZZ0OXa3PeSHy3BskikYPZfbjDcOeaycKnIQ3gDnbfS/hDcvAG9YB3nCKeyx+Vt3eaD33+W1OwwGSFkziG5qC9y1LfSYvU/LaF1kGU1LHrt3GbYYEsGjcOlta/mu8NyhZykPXTmRNEHf38e4+bS7ioOed2EzB01dtPcbsTLwhlt3aEre6WPZIo2XKOc1GGLdseOYNnF01Hsvs7qZ5lMQkT9zS/ayf1RE0rrfDdt9LeMMy8IZ1gDec4h6zvVQqxgx5TSf7oRtKLTqPi5RZDJdrrJr14L3bAzVx8wk+AVllhvGGUm5APXZLzxzap8315LN91aZM7iqjHLTkaEx5Nh4tO73ueUMyK7O7m8uO2p4qsgfeAOZs972ENywDb1gHeMMp7jH9rLrtTKohV3nhkoD2aSKZO7w3mCxOSjV4AyXeML4HH7cmo6W+cSUXKoa7OG9wicXpZbddy/I+be6Y2mVGL3djbSbe4Nb88sBCOouPadoiqV2m1B1v0PMyJ27yJR/2XLv0Z3UEjevtsN33Et6wDLxhHeANp7jH9LPaaqaxval089K/cnRjXk68IeMww2T0BprYkEcSOykdLicroTxfw6Zqw0WXvGF5n7ahJ5+sh5gydu1DIpLcnjFL/8HXLusFb/BTJEOZ/d08p4mMhDeAOdt9L+ENy8Ab1gHecIp7LH5W/SA/r7BsVU0rJZPRG0yp4sxnG5POurX9uut308yMXXhFWUqfON6wvE/bMN4g4wx+3GFgNt4gOUBkvKGYXK6mVZjJvjc0LuZhLPPcUq7hszqCxvV22O57CW9Y5uTeMM30RHTVUVHeT9lk4FianV0BzOP36Hx+7Cdgpt8pD21AAG84xT0WP6t+bzRet8CBDa6HFW9w28EXE2+w/W1CjzJZdtnLFiN0kZaWQPg93CihwgFvOLRP2zy+oXsovqEcRkPGy9EdS1GShfEGFqNsup3a7G7mVHmo4Q1gznbfS3jDMqf2Bttiz6Ozkv2kfQ/xlE0GjiVV86991RPuUT692Pl0cvrQHDO84RT3WF5PwXujGc0RDDl/04+5w245CYKECzZq6g1NzfEB063JJEqCAx3tq0UTyYLNA95wcJ+2VOVm2Ikt4WtOvXLy8dB+t7ZC9n01bmFEyp88vRffkOU8rjDbTk2SWPWqtgXLylNVHXgDmLPd9xLesMxx3vB4j9urYdRU2sg9b3j4GmfwBjPk6nGF2S/Bfr7e/unB6W0++aIHbzjnPZY/qxTAkNYqd/MUaVHLVL+hsAZSwDzO3e5s/u3RPq6wjN3WZIYOs1cp5ENcF6Ubs1j0hof2acu5w5dd0GS5QzH5eCQCb/wuxzRSHn/Hyv4xlIxh4g11QnGdqs6ieZlp1CHvZc+1VJ1sugLeAOZs972ENyxzam8oVeG/fl+LN7Qq9bMOT/eG5pmtMLzhnPc48FltqAdPZf81lobYpVEoafiAvqirsp15QyRxhV0+bk1W8WFFIxespUc+6A0H92mzZ5JxjjuxTfZNm4Qw8guJ3yjN35F/ifkv0BNvkCyUbrv3aZlps7WcE0Wo8VIvBt4A5vxms+8lvGGZeVtMifib3vWhWjdNz51+10oWfF2oUnNWfpPpdmk6tVNlI7PDLY202mMHb3C5+OUa3FROtgYYoCa66V0L2NoStLILQOf3BbDn2ps37nWhnd1hl1xlKTfdjS5VYg8evKHRnfzVQ57/YWcAN1w8+2/jQuF6OdSdzKXkf02frekN18WF96cw9pPkw1ayaty/rJO3KvO7sw3hJz7mpWm74Vkz2VTNuE3YON7GBd3IRYfomEP7tLmAnoV90+gYRzQp3vyO9Bdkbje1TnaOq+ZBQ7My+23lsmvbn2K7fc3t8avfXLoElwLesMy8Ldb0TY2+nNEv9ksPfzEyvLSNet5hsVcva8GoqZpm36fh25j66civVKucN3Aufs7XP3zdmmwNMCtBknIJDF+jl/vxZgBFJaXiHQiSLhpXwyWzO9hSTL95kce0nKancgc7b6h4h4F+kud/sjPAsAvh8Of5EQieAud9uN3W3fI1lL/z1hm84Zz3wNqfNTjNe7ndvub2+NUnly7BpYA3LLPrDbUqqQOm7pz6wUKTNpQxpd9vhvGGVqlUFzIXXM8G/Uvbt/bcSc/GG0xtL2VPoEAzN95gb5X6rQFmJXCbDUgaXbpRw7PFsWTCsaWq67iQEsp4Az/mHP1yB7KaanrFgma6m93xhoJmoks1yfNPexvoWHYGcAvd7GWH5L2JTMDENDLst0RII+cNJDNF4qadT9wWwxv8PeANa3Ca9/Jf/nL+Tx1Yhzd/vXQJLgW8YZldb3BL1xSPDPAqtSrlcQVOfee+qcel5O+naPFp9n1a2OYz/c/iG2LO4WtK6uHdNYp6TLM/L0HBAemyVJ3jEiR7v4n5N57QlRsJBRdzegeTT0cxODtwKn4yiW9oZJHFNF9vm5MGGBlX6GR13+TPa3224ZYi7uNJKflHQuPKJbzhnPeAN6zBSd7LX7759QofO7AGf33zy0sX4VLAG5bZ8wbu8jmYW83GArjLnUUUVvt9pMRE5tOdivk8lwenlz18Jtfo3VL5aQl4wjaXsDD3Dd8HnrVDqWoftthKNz+9w4zOBZ6XQ2H8CnzODmzGrt9hSuUmRHZiJWXTg4rspXV/Oi/BTGS7g1b+A8AbzngPeMManOS9/M2/rPCpA6vw+99eugQXA96wzK43+FT/xaTjNFlB68Cm3tANKfKnSM9qO2++ysQb3PKzXLYVcteolq7hM+DEkpWvGi4RuVBFZza+p+/cTMf0DjNkByI3iDDxhsLtMMDC4a/WtCntDMC/lHtrLPi/Cv/QbvZC+1K60YloxfgGrKcA5+EU7+XrTzc7JX5zvP70F5cuwsWANyyzFxfp/k1Gb4h5xVk+8QZOm6PSvT6yHZaZUSc6ekM1ZtAfrjFNsz8rgVhFNvEG34NrsZlILitZekuJrJzdYUbtn4+jmTdMdxgYBYWKJPLjMg9O6WhwhJ/2iy14S6OE9zaq3SHwhjPeA96wBqd4L3/z6WaHtm+O33/6+tJFuBjwhmV2vcGn+o8Hb2hsl+uT9vrYBJXTKsy9PjKd9sXz8YZxHVnlF8Onrdmf6/A5fovZeIPYjLuUe1zJHXNZ7zC9w5RsKFId7Yw3TLI8ytUyvzOAm6fYW9lWqqzj/0LeboZRkcbdv4U3nPMe8IY1OMF7+es3iIq8FX633ahIeMMh9uIbXKp/PXiD2+VnMt7QTVPkTxhyJUmyxYk3uKzNnEFfrpEduIZ21ygnwwDxEIqQ7XiDVj5ssRQN2MvR7/cokpNn8Q0iKM14Ndn12E22VLuRF/x3xTFPi7ROKqbxDb3cDt5wxnvAG9bg5e/lrz9Fy3or/OLT31+6CBcE3rDMnjdQqv+Y9UH5Xpt63ozHEBoO/5Mv1yaRlYrF8LV8yM0s2wpJqKBLeVfa/j2j/YtpKD/bSbM/2cyKdhmQzQbGcMWKs/c3qVtPwcclLiVvO5zn7sDrM4fLmWFrioJCEgoenpD1FOxGTcJ5fmVnoMTvDCCDDzykMNu0qlFlyWJFyzOllH58wl6Z8kysuA4T3vAYk4/mATpKqbSUFzQ+/e5q4fDi9/Ivb36/3ZHtG8O+l5cuwiWBNyyzn7+BUv3zl/dxniKhVAXcqSaccalQZZG6WILchVJG0w2eUokgVGnn8jfY8/PEpVQqVZ2aWZr9yTbCmkIefAmSMcKipvtl0dwbap/uf36HbBiFoO0K3KOMhggqTg0sIx6UgsHfqOccTva8NHZ7G7iBCjPbtIomYlJ33Z1SUshHUqoV12HCGx4jGXNvHDxComx2drumZT6nS78YHC97L19/8i9vkPLpNnj9yacbfy/hDcvseoOmjrOYLUSkLP9WHWSIP6cB+YY68bp1Kxz9V/5u3NKBu2tKpK99vsh0zKCflWQA0zT7yZjB35UgcYENPh+vdZBa0jlPvWEaCzm5g8lz3+ono5HwwgnKDOUjLGhwQNWyBXHKiaamexu4hZ7FND0FyYffT4D/O3VjKTlfZY64yLPe4zhv6MrHRg0S65qJd+IJ5mR7PYTI3d2b/+J5/O/+y//9mzf/7X/4zz8BwfObX/32zZtPP9n4wBG8YZk9b7Cdo4sRqCrf+3aty5cf0ZwCJ+kfU+QPEQVmSP5PD407tqt8Fv9x9whJ9D+m2Z8ENfJt/D4B3VCCyPivhO4m/NI82/94BzOcNkns7wpSdeMOA924IYHL8087A/Cl22EPi1mTWk3yPPgdAYZS0n+4ancRxtAWwxtefo9TxzeI8lkrffLmp1vAesN/80z+u//2zZv/w//xP/4KhM9vPvnd7y7drFwceMMyC96wOs041XE1TIZATgK84RT3WPYGSlue9YPgVW7jMd6lTf49tOmTH9Bya2671h3ZuK3Sur5dXqZz07x0nmLrY9vgdoA3LHMN3lDNYgiugu7U30DhDae4x7I3KMWJQ2QLbNmbjK1PPs26VrOJCJOMsxfeGwoXF+t3WnNrfkreB21zkQ6niItc6WMHwFmBNyxzDd6QJdXLL3LlIM/0Ke5xyBtqVRSSbczkKo/7nOMatVsCFLflsKyGYlvHmEfvDTmtoi1UXfSpGvdhKVVCG7FendSem5e/l9teuwduB3jDMvO2uKk2OCy7CvCGU9zjkDeUtNtpzrufyC5sPPHA3sDrb02cDNNOXT3OQCXDkiETNQWHUXI+MPYGWYvTJ/CG49l0riBwO8AblkEunXWAN5ziHtPPqmyirjnRCHft0xxipWQN4a1YH4hUSVRfVe2wupaIh73XKqWKaIuc4r3ccm5icDvAG5aBN6wDvOEU95h+Vl3uBV6Oy5MQLtd30xa0N5ke5ylU2h8YRvOblMiCTZPFtCgzGecpVKlvfwptj9Psa7XdvZDA7QBvWAbesA7whlPc49B4g9+jhBN3DruwSbROw88sp47k/A2JWzzBW5nUyegNhkMqk82ljjzJe7nhvZfB7QBvWAbesA5YT3GKexxcT0H/dJIRtNadUwYf5du0uVoO+E0me57S1qrZMEUh2TtMlaorXCR8Zk7yXv71DTbEBMEDb1gG3rAO8IZT3OOQN3AcQk/xDW6H8zG+IeJknsnyutqpN/R+r9fBGzojV93agMNp3ktERoLwgTcsA29YB3jDKe5xcB1m6/c0k0wM/RjfUPNGpbFP/xnN9qyaekPGatHUgzekfE61va0qTvNe/uqT83/qADgv8IZl4A3rAG84xT0OrsNUJe1pZoZd2OrBGzJ6IlejIMS8A6ow9YaoVLk9cPQGqxB5nKiLpDS5KCfyBiSNBMEDb1gG3rAO8IZT3OOQN9AmaaXsTkLbi6l0Et/Ae7lO9qnq6nF15cwbaM82VfbjPEXLT8RbG244kTf8Bo0rCB54wzLwhlX4GN5winsc8gbKWDb82mVuFzafxWyyPRoxWZO5+0rWyKZnfuczs8k8aKd5L9G4gvCBNywDb1iFn93dffcF7xG8Qe5x2BvA6YA3ACDAG5b59t1PLt1MbQF9953nv0fwBn8PeMMawBsAEOANy3xw99HHl26nNsBHdx8+/z2CN/h7wBvWAN4AgABvWOZbd3c/v3Q7dfN8/PMXNcXwBn+PZW+oNpgL+pzAGwAQ4A0H+PDu7iP9M4w5nI2Pf/qTj+7uPnjBW4Q80/4eiMVZA3gDAAK84RAf3IGz84JZCnjDeA94wxrAGwAQ4A0H+daH37l0t3rbfPuDl7XD8AZ/D3jDGsAbABDgDQ/x3W+Bs/H8BZgOeIO/B7xhDeANAAjwBhAqiIv094A3rAG8AQAB3gBCBd7g7wFvWAN4AwACvAGECrzB3wPesAbwBgAEeAMIFXiDvwe8YQ3gDQAI8AYQKvAGfw94wxrAGwAQ4A0gVOAN/h7whjWANwAgwBtAqMAb/D3gDWsAbwBAgDeAUIE3+HvAG9YA3gCAAG8AoQJv8PeAN6wBvAEAAd4AQgXe4O8Bb1gDeAMAArwBhMpyO/7LSxfrCWU89T3gDWuw+17+8i+/eMa7hcYVhA+8AYQK9qfw94A3rMHsvfz1J//JmzefPOPdQuMKwgfeAEIF3uDvAW9Yg/G9/PV//5+9+U/fwBvAVoE3gFCBN/h7wBvWwL2Xv/7v/09vHPAGsE3gDSBU4A3+HvCGNaD38q//5//LmxF4A9gm8AYQKlhP4e8Bb1iDu//r/+0f3iwgH7un/kqN63PPxa+X+PX1xn795RZ/vYLPGX5d51fuk/nRf/Wr3//Cr6OAN4DzcHf3f//F/+PNFIw3gG2C8QYQKkOf/Povn/zrp2/+9df8C7wBnAd+L19P1QHeALYJvAGEyrxP/iu8AZwV/16+/uv/87+DN4AtA28AoYL4Bn8PeMMaTN9LUQd4A9gm8AYQKvAGfw94wxrsvJdWHeANYJvAG0CowBv8PeANa7D/Xj4npzkaVxA+8AYQKkt98m9+DW8A5wH7WgEgwBtAqCy147/9PbwBnAd4AwACvAGEylI7/os38AZwHuANAAjwBhAqi+34m//XpYv1eBlPfg94wxrAGwAQ4A0gVJa94ReXLtbjZTz5PeANawBvAECAN4BQWWzHf/WctXErl/Hk94A3rAG8AQAB3gBCZbEd/z3GG8B5gDcAIMAbQKggf4O/B7xhDS7vDW/fvXu99Mvbd5+d/VMGwAi8AYQKvMHfA96wBpf2htdf3t/fvxt+/er+/ovh4RfPuiIAzwPeAEIF3uDvAW9Ygwt7w9uv73e94f6tfwhvAGsCbwChAm/w94A3rMFlveHt/f37d7ve8LV/CG8AawJvAKECb/D3gDeswWW94d39V69fzb3hy/v7P7mH8AawJvAGECrwBn8PeMMaXHi8gdRAvOHt5/SElYXP799/5h6e/VMGwAi8AYQKvMHfA6zDpddTiDd89v6exOGr+z+/fn//1atX8AawNvAGECrwBn8PsA7X4Q2vv77/wyuSha9e/en+/ptX8AawNvAGECrwBn8PzFOswbV4w6vX5ArsDfbH+9fwBrA28AYQKvAGfw94wxpcjTcI7A1v7++/hDeAtYE3gFCBN/h7wBvW4Bq94dUX9BS8AawLvAGECrzB3wPesAZX6Q2v/3j/R3gDWBl4AwgVeIO/B7xhDa7SG169u7//At4A1gXeAEIF3uDvAW9Yg+v0hlef37//Gt4AVgXeAEIF3uDvAW9Yg6vxBp/3Sbzh9fv7e3gDWBV4AwgVeIO/B7xhDa7FG4a8T+INr76BN4CVgTeAUIE3+HvAG9bgWrxhkvdJ+DO8AawLvAGECrzB3wPesAZX4A3v3r1+5fM+vX3ndtF+9frdu8/O/ikDYATeAEIF3uDvAW9YgyvwBgCuAngDCBV4g78HvGEN4A0ACPAGECrwBn8PeMMawBvAtvhsZwLsrcyTvYI3gHCBN/h7wBvWAN4ANsU372cBt6+/vB/yh8AbQKjAG/w94A1rAG8AG4I1YeINb/94D28A4QNv8PeAN6wBvAFsiD/f338+SWD+9v7+/RfwBhA88AZ/D3jDGsAbwIb46v030w3T3t1/9fodvAEED7zB3wPesAbwBrAhvvjslfeGL16/evX2C95D7Z28CG8AoQJv8PeAN6wBvAFsDPGGL++/lmUU8AYQPvAGf4/D3tC1Z+xIS5Wd8GqNPmNRTwG8AWwMeAO4OeAN/h4HvaGp1fnEoVX1KS9XqysXB3gD2BhunuJPLmsDvAGED7zB3+PweEObm7P1o7mKT3KdSiXnLupJgDeAjfHVfMM0eAMIH3iDv8dF4hsapbqTXMh5w9UDbwAbA94Abg54g7/HA+MNuuEfJtNDJ5/pMSyh7Rv+V+uo62WeIJOntDuh0zLT0bYyHFDpyrS6iqJe5cMFR4Fo3bxIY0+rNJ1jr9v4Z4y/itybH+tCldoe0sphY5nsKbaow/GNPo2mwBsAeBrwBnBzwBv8PXa9oUv8DEKiKvrR10qpvOJumh6qXnpielxSd6xUax9GtmMv7b+pFYtCFXyFlP41mp4u6EitCnuWphfYM+SMuh0uWHP/X6mkoOdNTLdL5BlNz2g2AdPzjSq6NVFJUadligp+RYpRpXQZkZL4nMGe8AYAHPAGcHPAG/w9dr1hHPl33lDXse3tU+qXVR2TRXQ80aCKOFcUV0AdeqFpiYR9il/OlKIO3lCXbmr7qr1AbcgbbHdP4w2lhFzaMxKdq7rjKExVUGffUBHsKdYN7OX7gm9XKXo5UXwV425UN8N4AxdVylRymWK6gr1rz7Ziy23PSeVx8/TeHt4AwDOBN4CbA97g7/GoN5T2YcciUFAwoynom3uqkoZ7cE3ewJMOvSobPiv1XtDSubFKpK8vuNeW+QLF4wNalfRPSncsVG7Pbvhs6w0ZawBdl29qn0lJKPh+9jTjb+RKy0WdlqkoaT4lpletkcSGCkPHmBzjDQCsgHjD6z+/lV/hDSB84A3+Ho96A09bsAgUbkqBO36ZXOjGx4nMPWS0wlLzRXL6uu9Wc/b0jObv/DwQIT0/zyOYyUVamvCoZJFmzk9ldGLlXmYRyGWmhK1k6g3TMgk9Xah3Sz5PtYQD3gDA44g3fH3/XrbThjeA8IE3+HtMvaFLkiRXtf0Zj95QDVJQ0TQDByR20+F+GTywgpAnBDlBQ6/zD/sqP5uTEGiXZqGiX+iMIciycRc0NCIxlQH5pXIvZ3SikhvlohjDod18CqLSdIQaZUVfcukFvAFsDPGGP9x/Kb/CG0D4wBv8PabeUClPsuQNUZW44MRqmrbJecNwrguntF/00+klJ97QiDdMFmM6kyCXqBa9Qe7XiTeMN5ocOiuT3JbVwo2DyMAFvAGAVXj7jgca3rlfX7975zJAwRtAqMAb/D0enaeYeIPt8ducFlQ0i+MNk8zRrXUGmWeYHum9wT05SUhpnEM0B8cbOrlsPdONg+MNiUozIzbixxlieAMAlweSws3JAACAAElEQVTeAEIF3uDvcYw30EOTU7iiW41Z9c3gDT5aQTrvWnXy/b90Sy6bqTfkfIo7g5MrKB+0MJ98GL2BXy7ol+mNFuIbqEyZhE72dLXWDWXkl8xFDW8AQIA3gFCBN/h7PN0bjIwocHKGgpdCmFrWU1Suy694yUPueniJQ9ScUKGt6bfBG0RDWomz5IURsSrt4yqniy96A2WQaHmEole1fZyVvFhCZIEPLfgYU/N4CC3YbEpOK1HTWgzj1nLEl0kABW8AQIA3gFCBN/h7HDHeYDvsNM55OsB2xipJJQ7CeYM9RpWJcr91yk0nULaFnDIvdBNvcLGKdIZL7UCHlS5Bw5I3lLVKSrfi0xahTN317eOkk0OnZUpUGSeU9EGERqX2IWlMTFkf4A0AXAx4AwgVeIO/x643mMp/I9+fp6Bsjz7xIgU61KmZeIOkd/QJEkqfStqkw9ODNzSyENNlcpQbtok/eckbEkot6a5tivFGFcdbuFKOZepoLUXdyRQF5ZGsC/aFri4uoQ3wBgAc8AYQKvAGf4/D+1N0lXE/6B/5mt6Nez5EVeX/HZ6rsuHbfFMND03lzhqfK3xIZDO5YFfN1EVuzb+wPPiXp1fkixpfyrFMFMHZjb+a4fCLjDbAGwDwwBtAqMAb/D0ush8mTTwcd3gY214eBN4AgABvAKECb/D3uIw3uEWaTwXewKBxBeEDbwChAm/w97iQNxwHvIFB4wrCB94AQgXe4O8RhDeMwZqBAm8AQIA3gFCBN/h7BOENwQNvAECAN4BQgTf4e8Ab1uDKvOFbH3z7DpyR73x4/robKvAGECrwBn8PeMMaXJc3fHjpbnULfHD2yhso8AYQKvAGfw94wxpclTd8cHf30U9+Cs7Hz/RHd3cfnr32hgm8AYQKvMHfY88bThaDqM2TDus4t/TT6PppOaunnnZ5rskbvnV39/OPL/0f5Ob5+RrVN0jgDSBU4A3+HjveQOmcVXmK3Z9in2j6Mconb1TJe1Z5KrfPZRBckzd8ePfRpf9zbICPP8JMxTLwBhAq8AZ/j7k30M4PJalD9oImUzas6Monjgf0T88d2eaTNNfwhufxnbsLbii+HX5y9+2zV98ggTeAUIE3+HvMvKGX7aK69Lg00Dv4ja6eSON2zjwSeMOz3/OfXfo/xxb46d3dd89ef0ME3gBCBd7g7zH1BlO7KQMzzB1UvfuGr3XU9T1tod3qzj8TZf24UVSn+XGrlSp0FVXa73ulBy2odDvudtX7MY1kd6LCHuZvyoc32p3VugeNzuANp3nPwZn4GAEOy8AbQKjAG/w9pn3IOGOQJSn9QxtTq4K7faVa2r26quhn2fAzFe2rLRtU2zPc3tb0r7ImIJtmGw6YqNkD+AJKphqa2J5bipRoySLdpX4SonLbbGf8L185YcmQ/bI7mk2pe3jDKd5zcC7gDcvAG0CowBv8PaZ9SLzzxd9aQ0L9O/X6tqdOdaLKutSxhCfaZ1RCXTj15fbfRJcUF+HHG8QbSno+V3VHCydU0selIiMh+yisD/BSikrVEQ92pP7GpcQ/FqrgK5d0ZftQvMGeW8dsJ5fuGdbuQ+ANIQFvWAbeAEIF3uDvMe1DkvkmlS2PE5iYe3fpuEseAWh5XML257YXbxIaLajEHmI2AHnM3tDzMVFKx/QlXUGmF+xJjX0s0yGdDC+09TCf0ctajNpqSKPYIVoOgmBvyOXcGt5wivccnAt4wzLwBhAq8AZ/j2kfUs4DGhMZADDsARK8qPkpw122mARNJvjnqZNvZt6QyDFmvG5HF2pc6KRbq7kXSCnXYT3Rbu6klMtVw7kpvOEU7zk4F/CGZeANIFTgDf4eD4w35O7XnL7xSy8tkw+R8wZ+mbUiUWVC1KIYgzfUsyt2fZrwvIbMTAxrIsq9BRipit2PQszD/puKN/h4SMQ3nOQ9B+cC3rAMvOEw/8O//RCckX/3wvcH3uDv8UB8gx8GKOjpJW+Ql2v2Bo+eecN0JMGUHBZJktBLJCS9btwV5tBQg+FBB7/Ygk8Rb5B8UlhPcZL3PGCenGb0MsAbloE3HOK7//7Sm6rcPv/+f3zJOwRv8PeY9iF6WE9R0XqK3GVnLA+NN/DLnH5htpRy4g3lZLxBq5xWbeaTMYNM/l0wgFo1LcvFON5QDOMNbhUGvOEE7/namL5IiuwUXX5bty+/yBmBNywDbzjA//jtu7v/6efgfPy/rTh8+yXiAG/w93ggf0M6BC1Uy94gazUlvkGMwy3ZnMQ3yCV0Rxev/NUal5BS4hv8rMWUWPUFO4d2Lw7xDcadm8AbTvGer0xVyrBU+hJz0PwhLGga64qBNywDb1jmf7Da8JNLf2hvnP/P//w/3X3nBenY4A3+HrM+RM/yRdpv9tpETepWT8gBU2+gL3xVTmrQ8eBDk6i6oS6+8IfKkoyI11xwFINJ2SoSlVf0jZGHLDKZtTDTSZJO5TUv0mxqFRv7Gl85mZyLdZinec9XpeIkH32qnrwnyRLunb/u4QZ4wwHgDcv8f29mAvGa+Z/v7v7t898jeIO/x0P7U6SUtMElaFjyhlyVlIOBEj/F9l86uY+8fcih9vWyqHklp+36C3pIl7M2oBJ7n1xuSp5h8tn3x9wt16Cr1fY0dzXJ30Dn5vCG07zna5Kz85Eq1s3zrxLGOw9vWAbesMwHdz+/9Ed2C+i77zz/PYI3+Hs8uB9mxUmXeEh5yRs623fXbrvsnvNIcs/fpDSF4Q6tSDwS6ixoqEGpVnI+mr70SSCjWvanKOrpNhXtsGtFQ7IhWSndudpqRN6E0XsI8AamHXTBLdCN2ryW3OGVSrrUvs+RKUqV8gdDKdPndewFI0vqoop8QlKfWIwvkbb8ITSxNdnCpS9v4jq56IgEvGEZeMMy38YsxRr87O7u+e8RvMHfY68PMdW0+278JhIVf09sqmb4hfrtZrJvZpV14zUaf6g9pvVz2aa153WV+zXzm074xRXNvBiTlRj+Cv5cQ+dWR+2edVngDcwYkiBvb1+zAxSGR5FyRcNKCf1kZ7RiKS/TCVnps5TPvUHLJTitSC6xE2QLDUuqKvvnFfR63vPbA96wDKYpVuH/d3f3/MhIeIO/x/M/q6f6vp+/aNPuMIA3MDsJQijzeNUUimyCvKGjBTb2EJOwX/DmJ/RyyyG7RWfa2r1AZ7M3VDyYlXGgTE5XMIVbhlNrUyW8lDfo9/z2gDcsA29Yh5fUS3iDv8fFvaF70Z7dgQBvYHYSg7oFO7x9WSUxNRxBa5+RUFx+OaZfXGbR1s2Q0WM9WfPTpuQWvNkqz181w6Kb9IlFOz3whmXgDcvAG9YB3nCKe1zcGzYBvIHZ8Qa3fZlRY0qPhYSknOQjUXFlyVwi8+HQeUJSmizj/OM+QYh2ScIuAbxhGXjDMvCGdYA3nOIez/+shhRfcGngDczOPIUPfaUEY4ve0AyHlUNC0nkukdlERC9BDWrYmp1mQi71t8IbDgBvWAbesA7whlPcA5/VNYA3MDtxkaM3tMvewC8b8YZCC82ON4xRvBmt+dXd1BsumYwc3rAMvGEZtMXrAG84xT3wWV0DeAPTDsMDvA7z0XmK3p3E8xTjZWbzFOOKCbmccfMULhl5cqm/Fd5wAHjDMmiL1wHecIp74LO6BvAGYZ73qZDog57Sgi16A7/M+Up7STeepX007unOcZEsBrqO/ZyEdnGRNCNicpcm4hLAG5aBNyxzzW1xVx21Lmm+lv/KgDec4h7X+1m9JeANAuX6LNs+kfSfDf1SyS+L3kAv57w0wtQqbzt7KGlCrsrOyKF8iabnsIdc6aaLaz7X2kPS9ZKoNOj3/PaANyxzzW1xclxe+OqCw3yPAm84xT2u97N6S8AbHJ0EONYF9+cZ53CqqU1a9IZieDmqJL8Te0DLCc3l0EySPcXuaeXyjxvJB5VcMDUIvGEZeMMy19wWwxv8ewRvkHtc72f1loA3eGQf7eHXrshliUWXcFPTSm5o/sUKQOZfJhNI8qKV4dKqsIe5Q+0vuZZh0S4u094krs1qy+Kio6XwhmXgDctcc1sMb/DvEbxB7nG9n9VbAt7wDAJPEAJvWAbesMw118sdb2j0GO5g+tb/0rQ643FEeMNFP0fwhlsB3vAM4A03CbxhmWuulzNv4NlFNwNImw7yrjGRbKYsu8nAGy76OYI33AgfwxueAbzhJoE3LHPN9XLqDbxHcikhRRTnXMSl3xKm0CkvnoY3XPRzBG+4EX52d/fdE7xbG/OG5IobnycAb1gG3rDMNdfLiTd0ssS551QsiUoaXuzUR01RUjhRQQMO8IaLfo7O3+5gz/dV0HffOcW7tTFvCBx4wzLwhmWuuV5OvEG7fQhL+1TjNpxpxnAHzrQGb7jo5+j87c4Hdx99fOn3cQN8dPfhKd4teENIwBuWgTcsc831cuINqUulRgMLO2ncszgpFbzh4p+j87c737q7+/ml38eb5+Ofn+ithDeEBLxhGXjDMtdcLyfekLjM7jSw0E79IOP8Kgm84eKfoxXanQ/v7j7SP8OYw9n4+Kc/+eju7oOTvFnwhpCANywDb1jmmuvlwnhDquL5eEOp0syIMsAbLvo5WqPd+eAOnJ2TzFLAG8IC3rAMvGGZa66XC/ENtX3KcA74KMraJmplN5kY3nDxz9Eq7c63PvzOpbvV2+bbH5zqfYQ3hAS8YRl4wzLXXC8n3tAopU3UFLwzXcL71DW11YeKfcI+hDdc+nO0Vrvz3W+FxJs3ly7BUZxiAaYD3hAS8IZl4A3LXHO9TFSZMC1vGVenSja5t5qgklSSPZUqj2mzGHjDpT9HaHeW2G4TcypvAOuA+rsEvGGZ6/YGB29jW9SqjmXppWlLv0sd7Vyryh7ecPHPEdqdJbbbxMAbwgL1dwl4wzLX7A1d5XC2kE22p6+G3eOatokM/Wqqi+4o9zDwhm2y3SYG8xQhgfq7DLxhGdTLdYA3bJPtNjHwhpBA/V0G3rAM6uU6wBu2yXabGHhDSKD+LgNvWAb1ch3gDdtku00MvCEkUH+XgTcsg3q5DvCGbbLdJgbeEBKov8vAG5ZBvVwHeMM22W4TA28ICdTfZeANy6BergO8YZtst4mBN4QE6u8y8IZlUC/XAd6wTbbbxMAbQgL1dxl4wzKol+sAb9gm221i4A0hgfq7DLxhGdTLdYA3bJPtNjHwhpBA/V0G3rAM6uU6wBu2yXabGHhDSKD+LgNvWAb1ch3gDdtku00MvCEkUH+XgTcsc+ndVLYDvGGLbLeJgTeEBOrvMvCGZS7dm24HeMMW2W4TA28ICdTfZeANy6BergO8YZtst4mBN4QE6u8y8IZlUC/XAd6wTbbbxMAbQgL1dxl4wzKol+sAb9gm221i4A0hgfq7DLxhGdTLdYA3bJPtNjHwhpBA/V0G3rAM6uU6wBu2yXabGHhDSKD+LgNvWAb1ch3gDdtku03Meb2hbcfHpurmLxptLl3fQwP1dxl4wzLwhnWAN2yT7TYxZ/WGTqlq+KVSyfzVRKWXru+hgfq7DLxhGXjDOsAbtsl2m5jzjjcUxfh4zxu6cmcAIlLq0g3AlYP6uwy8YRl4wzrAG7bJdpuY9eIb9rxhH3jDI6D+LgNvWAbesA7whm2y3SbmvN6gtfxb6W7fGypdyY9KZ/R7q5XSurl0G3DNoP4uA29YBt6wDvCGbbLdJua83iADCFmilCoz9oZ2nLnQStOPOKdXe4p3IKonVdSNgvq7DLxhGXjDOsAbtsl2m5gVvEErVcelqskbOqW0f9F5Q60KehXjDU8A9XcZeMMy8IZ1gDdsk+02Mef3BlOr2ERRpni8ociHxZfOGxSZQq2yCPENj4L6uwy8YRl4wzrAG7bJdpuYc3hDq5lGRKBSilWh3I1vcN6Q0+NC0fwFvOERUH+XgTcsA29YB3jDNtluE3MOb5BABYpUIBFwZmDVYNkbtDymF+ENj4D6uwy8YRl4wzrAG7bJdpuY8483aJfeScMbXgzq7zLwhmXgDesAb9gm221izh/f0KuSH6fwhheD+rsMvGEZeMM6wBu2yXabmPN7QyWRj1ENb3gxqL/LwBuWOVQvzYM7w2DbmGOBN2yT7TYxK6zDLFXaREbLeopu3OlqyRv6S7cA1w3q7zLwhmUO1EuTj6uaoi6J56+2dRuBo4A3bJPtNjEreEOmlEprlZMaNLUaGqV9byisWyDv0wOg/i4Db1jmQL1s6nrcGmYvj2uhdkRiSPsKDgBv2CbbbWLWyBfZFLU1B8kXWYwt1r43dPkkLRTYB/V3GXjDMofqZTfZUW5/35i94QbMHz4CvGGbbLeJOa83VG70wFTG/p8bqzEfZFM17gf907nnMLn6AKi/y8AblsF+c+sAb9gm221i1tsPE7wc1N9l4A3LPDwOGFWJSlvxBjOOQPhxwCxReWuwb8wTgDdsk+02MfCGkED9XQbesMyD3kCzghbOx2byvflD0YUc3vAE4A3bZLtNDLwhJFB/l4E3LPOgNySq1qbN1YF4ZVU0ppU11JineAR4wzbZbhMDbwgJ1N9l4A3LPOQNnVKdPOaQ5Gx40e9TS49zXhkNb3gEeMM22W4TA28ICdTfZeANyzy0b0wrZmCfXc7HVshj5GN7AvCGbbLdJsb95Z+9e/faPfP23dvh1dfvhl/sw8NXgTesA+rvMvCGZR7ebw77xpwKeMM22W4T4/7yL+7v/+ye+er+q+HVd/f37z8bHh6+CrxhHVB/l4E3LPPQPIX3hRje8GLgDdtku03M6A3338gzO97gfQLecAWg/i4Db1jmIW/InA3k8IYXA2/YJtttYibe8F5mKna9wfnEGb2h2kn2JBmi4klOO5cdag+XS+ow5tCJcZD5pVB/l4E3LPOQNzRKUSykkbjIyWZWS97QPP7Z3DLwhm2y3SZm8Iav399/zg93vOFL5xNn9IbdxeGciaZX9U5TtsDDue5Mm9IKdL3Q6KWPJ8m7RlB/l4E3LPPgOsxCqaLTtXhDMe50te8NpcqRx/Uh4A3bZLtNzOANX/3h/v4dPXTe8DkFRFpZeO18Ym1vMPkkTf7zvEErVael+z41H2vtykcGKq4T1N9l4A3LPOgNpuAwSe3yNww1bN8beoWdah8E3rBNttvEjN7w6uv7P9JD8YYvOSCSZOEL8Ym1vWHGs7zBSC6brubx2JuYo0X9XQbesMyheplItWl0Eneyj3Y37oHZJq37Qf/w81mRZI99NrcMvOEWeDsuKjy4wnDOdpuYiTdYM/jilfeGP9x//Zpl4d2rP7JPPMsbtI66vqftq1o9uIHpxzbI9K3x3tC1OuPRULaBRrvxhtae77zBZLodJh0q3Y3eUC1MRviAca3KqNX2i5U9ptKVaeXfiH9UehzWoDtV+poT6m6j/h4PvGEZxCuvA7zhBvj83o24M/br8pfu4XTmfs52m5iJN9B/uLfDf6VvyLbYG8QnnuUNSrW8YryinyV37R2NjpY9C0JDs6uqF29IJVt+5LzBbbfTlvbJVLyhl4z5fGpGi9HLVtSAkuUqmddoi+Hm1heGSVmfY18r2tO7GsZi6fmah2BNP7nTtbKJ+vsM4A3LwBvWAd4QPJ99fb/rDf43eMPBv5y94fV7+rkTF/mO5iysTzzTG+q0T1VZlzouuUe2BlHHtrcuI55IUGnhUtEUqi7soTS1MPEGOjKuFc++WgVJ+6JktaDQBXvF2h+U6pKv0qmx3zf2aT8K4ccbNLtBM+TSlRONXCTxd7paNlB/nwW8YRl4wzrAG4Ln/f37P+x6wx/3VxjO2W4TM/WGV9/c3/9pwRvYJ57pDdTJS8/csivYbt8+rkrpt0vb1Tc59fhNwZGKhYqn3lCxRxjNNhCXNKLAl7HGQQspK+UOavhUuv4kLpwlIe8bXxT3VCf/yt49FRep5dXslbwObwgPeMMy8IZ1gDcEz/3Xn72ae8PX73neHt7wwF8u3mD/C71/ve8N7BNHeEOrmcZHPLqMttRlV67f5iR1ueKgq3YSFxlPlCGhM3N6tpn05hUJQCVjBLbLT0gYCnfQ7lqxhgczCrd9TxRNk+uKt8g9U/qxd6crZAP191nAG5aBN6wDvCF4aNGg9Hav2RZsj/gFz9vDGx74y503fPb+/ssv972BfOKbp3vDPA/+sBqCnsncZjqcrE4Sz1BfTd5gsjgp1dwbEjGLSOY4okonFMkw+IRVBj4oT4jdZRl8bZr64EQQs6J4b+Cruzvp6Z2ulA3U32cBb1gG3rAO8IabQEbXv+aASOoR/3j/NT0Nbzj4lztvePWn+/s/L3iD9YmvnjfeQL9PvMGvcWjEG2SAgDv8jFSjTna9QZaNc6/eUBClSvf25CmVZ3EpRCVDCIveIDYid2rHO10tG6m/RwNvWAbesA7whptg1xt43h7e8MBf7r3B/je654ev/+zyPr3jp/9EwaaHr/Jgfpml8QbexFdJX93RC6ZURTYPbUhojYUsj+BoxUIlrZFr9jLDIGkfk0dy0siGwY94g78T5ilCBN6wDLxhHeANN4GbpyBXkB7xz5zFCN5w8C8fvOGt84avfN6nd/L8V6fxhs4NCrgJBu6reR1mLwMRxW58A/sBr5LoZL4hc/ENHO5YS3yDTFrsZoD0Uw4SkPmIN2gRmgzeECLwhmUu4g0bzEgNb7gJ5nGRX8k4O7zhgb988AZaf0IP376nwZrRG96exhsoGMH+bDmVY6/qltdW8EAEde5NPfcGClM0UZNSb27YFUzC1yxpiSWtsxgWXXQ5p2uY5r2TGMyu5PEIWWB50BvsncvWUD4JeEN4wBuWuYQ36DrIFO4vAt5wE+x5A42zfwNvOPyXfzam0nwnDz+jH6+nyTbfHb7K072hon10/J4RuVJlouqSXihVHudqxxuimDJAKJXLPEVZcHKoSKIh0lrl04PIHmz3P4pDSZcvXVxkYe9ZHfaGiBNMUVngDeEBb1hmFW9oJilXI6rU29vKAt5wE+x7w94KwznbbWJO85c/3RskL2PqIhipsy7bhIUi5zySO94QVbQeIuYr0LCDqlu5ZkN5H9NMDtKcjpJvUky+7XSysCOp/C/xA95AufjLuEFcZIjAG5ZZxRt2NokxG9zJAt5wEyx4w9v7+8/hDef6yw+1TxV32U3VyC9u5rOa7CXR2W6+kxearIlMZX8ff8jZwxVM1vlr0gFmPKgarjnbp6Kp2vFmjT3BXUj+9VetJgOruZp9eboyNlJ/jwbesMwlvGGLwBtuggVv4H0q4A1n+stvIG5by/CGW+9xpWyk/h4NvGGZw+OApijrwhu4LsuW1V0rneWq7KMurevCO3nCS53owImUU2aUPOa11jJ3mKisqFUVJRLGVOlcJa2/Qc1Dede8ZdyLgDfcBOINb/9Mc/NDxN/XbqXAEtttYuANQlPbVjArrju8Ad5wAHjDMoe9QXaR436dk6qqWsKGU06SkvFPWWEk6VEo5tjkk0lA2jmGQ4dGbyg5hYrzhmLYpi6K+WplDm9Yfo/gDVcCe8Nn7znb0+AN7+ANZ/vLw/eGqKslGOKqV5FtpP4eDbxhmQf2m2tNl3D2NG1796aSbKv2cWxMrGjjGFshMt4JJq0oDiklbxgn8Sra3ravSQzcPAXFDzX8L3uD0o2Rxc20i0zVxLWCNyy/R/CGK0HGG768/8Or6QrDz+EN5/rLb8AbrDn0Ortqa4A3HALesMxhb6BVRx0nbK1l/QNnQdH8jFH8VExS4DKsSTTyJOSx4P3sKfZo9AbJnOa8gU8rST1SSe6q4Q0H3iN4w5XgVg++ox/jCsPX78bFhjtst4mBN4TERurv0cAblpnXy5i3cUk62WIuom6dM7Fx1EIm+dtZAaSH93lUK2K307eH5+6ZwRvEKpw3sIzENO0n+VOGlG+3CLxhm2y3iYE3hATq7zLwhmUe3m+Ou/jKpWzntGr73pAc2vyF4hfqookm3lANF/W/8EpnJyYRvOHAewRvCJXtNjHwhpBA/V0G3rDMw3lVnDfICqLmkDeketimbkZTUBxk9hRv4McG3nDgPYI3hMp2mxh4Q0ig/i4Db1jmCd7QuDmL9uA8xeGPY1tPMrQd9IZcUri28IYD7xG8IVS228Ss4g1NdVTKenPc4ZI3qqNZ2FvPjI/6uwy8YZkneIPbuEWiF/e9oZfN7qu0p3/GMQedUl3jrWYrXqR52BtiWp3B2V7hDYvvEbwhVLbbxKziDfq4jHLHJqDzK794HWV85UsiXgTq7zLwhmWe4g0tLZNsS7cOc9cbaN+Ynvp82nN2ksS9oLDIjPeNMUqRRBz0BkNb0hRK1fCG5fcI3hAq221iLuMN+sH0Ss/0hjKhTaz4y80c10reAKi/y8AblnmKN0SaMzvltBpiwRs6yftUN/NN44ykO+Et4yiHVHfYGyLO3VC3yBd54D2CN4TKdpuYG/IGvmRWSls2Bd5w68AbljlULxOpYHEi4wdt4lJOt0ksL/MG9PKL0UletDxDMdmkPmraNPfpp9vUnuAvxv+6X1qfabrNZNXnjQJv2CbbbWLO7g2V7gZvqHRPzUmjE5VoLa3PQq6l3Q32+mx+Ofd0paU1m3lDZEoXydW5S7daKRcNbtpr3rTqCaD+LgNvWOY64pU7rrJXvvXLi4A3bJPtNjFn9oaMwg7KWEY8ZWSzo8SzktLeBSVwP9+O32Vm3sAbZpcclWX7/ZK30ubjh7T5c2+QBDaUE5eI/T0oMkvXfsl5qKD+LgNvWOYqvCHjDFHdde9Q/zLgDdtku03Meb3BftWvY+rrE94AIu/tL+U43lDYbryXOGsrFUOzMvUGcowicROp9kqJPZeis+zxCV2NUtjOvSHi+KtCle7SfryhobIUEuAVKqi/y8AblrkKbyCFr6kRuN2IZXjDNtluE3NWbzC1ouUNPXtDm9O4QsPNh4uXKkoawUw52qrIh2Zl6g3WMBr7DO9T2aqaZkjj8WqdG7WYeUOi2vHS9KTENyQqNVyk/tKtzGXap1sG3rDMVXgDRUiQ5d/wIml4wzbZbhNzDm/gVApVZWiwgGWgHEXA1LLeazJmGe+GQU68oVE+MLscds4xY3iV5Lzf84bh4gVfSbzB5bcpZJedMEH9XQbesMx1eMPtA2/YJtttYs7hDUMefO0mBaT7jpo+TZSaeoPJYlo7edgbKrcWgv8t1TSssRuutucN2fzSfA3azZfIQ56oQP1dBt6wDLxhHeAN22S7Tcw5vKH1Ce21W9og6yk4UjEvJ96QcaBk8oA3tP4hZc+fJpwz5Xi1pfiGdnJp7w2eS7cyl2mfbhl4wzLwhnWAN2yT7TYxZ41v0G6vvZQjElTdN66TF2+wfX+cLaRrODze0E8undPV8n1v4ET7FFkxXJqv0e3ndQgP1N9l4A3LwBvWAd6wTbbbxJzVGyq3hS5vfyNpZpvJPEUvflA84A2Gd9yjGIicIxvpcaM7FybhrrabvyHeubSPb+BZjiZke0D9XQbesMwVe0PI1XAPeMM22W4Tc971FKVKm8hoDjPIud+Olcwi0FrKlocjGglC6JbzNyS8+LvlzXcyVWvDSyxc8jmT7nqDsUfSuIJcupNLS3rcQuVWYvpJrtzwQP1dBt6wzHO9ITkuYeszKPKQ86jsAm/YJtttYs6bv4ECGNJa5W6eIqUcTtzhU+wB75kT54pHI6a57yv7IhPz84riGzmYMaW8TSIGvVytnnhDmSR0+ZyXTdTjpa0xqDSTK+Uq6OkK1N9l4A3LPNcbzhADVOlpUHOTq+zZl7o+4A3bZLtNzJnzRTYFmUMm3Tf16rHsbtOXNIWRUahk2bpXh/XdQwgjPc85IhPXyFR0uYQuQEMNSrXJxBskEtJnjeRLy41pOz9SED4kCXkZOervMvCGZa7IG3b2qDG3pA3who2y3Sbm7PtTmMxEppLOOqPEkJV83+94bUSTNf7VcdzSVA7XxVeTIc2mHYYLhqu5H5wyYnLkeOmokVdMlQU82BDBGw4Bb1jmer3htoA3bJPtNjGr7IcJTgTq7zLwhmUO18umqBNRcOsIRanchpg0QJj3xnlDV6hUZheU6lLZ96Uty9h7fJvXqfN4o8vSP5xqfp+rnDaV8yuglTJprcbdtnVOc4hyrK7z2AS5TBresE2228TAG0IC9XcZeMMyh+plk8qsHsmCUgX/QoIgs3/0RMQ7UbmN6OignLt92hrO70TnHvMaJ7lEzaHJ+TjjSDvK2KNyM/EGuZDzhmH3OX+JHN7AwBtCYLtNDLwhJFB/l4E3LHOoXqaqbKMq5e1kaYNZY0WC+n9tlaCpEr9ZbWIPSjgk2R5EW9JWVg2aRvPi6IojjbKahKOn88gzMo5kHmIXWlIGzWLg5imUZHEZYpJ608S89qmlS3A41KUr2cr1Et4QLtttYuANIYH6uwy8YZkD9bKTvCqSHEVGD2S/ObfpW0KdtztIUqQoeSH3QwMJuQePNLQ0k+HOEwPoxpBH2UuuoWGNwRti90rlE7IY3jmmHEYdLl3JVq6X8IZw2W4TA28ICdTfZeANy8zrZSyrmzvKbsJxx5zzxO33RplXG/dY85SESvggztLqNqhTqqWnOA9sPe4W48/Ldjv91i+LnniDRD84b2jlMRcjc2dcupKtXC/hDeGy3SYG3hASqL/LwBuWObjfnCcd1k5QR16pmh9zVvdiOEj7g5rJHi/GGwAfL+cZ5w8DJuGoB3KOwRui4XbyQ7yhcy8gLlKAN4TAdpsYeENIoP4uA29Y5uC+MblsPUe5mGbeII953CBWiTuomniDe0qPIwfRA95AGVdKib98xBsad7kO3sDAG0Jgu00MvCEkUH+XgTcsc6BeZq6fZybeYNyOs7HMU5R7B6nJTvb1uMucPy9b7PRbjqB4xBt8BEUPb2DgDSGw3SbmvN5QVUdWQEvXPvBiUx2X1r6qXEYoB60Sv2D78lJQf5eBNyxzoF42EkzQpJJZgZ/jPtwFJ+YuLpIGD7rpQS4WUhet2+SWVmPGw3nuqSG3mtEJPeZN6bSkij/oDSlvH9OU8AYG3hAC221izusNz2gEpsu49tHquG5flopPpmWj+sgrXBWov8vAG5Y5VC8LVceNrjk3w9QbWlpbSYnd6blUlXGnZUOXcTv7NKtyDnloKEV806vZeeQBRT6IQ6LSzmQljVJYDSmqB7yBYifSlLI9XLqSrVwv4Q3hst0m5uq8ISqSB3JBP8cbOIxcqZz+oRx3AaeaRv1dBt6wzKF6aZxLt9HcG1wuJy2pIXMfRzlW5H7cOEa2gHHrKmm/GfKIiAVhmMBoJDUUT3jQ0eawN1AGS0olAW9g4A0hsN0m5vq84UGe4w3uwTOmTK4O1N9l4A3LHI47aos86TmI0e2ZHcuGb6bPi8w/16dlOjuItrtP8tjv8lIVufaBkFmSuhrWTjaq7/o0j+V506ZJM1yIb+fuGSetO6I6y9YY110v4Q3hst0m5uze0LR6CEkwrYtdqHRlMorTjppMt/K61lFHcdraHW/6hfmKHW9o9MQG2t7faLzovjdwcewPWy56xh45jD+07bUPRaD+LgNvWCakeGXZeq6dRmMGA7xhm2y3iTm3N2Q8rMmdeBPXSpVuMXcsk6SykpynDnh4VPkevqPl42XPbUkxRkrOvKGibPq5vNjwCGvJ319cpnspwFAS5w0+4Qxv6m1oeLXmKxhNj4vr3mUb9XcZeMMyAXmD5gxRXanal19rdeAN22S7Tcy5vaEu41TmQDvqlhMJs9KqVrn9vt8qlfZFzZluqQePtevhM/olUT5z/TCqMPUGCtmKS5lspYnUQueccL9XNV9URw94Q11qe0hZ00lkGKZWdWHFpr7qIQfU32XgDcsE5A1dTo2Fmq4QDQd4wzbZbhNzbm+gdVsy9pjwsENVymJuWTQRcyRV67bOSdw5vCCsMHwwdf5FMVxw4g22p48NW0VGQwy0ikvy58tFe77cQW+gEsUcGCaJ72JF4ZimVEV0xaD+LgNvWCYgb4gMfU9I++PWWV8J8IZtst0m5hze0EpKucbnieE0csapQk/fKGY5ZVy6GN+zK0lcJxFTKplX0Ik3ZEMgeDFkjWnGaYbWXdT9uusNNALi0uNxOLfLtt/v3vC6QP1dBt6wTEjeEDLwhm2y3SbmHN4w5MH32+G4HLb8uHN75rhjK53katbF04k+od1eArqJN/hrUFffTJLeLl50zxvot6k3KMV7/uTXHc6N+rsMvGEZeMM6wBu2yXabmHOPN/AT4g25vCob60ifL+u70z1vGF5/wBti95CS41fT4zq1f9HHvKGapoa6XlB/l4E3LANvWAd4wzbZbhOzSv6Gg+MNqUpan41uabyh3Q2Tmo035O7fZL6hTqLSbPeiTxhvCGFiFfV3GXjDMvCGdYA3bJPtNjGreYPfE4dDG5w3dLJ8od3zBpcbPyoejm9gEeFYSBff0PUdjT/sX/RRb3AZ9s112wPq7zLwhmXgDesAb9gm221i1vOGQuWUyb6WtA2yAQ5/y6ekt9HcG+wZ7mBeb7GYv8GUKm0io/l4zVkYTDnsyOs2yHmyN2jO/WBvmF66DTpX+3TLwBuWOac3tMlupoXEE2IKhhcBb9gm221i1vMGimVISkny5OcpClUWfi+bmTdU7mA6LFPjTle2ex+aJkopldaSHIISOJWpJHtKFy76qDdQMv6SsktcdeIn1N9l4A3LnNMb9lO+DyFCAe8c9zzgDdtku03Met5AW0pZEWAFGOIeUzXsZTPzhsjQTjmS8d7k41ZUeto0cY5In+GxpU4/pWmGji/aHecNkUk5yeQDe3FeAai/y8AbllnbG3rZrf66J/vOALxhm2y3iTmvN1TSWXeV6/g716I0lf9ab7LOHeaOtf/6XXN882PGHI5NVc2apmqS3rEbskruX3S8KpdFCmTk1c5dzFTVVSeLfGH7dMvAG5ZZ2xtuYe+45wBv2CbbbWLO6w3gtKD+LgNvWOZwvWyKeghDMG1Zp7yn23Rja+sFWerGB2m/mFzl8TC2V6eZ94Y2r2O/idzoDfZKuqQgpSxXpexU1127lT8feMM22W4TA28ICdTfZeANyxyql42kZitlhRMnUeEE63NvyOUgkoXOHlO76J+qlH3j2Bt6OTmVnemm3pDKHYZrd3V+s+IAb9gm221i4A0hgfq7DLxhmUP1MlW1NlWi6oajfJIuynjp0twbyCvaklPC16poyDZIAEr3PB3U2ZMro/3OdFNvsNcjPUkaWhJtKIz5umOOL1Uv4Q3hst0mBt4QEqi/y8AbljlQL316lJy6+1y2cmvTbM8baHqhYRswreREySNnAfS85sRtdELGx05TriZ+KVTH96GBjexmtQHesFG228TAG0IC9XcZeMMyB/aN8WlYedu4ySrn3XkKfq50cQymanPJ9Tp5Ppd8a5HbjWbqDXSWW7Gkb31lJrxhm2y3iYE3hATq7zLwhmUOeIN22c1oa5fGpV11R0y9gTOoWrkorDToxCtB6p4vJD17Fw1nzOcp4A1PfY/gDaGy3SYG3hASqL/LwBuWOVAvvTdk4g1juoW5N/D8hfWDmCct8rjvSQMK93w6VQUed4A3PO89gjeEynabGHhDSKD+LgNvWOZAvfTb07t5ijEtdCKPS5d5nZ+jxPBNzeMKmcxTjM9HsqiCEsZX8IbnvkfwhlDZbhOztjd0z04mZ6qxVerip95tHovVVGHHZqH+LgNvWOZAvWwkpoG3c4lSGXyI65hEgh53ysVFuqSqnQRE0lCDck/wP5o3nZGAybp51BvMzS7DhDdslO02MWt7Q/Lsrx7VkDM6MvUTr1JOJ2+jMb91qKD+LgNvWOZQvSwoP7uueefYitZbdpptwBpDkenSe4PSXcF7xNgK1zdV4UMe7cmF5Hpv7DXaKpG879M80/veME0Xf2vAG7bJdpuY9bxhuhnEhOqpXfnEG6J2pwk6MBBqT3Hx3m7mdt8bJhcNANTfZeANyxyqlybmdE0Jjw9k+bgZFUc/5rF4Q8oH8QYw2qV6otrC+7+omuMboozPqLXkfRo3j9n3hun2dLcGvGGbbLeJCdMbdjngDYUq3KIxeMNN86//uvDkdiv1wOF6adqkGGYMqyLRbgKvK9Le8BbZtk51/XBQVpRp2yVuO7oi6Ru/j3ZX+ITV0320Y37SnSCHtre7vTa8YZtst4k5tzd0vZa9MO03Fq2b0RtaziQT6UKVmp9qMp35UYSm7/fCIGbjDZLx3mR88UYnKtGTVsnHUNSqKWUyVpeq0NXoDZVc35eKoid06/fKunQrdJ726Zb51ScLT263Ug+8JF755oMZTwi8YZtst4n5xaenuMrB8VAZAm392vHKb1rNOfFpBHRIFFMMieyjhs8qSSK6ZJiQmHqDjB7IeGnL0xFqHEmo3GoyjubiVWRumFV7b6Akubxjjy9VJGn0ZfbDDd9eI6i/y/zLXxae3G6lHoA3rAO8YZtst4n53Uk+oAfaJ6sNZdynHJE9HW8wtaqLgsOy/HhDYZ/p7VMUjlCohE6SeKzCX2zPG1pVx729SDMbb2jIJmTQNbVXy3jV2Hy8wdpCGpecOM+VympD2tunOLJ8mPi9PlB/F/nlm98tPLvdSj0Ab1gHeMM22W4Ts9zkHsuB9qlKKWDbJaOdxDdYMTC8DKwY4hvikrpqXlAuGeyyhHbnnQRA7nlDSZdt0rSatHENDVu4OVnDGW1qicaaxDfIojFrFeVQqjbnGC/5paHBkOs0B9TfRf6yOGi23Uo98BJvaJPbjUc4NfCGbbLhJuZXp/jT5+1Tq5khQkFWiE+8oZb0Mj314rO4yJ4S51tvSBZWbO15QzJusOe8gayhjv19ZdG5S2838YZUnun4etO4SL/dj0yjXKM5oP4u8tvfLz274UrtQT62dYA3bJMNNzG/e/PLl1/kQB58ilwsklpiD0ZvMPYJIpc0Mj5UMU5KCXVIlSrjvV57YZ5CqaKX6Er2htYvCBNkmCOTFA4Tb8hVzrd3Oe7k4K6n4gyJa0xfqnGK5GpA/V3ir29+vfT0hiu1B96wDvCGbbLlJuZffvv6xdc4NN7A8YhlueMN1bDQe/QGfq6WBeISNbn7fX8/LpLyzVhTiLw36NlJzXCTNpp5w3j3wRuMLGefJLxzCW+uDNTfBV7/y78uPr/lSu2AN6wDvGGbbLmJ+fWnL//jD+WzrVVc+awJk3mK6VY6zhsSlWZmdIMqVm6v38mBu95AowQ1Z5Nx8xS0TmIwBz3oQRLNvCGZJOSPfGKavJ0myiUjmQ5dXAuov/u8/v2ny+K75UrtgDesA7xhm2y6ibHi8NKpigPt0xBbsOMNLk20IXsQb2hl2SVvuBc1DT+zk15uzxsMBSM0OQVPDHGRZA6laEHpUkV2bCmz+AYZSOBYBrmhBDZ0zhuu1RrgDQu8/u2nv15+ZdOVWnjAG67u4/3cfWuuAXjDNtl2E/Pr37755GXmcKB94sBH6vDFG2S+QLbas/10y4ssO/aDjlPlN6VsuEfxjLK/72QDq11vcFGMfMGeT2fYHBqvC0QpeW9JYbREYtIdq5zXU9Sc36FmD0nFG/JrtQZ4wx6v//Ivh7Rh45WamdfLLhlrU1E+vsNbnBy1C1xLl+84dChunxBU3CYj9D0h4OUb8IZtsvUm5pN/efPbT373u2cHOhzK31CrXJdupoAyMnQuf4N9Lqcv9dQulapOjH2+LBJVkxvYV/M4ZalopFtnKhdNmSRu9CBWdVqUIhzWFYYoRmsOFa/1dL/3JAi9vWPrZkwo7jJ1cQ8Fz2xoupQtD3vD1VoDvGHK69/99ZPffPrpbw4a79Yr9avdejlZumTyndG8Vu/39Ik6akmRl3I3Obif8HXnFuNEItX64grDkJ8MvGGboIn56+9/++YFHBgP7VkaOCtD1OWUsdHli+RUj/mwrU7Gr6pS1kZW/JizMBTDUstJNKWfp+B9d1Ju/yiScuzs225Y6xm5WQjDiaRcvkgJ1+RpDNqkJ5by1K2bzLhWa6D26SVvEtgch7whMjt7TC3tU/tMb6iqSlNSt27v9fktGto6M1cF/WN/DXi4Ad6wUeANxOvfPZOD3mD75dbYBqJzDYWJOrd3hKmqoXvuuHlqqLevKveqb3TGby2m8tAZZnImU+00U5Pry0Nj7+xLElXVcOFGXm0nl71arDc89z26PR4bHUOlfsAbdjmhN/Av9ntAsvf6QgLK5CayUsIbtgmamJeBuO11QP09AlTqw/MUzgm6uFRJb3Z3eIkqXpU094YsqYcdNJui9hlWstRegofoZt5Ao3w0gmDiRNVpG01vUSWqyIZyOG/QEvik21LlGW3PPSRwa+2N5V79tQ4Fwhu2CZqYlwFvWAfU3yNApX7MGyjFSalUuuMNlUtkMvWGrByjFppJYjdKvlbLjnBzb5Ad5Whju5pDiYZbuCuVxpVj7g0c41RnNV90cuNcjrnS0CN4wzZBE/My4A3rgPp7BKjUj3kDxSKamJcXjfMFnE2tGHOsMk2tyorysUlcse2+m5gikjulevuTg4l2vKGlXwtaOWVvQUuXZJ7C1CqtojaXPeT2vEFpYwqrCZ1bENXQdjOmlZXb1bUudYI3bBM0MS8D3rAOqL9HgEr9mDfIaqVuWM4c+dwlzXiMEMsXfl777NOcpHFHUUn0kMcWdryhYlnI6OKGg5bFG3h1E49TuHvMvYFedFMcqdsCL4rcxjXR1aZWgTdsEzQxLwPesA6ov0eASv34eIPfO9b1392sW554Q+LWQ9PAQruTybWpeh6HWPQGepBJYhTxhlQWUFROPna9gW/jk7hy3pWYjs6G5VJXaQ7whm2CJuZlwBvWAfX3CFCpH/OGjmIHSi1zEm6Hl9TMjxHcbvTWNLQ9KB2v2cW5D1zY8QZJ+tbzYumJNyTT3WEW4iLp8cQb1PxwgrLDXdletfCGbYIm5mXAG9YB9fcIUKkfXU8RZdStU+Y06b+r6QYvU28onTek7A2TFZZWAxLdFgvewHMXFSVi0dXMG1I97Hv3uDfUqpgeTpvelUtJpcKtl/CGcEET8zLgDeuA+nsEqNSPe0PEkxX92H/TRnHeHGbzFJLNkeYpsknC90zWRcT73tBNwi3NfJ5i+ol+zBuSMWEswVvlJlc22gBv2CpoYl7Gy72hqR7OhV9VD57scs49ka568PuKqY7Ky78iqL9HgEr9iDc0cSoPC+rOXf/MPbNsDTfxBi1+kNEah0Z2nDNlWcmgAg1H7HpDx081EpbQOm+g2/XyVJb2Ru7xsDcULoySUkBEzXVaA7xhq6CJeRkv9wb9QC67sSk5eDJTx08Ml3okSV31SFkuB+rvEaBS73lDLglXO3ECU6qia1pe72h/9s6W2Rwkf0MvxxtaPVnrjuIoIxpdUEWTpbTEolJ1ZtpkFt9QVZlObW0kN0/pDrFcz92iVGXfpC4jw6PeQFvctBSumUo9v0ZrgDdsFTQxL+NU3nA4s+0j3lAmST7LePcg0lgdvCS84SZApd7zBr/nlKtpmfxKLmBolMEfaM1BvGEMSezS0cxNzLGOdTcck0+9QZD4Svk1z7leUyiFC8Z0WvG4N0RZPaaJ0tdpDfCGrYIm5mVc3BuohWn6YevsR4A3bAFU6r19tB2x3yO700mi3eYxfTJZJmE4asEfz0c0cdL68TzTJqn8Ytq0LCreQnvcRzvVmZ/p6/o86Y3czd3C6DQpWldT7UXlQUsPWvktSYZn6PAkKTK52aXr3znqJbwhXNDEvIxD3qC1bZrkC0Xbj/tMaWkG3N69lXbJ5ipdqsI91+shxsD0toka0t73C2bhd8zxk7T2jOHkzO3e6wKy+Z7kDS3lpuPnTKX74WaNzkZvaPQNxW1vjvNU6tfv3r0dH05f+Wx85VpAvPI6wBu2CbzhZRxqn2zXzPte8+Ipyi8byZbXijt4N0ap/SCnhCnY57pxHDRqCnrs0svRDKsq5ZtOMW68672hlXRzBQ2ISkIbGV1tuSjjevGEN/R2I7CtDKXKsCo9W8vKc9pbR6kki64I1N8jOE+lfnd///718HDywjfv7++/uvTfvAO8YR3gDdsE3vAyDnuDqmPNk6dFXPOcZmOdoS2nOfEHb/DjDVYbct3nnJaOtt4pWB0i7uLrOJGQql5No73FGwqKnqrooEIOalWte7nvrjf48YbM+kwflxx35a/P3lBQSpxSzZeNBdw+bY6zecP9n4eH4/Of2+fhDRsF3rBN4A0v47A38Dd3zV/nTU59MPfthqc1d73BxzdUKT2WRd+FyhtJEUcrvxTFZVW8i47Jxw7deUNWy0r0Qs7uKXbb/mhSGujY9QYf39DmNPQhy8dK3s+n4lJ3kiS/fWrMxNW3T5vjfN5w/41/ODz95/v7L7+GN2wUeMM2gTe8jHn71A4J3lxnXXIXbPvgnNdS+QmGQ94gGO70ufvns7hD5z682I1b5PUUCe2825AwuINiul7tIxcOeYPgN+zp5JjEb7FDZX9wzWY47dPmOJs3fHn/x9fu4fD0V+//8OoreMNGgTdsE3jDy5i3T8mwest1zbZDpzDrnH6liYdklmN2wRuaNk041MG4rpzHA9xWei6MYYLL3zCMFhCcd4ZiFwoJyDzsDV3PazirKHMb9nBZfF674pomKlB/j+Bs3vD2/f3n7iH98/YP9scXb1/BGzYLvGGbwBtexuHxBvq9GTeniXygY2Ee8AYWj7y2L/v0c4b+9RvqVLsrKDXvsSe7AmfDveiCEugolrDsDYZjMBN62eeeymSBOw90uO15rgTU3yM4mze8+8L+/5X3BmsRf5CX4A1bBd6wTeANL+NwfIP7Z5a4uWlzJbMIB+IbVN137mXX3XNO/PbweIPbzK/hk2evdZRxPzvsDVrlrZtR8T7C2fYLjDcEzvm84dUf779+BW8AHnjDNoE3vIxHvCGXvAqGZyeo+zYpdf29jB+Uu95Qylf9WvbDY7eIXXwD+0e6H9+g5UIFj0zw0smGM9txcptcEvDTRRu14w2NXLMjb+icW7jsd+IfNeIbAuWM3mB/fDHOU3zjXoI3bBV4wzaBN7yMR7zB9sEVL3dIqB/uI6cJ0me3Y3L7iHPe26/4bviAM89S9oW2dusdkorT55MZtOMYhvMG2T4n5RUYfLYLdGRNaDloMp54g8xrlHSO9RjF+aByuj4XqKlV0dCkSo31FGFyRm949eX9/Wc7+RvgDdsF3rBN4A0v4xFvsN/gVZlIJqfM9spxLt/s7T+5dYHRG2zPn/cc2kjZHty+NqoslXhDZf9Ja9njJhuXSgz5G0rX4auklExOsarTwp5teBxCJdZcRm8oeJccTYfYolGBKgmrYL+hBBGK0kb1l26UTtQ+bY5zesPr99YR4A1AOL03/PLSH50nlBHAG17GY95gOBYy5wWYMaWOzLk37iizY1yN3mDsE7k9hGIVYz+KQA7QuSDGnhIx8WSCyfMhcbX3hop1pMk50pGswpBlqJQnLjLao6/VozfQpnwxDzXY52WGhLcCTDOZB6F9/Or4ikYb4A1HcU5vePXN/f0f4A1AwHjDNoE3vIxD7VM1pGMwtBuvoxsfGpokoH19m6pzT3BHnWXGPuX6bPp3uJJ/UrbeEcYj5YEZ7zspQtR07tDOHW+4ICarxjLRU6byOwpXV7aTDurvEZzVG6wkvP8G3gAYeMM2gTe8DLRP64D6ewTn9YbP3t9/BW8ADLxhm8AbXgbap3VA/T2C83rDqz9Rwml68IfP3Uvwhq0Cb9gm8IaXgfZpHVB/j+DM3vDqa/GGb+7vnTjAG7YKvGGbwBteBtqndUD9PYJze8Nb8YbXX79/K0/AG7YKvGGbwBteBtqndUD9PYLzVOrX7969dg/fvnvHz7wdfn/7rEueD9TLdYA3bBN4w8tA+7QOqL9HgEqNerkS8IZtgibmZaB9WgfU3yNApbb1EqwDvGGLoIl5GfCGdUD9PQJUanjDasAbtgiamJcBb1gH1N8jQKVGvVwJeMM2QRPzMtA+rQPq7xGgUqNergS8YZugiXkZaJ/WAfX3CFCpUS9XAt6wTdDEvAy0T+uA+nsEqNSolysBb9gmaGJeBtqndUD9PQJUatTLlcA+2tsETczLQPu0Dqi/R4BKjXq5Ehhv2CZoYl4G2qd1QP09AlRq1MuVgDdsEzQxLwPt0zqg/h4BKjXq5UrAG7YJmpiXgfZpHVB/jwCVGvVyJeAN2wRNzMtA+7QOqL9HgEqNerkS8IZtgibmZVw6y+t2QP19MqjU8IaVgDdsEzQxL+PSvel2QP19MqjU8IaVgDdsEzQxLwPt0zqg/h4BKjXq5UrAG7YJmpiXgfZpHVB/jwCVGvVyJeAN2wRNzMtA+7QOqL9HgEqNerkS8IZtgibmZaB9WgfU3yNApUa9XAl4wzZBE/My0D6tA+rvEaBSo16uBLxhm6CJeRlon9YB9fcIUKlRL1cC3rBN0MS8DLRP64D6ewSo1C+ql8b9U1Vm+OUZ5x95kjl8mWdd0NLp9tn/EZ4IvGGboIl5GfCGdUD9PQJU6pfUy7bm3rZQSrVRUXaPn5EQRV9J/97kxfE3NXlu6ELjMx0Vo01i98gTJ8sFapN9R0iUfvD1E4B9tLcJmpiXAW9YB9TfI0Clfkm9jBX1+41SdWJMrrLHz1COsqLfMlU2R9+0q+uOLjQtRh5FWiX0Ix+fTlS1eAE9cQR/TaWaw69XevlCx4Hxhm2CJuZlwBvWAfX3CFCpX1Qv3XADdeSReYI22O6+r6o+Lu2/9Gv2nHmFrovm3sCXYW+YXfAIb4hV8sDrCyc8A3jDNkET8zLgDeuA+nsEqNQvr5fJEd2qkr7cWNd4biiCv9DOE3ra9btyPdkbStU+8Dq84fllBGhiXga8YR1Qf48AlXqhXjY+SLCUUQH3ddz0ZRnzcL7tSHVpe2XqUN3Ew9BNN7ouCxl66IpS5TGNDlQqqRK6iPJ9eUlTHJVcty3qmk+xv9tzyt6HW7ZlqfkxvZDWtdydlUEpo/PaFyeZ/uAT66KTAnVFrsrC3TVLVJp5DWhze5AU1F5t93UTJ6pOe7o3wYMZaakSKZB5QizHCeslvCFc0MS8DHjDOqD+HgEq9UK9rPxX916V/C/7g665A6WIBq1KpRa9wRTyK/lGZ0+g/3V0xbJWM29o6dJyI634cpk/zJ7CujK5YaXynH8hT3DekEyKM/eGXi5CZjMtRFSVfErOXtC7X6Qw/M/0dZPzeaodvaFV/BRFZZq8Ploc4A3bBE3My4A3rAPq7xGgUj/kDY1SMlpgv45nqtZNo7l/tz9TekG+mbt5CvYG+0rRmJ766aa2D6OGe2F7hbylL+qDNzTU+/ONTG0v2eWq5sNqbaqE/SCznXXTWA9x52fUr/fR4A326vRqu+cN9tJJZcg6KlKe1BYiYb8oVdlGbclXbLigbc1ld+EN09djVXaR0SxO8md21oYMeUjLNvKUaI6T1Ut4Q7igiXkZ8IZ1QP09AlTqh7whSlUcUeCj7XVzfmgfc/cs4xD73lBLoEBMEwMNP2zphEq5fnbwhoiUpJLXZDDA8GF8Ti435EWavROKjB/n0eANKd+ISrLjDbGUruV7GdaVjE7MZLiiYS8o5G+UERX5C2avRxnHevJTbmKjcVGg9N+hO1ob4A0bBU3My4A3rAPq7xGgUu/US1NVle2e7U/qNzPuVvnLte3S7ZOVlo6aHWLfG6rpeka+WpuLG4hoLHmDqfmLPOFPj2VKg/tmXiJZkTy4QQrvDdyLZ/TLjjckUrrG34sLocZFmiWV1xaa/pyWL5bwOMbsdb51lSoZRPFxkU3V13vxlyvUS3hDuKCJeRnwhnVA/T0CVOqdeln5DAvSPZIysDx0w/Nq7Ej3vCHzfkAYnfsLDSMYC/MUEo6QVNGoF5nVhCFWsWQfSdzp44/GPdPtekPpxjY4vsHoxJe6cLYTU3nHP6fyIZ2z16M2rf3L7s/t4nz8D7NuvYQ3hAuamJcBb1gH1N8jQKXeqZeN1rpQpf0pEw62Ly1cPIB2PNUbCqVy3bfL3sChiO5p0ycS4eiGFThosvFmUB/wBg5M5ImEHW/I3aLK2gVc5LHu6RzJUhXJ32Pv5/6chqZjJMph8rr1p7LQWTLxBlvIRLcFvOGYMgI0MS8D3rAOqL9HgEr9YHyD/dZf2v5XVjGMU/oHvaFz3TnhgioPeENJX+7HG9HyBUOdNZ9eyDxFKyXgeYp9b+A1F+3iPEXhTqxoEoRu6KYzRGpqN08RTf4et0pk7/V69AbrRDQAEsMbjikjQBPzMo70hqZqaJRxJztMFx9fYWXXnWm7+KS0sYVaTJ7P5TqSauecrno06U367FwzqL9HgEr9sDfYL+8uJ0IigYi6yB7wBulz7eOyjXp/3oI3mJTzPvHTbUF+0Ei8A08VGJaKdBL5uOQNuVSTfM8beskppeleboVlQed0cvPKxUWyJPQp3ZzdZva6G+1o3TxFGg3TGKUbI1m1XsIbwgVNzMs40hu0WH86e9LUz+hOe/fdZGAv19wS7pvKcrmOo1PTtPnR4Ux2E9pnJ9RD/T0CVOpHvKFV7nu/7U7TrJJFioe9oaVIhY6zQRqlMpMVu/ENfVXpopaL8tOZqjPTpW7ZhT1d104qVNnSmsx22Rvo1dL16zNvsDW3phkGJSLTN1WhXPijKvix5oPytkt8eog62nndfmvomljWcmb2GZIaW842kfiGIj+6dsIbtgmamJfxHG/odvfYa4+vr/Ybgp91de3dnjcsZcrtp1O1Y6O1sOvNowOXsfJztZVcY88bFq5Rq2fuyof6ewSo1A/li4w4gMAJbC9hhGn0kDdEuvTRhFHhsijNvUHIu/Fjnw7xiT69U85TIhk/Lvto2Rv48qWO9vM+sTPQpSS+QfGxEaWO5HxQMpSXSdijtCeSjmH6usSHyjUiShzFWsGXmq4rXalewhvCBU3My3iON5yCTuWlm3U9xhvyveee7Q2l8rMOR3hDsTPU8mRQf48AlfqxeqkT/3nv4iSJubv0O03Lv7H85retbtO0F0vOiryw3+lpf+vEzS/yPtq6dR9/edpkcZJymgVbDYw9fagcVZFmkwPd7tn+R1YMxYinP+jE1F5QCtTFedr6bbebIukbV/pGJ0nh9sHSbk5y8nrT50nvrmHaJDX2Z1oWlRSlPV7qsY/2NkET8zIebp+aVo972bV9I/3zsINt27tGSUuTZHzFpSO6vvWnVr07wz5vWn4cq9jt96sTlWg9ekPTZ9KAUNp5CcLyp4/h3J0rWKsporwZvaGVRecSfc4JYzLdLsU+ZPbblUtFU8g1vDfYv2Jyjfl/hmEd2prt0+ZApb6meOXHFfxMmOdWtiPAeMM2QRPzMh6cRy2GZPO0KQ1Nc+pxItXw4GdJfa30uDzxKFve2CPo3Jq/Z3Qy9pjx8zSJSmfXqut4/rLyC7nFG3hUsozNmIDeyPpsl1CGQxLcU9qPUlazItE3o2GQtRjz3XfJtBUqVC9ryYdruL+CUuHy1jq+YNP/DD6ErDj2mw3q7xGgUsMbiOJUo5uHgTdsEzQxL+Mhbyhs/9kXMqWfUG9eq3rwBkool+ic51m5x6UcNEUhE6/aHphQJ95wHHYe97l73nbrunIp7zgVzHy8oSXzSGi+1o83WEco4zaVtWBuuVVqn+o5a9xsvIGKVFAhm2G8oaXd84raqcqk/TO0jk1GPGbjDQ3Zjj2hNMN4g//PwGGcMnmiJyvbzt8+bQ5UangDMQ3pOBPwhm2CJuZlPLR/TsHxj4XkfmF70GPgtvZDDYXzBtv9W0voOIG9lsNT6murlKOcfL4X6W95+VTsFpGN8Q1GssnKinHpot3ppbMXPRZMwhMm8Q3a7Yo3bgYcxSWdJovP2uluebwUTEY8ZvENhaJRCcN79cg1mqIWZeHCpqwaJl9cDXqm9mlzoFJfkzcMYRC3CLxhm6CJeRkPr/ciXEg0D/U3oze4fPG85T33uC6YmXe80dIht5NLlXKmPGFYDFywwMQbKhcmnlO3PYuLTFyQ+GTtJi8Sm3qDS0k3TXontPtrPFlpnI1MvcHNQ8SzeHP5u5Lhv8bK7dPmQKW+Jm+4aeAN2wRNzMuYt09dkiS5qu1P/opBMdWlmuxK43t/Pd0LZ9g8h7t8lgHXu7qOt2mLpJ4tMW8lIrF0gxiDN/R87yThFDPeG8bTXUDCtGBTb1AqT/gPUJM+v9L0xK43NH7eI41m3kC7/co1JnltovFuMxVaq33aHKjU8IaVgDdsEzQxL+Oh/XMyXjidiDfIF/3U9/7NtCsWb5hsrjfzBl4JXuZTb0iGFePRzBv09P7OG+LxdPuUG9MYCjbxBjPd5Mcri6xu3/OGfji0mXlDtXCNanI3P+ywavu0OVCp4Q0rAW/YJmhiXsZD8xSlovS1/HvqlhPUk/GGMcfKznhDNPOGStW0XHOyEsP15r7bno03TFI4umAGpWJ/ugtpMLWKObZyb7yh2/0rEsVr0Pe8IR8K0O+ON5jda5QqzYZf/GbFa7ZPmwOVGt6wEvCGbYIm5mU84A2uE48lvoFHE7pxtiGXDrTruyEygKMLtMQ3jN7gsiuVE28Ysj7yRWbxDZKfoaPOW7zBJaDP3ToG2eqGr17sxzfI7Eoz/BWdxEvsxTd0Pg+ElliIaXwDD6w04zXcnMqwIcA8O/Ya7dPmQKW+rDc8mjWh1U/aTCYA4A3bBE3My3jAG2T73YaXL1JApImadLqeoiZPyCUSgVci5JQKv57EP/KlCtfXT7yh9BGPLBCt4gUL3Hnb7/YmMjEPZhS8PEJUIZP4htb15AlfnP+pWRb4wv3/n70//7bluPL8sEfgEqwiMQZwAZAAySRPznPeB+AVgQZIFqqr2BNRVd1rla2l1fYPWm5ZtVbXqm6pS2qpqlXVbbstT5IlD7Jsd9tSe/4jnXvvyPGce9+Z8mRGxPezyId7z8mMzHMzM+JzInbsUEXOqWpDNoOqyxNVcsTDzk/7+jDo+jU4zqFUerJGzgv2tCfTFLIwIJ2YxGqWehanpLjdVSdOw4Q3nAIe6r24o9N6uTihYkWBOpF3zIpv4UCw86OXpo2v9tK9D5kpn95xa3Mz4A1ugirmMp4ep0iCRMc6BJwiXo2iFNp3sqjgtl0yH1BCh0zpxn7whrYFD4NslPlh+LZPLXbOyfZD7Q0USxAVqlsJLws4UjHIJMtTNwOj4BOTlpyW6MlHpxQq0ZD257CkBfbSqN1S8Sv9IEjW9xpo71FtpcefgnJAJFRGyZvRiVECie7P0K/IV5y4/iae3xPAQ70Xd3RaVE04LALR3sr7PWTeLJ/SMG7YHqgsipcZgK/212k5Ylm486cjLQa8wU1QxVzGU/2hecIr2GgHiCgj0jhKgReqifp5mLS8VVvtxKPqQao7TuKYjvYMhgac4yaajL71y2ABLabXGgp/4Um5vW84UWXQLdND9RWvrRNKfAP1gQRdvkjO7JhU3clXu5qCMotc55Tq6rq4Fxfp8aBtG/0pfI7ZlO9OFa/sN/4zNJLFoS6Qv2FB8FBfxxvSPK+8RO2vqTIft8tbmvZeb6H50S/vODiwTgu8QYA3mACqmMt4yfoUcbnzc12NlNSpQL2eZdf1WXYr4eS6Y7Pu3+B9ul3r2B/vWQ9dp3pDqqnybg2KfKh/9Lvd7sM0yPGJ+Xn/dvtz7g9l8ytxX/boqP0hfP1WPnyKcRm1vFt1R+smgp7Y2wBvOAk81NfxBulVaPaXiTy0Zn1+1EL2mnh/6Qh4gwBvMAFUMZdhWtx2dmqC56sSj+d7nASe3xPAQ/2kN/hekfTDBFWoIlnLzQ9CyqpOP068gWJ2+OaNaOCxHhZk4QVdMr1M5sgb9JLYfloUqb8LMhXqFerK9sByrE6gy8Ee2mM2oUq7x7NOVZr3J5xleq04/UHisOjebSLKSa8TwMWh6o5wG+ANboIq5jJM84Zubd11iNS5CfPx/J4AHuonvEEG41TBUsCrzel12xJFgTxDiG/vDX12Vno/8wdvSItufbjdAW/gvCtp2q8qpw8sj4BMdqqLIYSybfElQIK7FOUYiSwCN5yweEOsz1rPdaLTkkQufMgDMZfLgXW03QRVzGWY5g2mguf3BPBQP+ENXtuYl3mo9CpsYU4xQR71KhR5+82eM7xPvYEnAZVFu9uulohgUYSmbcv9MtBpT/a8Ict5KVvP9yWtqqeyyq8jCQmWl2I1hFBScHHuewWLfUKzrVqpaS2FxknkhGPtDX67Te1XPGcpVqrx6V8J5KTXh+CjjT+X6G8wF1QxlwFvuA14fk8AD/UT3iDr00pkYio9DXlIMkCBPNS3UO55A3cOlLybLAEriqCXeNVpT/a8oeGj8FxsimbwdZhEpoaOAzlmdxDuJ6ho20qHP/AR9GE4Gpp303HRklWljmXnhr2B9orOTJFy8+cS3mAuqGIuA95wG/D8ngAe6se9oUuNxq3uZOm3HYXx8uryB71hRxG/VTYkS2ttIKYZFEGfTl1vrr2BDqP1gKcVqYK2ziV1bL4X6RPKCKIveeblXdpWLwVDfQq6vFAFVFA/q6nMGz1LO5VPdsPYSXiDm6CKuQx4w23A83sCeKgf94ZYD//79OV8vLjcroqKLnDhwDjFzg+SfuWZPleKzvAgx5h5A/048oZqsnZNLjuNCHXsD61KG+ls7DR5uduSoyy4vKwviWYxpVkXZKFP+NTJI6s9l/AGc0EVcxnwhtuA5/cE8FC/3Bt47KAYzbBs2/0ipQkJe94gycooa5vXVGNvKDyN3l+X9Jg3ZHprTqGy17h3Gdizx72h7Lwh1SWVLBGRVwXwhqXuI9Q7h0AVcxnwhtuA5/cE8FA/7g217vavqDkOR6us6cGIYt8bUlkUXi/V0nuDryZzml/mDfkkXnF/XlMoqaDK8TgFnd/BcYpROYmcIrxhofsI9c4hUMVcxnHeUI+mH/Z5oMAJ4Pk9ATzUT8ZF6sypUbeES9skpzogkkYT5t7g6ckK3Kx38Q2SxIzabz8IcjnG096g4xv9lFJAdKvV+eP8DSwmDf0nlwNIOmo5TLtHqMtrpAciplwT0kvhY5xisfsI9c4hUMVcxlHeUE77QzeW8s0I8PyeAB7qPW9IOCaRlL2h+Y4Vp2anGY2FVzc8xSJVaV16xdgb0jxvaG0XMgaKgvTjSKITElXUPOshjSmXgiRmf5k3eKpI60oO0JZANYKfjPM3tOdC0y09+SWt25OhMZWqO+F8mIeZVJThIeQVsnK/CuENi91HqHcOgSrmMo7rb0hHK+TBG84Bz+8J4KHe84ZRSCKv96ISNvlc8itF/TZJMvIGHfUozi85lVK9oqySlA/yWncMfbRHvEGXMF5gLh6lsA4V53cqeNXZUnI9SfZIXmFGZXFfXi4BnNw/IVGRIbxhqfsI9c4hUMVcxunxDfCGc8DzewJ4qPfW0e5XuSaqsE/h3LbQSaDXTGmS0PN5OethHe206RdbidMkrfSK3HXAKR/yIOz2pmPoDfkH+U2vex3KOm9tCaHHmwdaNqphALM9Zh4kXnc030u8Ph4iDqN8NyrP98L2XPhtv4raU6jCit6s5ERuuNY2vMFNUMVcxqR+yr1KP/PyyNfdk69/35VeDW84Czy/J4CHeuvxysUtczouCbzBTVDFXMakfqr0lCn5b8XrZPP3BOmn5E7Rbl1tcBJ4fk8AD/XGveGmqZkWBd7gJqhiLmNaP+kctjz9OmodIShkOJO9oVKqoCX3rKkzbgme3xPAQ711b/BsmVMFb3ATVDGXMa2fgi70moYjyCH8gJexYW/IFIU85QrecAZ4fk8AD/XGvcEe4A1ugirmMmbxVxwm3VAuFr34jMza1nlf+EtGAm84Azy/J4CHGt5wI7COtpugirmMWf2UkCVQhvl+LRxO8KLzzPILAbzhDPD8ngAeanjDjUB/g5ugirmMWf3UqEgy37feIDOzeca15I4VX4jhDWeA5/cE8FDDG24EvMFNUMVcxqx+olX2Gp6b3SWRD7v+hlhPtkB/wzng+T0BPNTwhhsBb3ATVDGXMa+fUlVJCtluaRoOj9TxDTwnM4M3nAGe3xPAQ72kN9RedXkhA/7lRSx97NJrHnsL3uAmqGIuY14/xSqROIZaKc/flRFng9XzKZJ653uYT3EOeH5PAA/1sd5wTm7FbsHr61AXJ1tIFYRRdQ3dOPrYhcofeQfe4CaoYi5jr37KlA6IDJQqKCM9PZrsDZQAPyqQv+Es8PyeAB7qY73hjOSt0/WwL6DiJLLdvKujKRNZ5iK65CxOPHb66J8J3uAmqGIuY69+8vpqpU5phTv+RYYoSkoDFSEu8hzw/J4AHuoFvSGVBbUvJ5Qv8c1pPQdlW4dkXhWpi07jxGPXj7oSvMFNUMVcxl795OdDl57fLXaX68Vx/NhvN7AlV9wtwfN7AnioF/QGnRP2csJHO/+fIlWZrF6lztr9zGNnj43NwBvcBFXMZSBu+zbg+T0BPNQHnsuRr9dpopKAfu28IU/1mtW0oZdlaby/YR7Sxv1y2XWq+hUr86hI5Uel/LSgtbC9RIUchNA20U2o0u77enukSOKmZU3tfnp2qCL99d8LVRE1w8noWAafihh0oQu8vtaxy6eO3W2595UH3uAmqGIuA95wG/D8ngAe6gPP5dC1UBfcblICeHkxl5ABXuzaTyV8oJpvmBUc0ayXpavD/q1dnA27KxVx8EHaFxIqXTq1wHm/27Tt1kWwCegT4CiplM+goJ/9pKgHW+COTf9Wx24/fiFvV1d8LuEN5oIq5jLgDbcBz+8J4KF+yhvKgr6B1xm1jvJiRn3/VcETodo2NS39RrWN9HRDlfB3bx3ekLQNql9H1Nr67Y6V70m8s1JZzr4R+L6sVtO21mFObwd8pDDeVZJqXsYKuO3mInZ5RtsEqoh52tWOJKU9A2rvY5aYmN71xh/q2GOnlx27C3BIuKBrPZfwBnNBFXMZ8IbbgOf3BPBQP9nfUPKX5kZGHbgLgYcefP6OrsMXgjSfbajHByR/fMw5YXd+GJTt+zzxmlez28l39ZS/npfc2IbydkUHqXhWtm6FR213INvkIZddy8nUenGbbt5DHe/2JoFe79j1cOzd/rF1ZLe/F+UAb3ATVDGXAW+4DXh+TwAP9ey59PM8b1TS/lt3L8RJ7w1dBldSgvksy2FDWV2m3YhkwhvNYAz1l/BMVrArd304ADe2OnFsqXPN50Qhb/Rtd5dctqPOA9q81EvhxV1MxZ43DMf2lj129kggJbzBTVDFXAa84Tbg+T0BPNSz5zJXHdSm+l7S/ZxLyyltMTWjcecHO94wnGxISIsbjRrbRA/6p/SatLLTtltiLLP2v2F/Ht6k7S5UPBw1lsACTjErqel93Ybv9sYpjjx28sSxs6OOHcIbwAhUMZcBb7gNeH5PAA/17LksPc9LVdb+S81sqlQSNNXIG7pMbdHUG+YbEiIZ6SneIG+LN4SekD/adpeUL86Lw2nb3XWCzOIib3bs4mbegHW0TQBVzGXAG24Dnt8TwEP9ZFykfIOu9sYpktYfxhmO9jYk5Au/N9KLSI8VFDJOsdvN225+ux6victMxgrS0cv8czYaK6iGcYrZPMxoOkZy6bGj/WPrcQqJ57juc4n+BnNBFXMZl3iD7528B49QHp9g7mU5pvIDXyJSdVLK/vKMQ5wBnt8TwEP9lDc0MiMi7HWgkkax1HGR/FSGWbW/oezNMzelVS2LhOIiOeAw17GJtNG07c7kpYKPRFaSp5SpIdTr34WsIVRETAeUkmO9pA0/i5EU58vjmYzyPr302MVLj90cc+y+9+GazyW8wVxQxVzGJd6QnNZC7/px2uLY3PQvS4c3fI/pKYex1KPwTj/EOeD5PQE81C/pb4j9OB2FLdCkylpeoMkVYd7+0rbH+xvu+gDJUKm0jhNqbP1M7x7tDrfdKqtoPqPHu2VNHShuqttj5GU/F7Lwyop7LFIV1WWT8b4VnUwlP+/ShO2G8kw3VVTw4W517EoKrYr6is8lvMFcUMVcxiXeUGXTp9BTL+uAaLU/DCnAqTiuzyEfTdY+xIFG/dR1drzTD3EOeH5PAA/1gedyWPpSkhsN8yl4JRmldF5FL9ORgQc23HEzyz0N8p5MbeR0S5So8XDbLW8HvKlelEpSULaH1JvWfQAmdSTQ5omMJPDJZLFszuGb03Wtjjt2euSxSzl2Nj42925EUjUle18S4A1ugirmMq4Z33CMN3A8eJUcuZTvGd6QnbhKMLxhe+Chfvq5jNMsrdgjOpkovcTrVbxKQp11eX9DEmv5yfeStFvNukwTnSM6lO/lsnVIaRzbR6Mtpivdb6Kky+lcB6HXbUpFBBKgWDZJ4pVBKF8qqjDSj1bVncF0He0yWP7Yvg5v8NP59xV4g5ugirmMp+qnyivLRlQgb4aRhaoqZR3bSqe3jz1eLdPjiOe2JfZ2teyWN03dleTT1t23nqrrFIiHFe1qL+afcy6t/U8l3pC33xtSea3uyuNKpN28a9T9pmv2a6khhnNoT3fvENXoEN70EPn0ELsDhzgLPL8ngId6wXjl8tjOPs15y1ddh2sd29vLE9kBb3ATVDGX8VR/aKgCxc1mRT2EvKJM23xS718aDslXgkKyyevYBWppG/6vZMcvZPZ0U8ikavEGmVTt0+ijkq8EXCx/E9K9Fl7Xu9olox+XJ0t6Kx2nXdKkbb2CTdP1cso56NPlQ3hFl7o+HB3Ce/QQVGqhD8E9wRLQtQvOWU8Qz+8J4KFecp5TdFqPnA3eUDwa8wRvcBNUMZfxVD5bGjdMOcmKigIdYNT+J+Q2u/OGXBUBtch139/AA5IeBUAlQZNwIHOoChWN+ht4cpTflpW2ZdHaOn6hUmri431v6DoD/GQoj4Kr0lQ0hQorAoqgot1S+Wahz8EvhkOU7Y+VHGLuDf0hRqdMQ6X9ISp9COolac5aABjP7wngoV7SG2rvJPG1wBtK71FTgje4CaqYy3jaG3iGUyWr5kV6ylf7JPvR4A2cea6Mwrxv8SVEaZcn1Mr6XVx0PSq7DvXkLTKGkGKpPQ7sDsJq3xu62iMPOR6bE7ikvGuZcaOeqah9I5fAhnByDp6ifXxeziYdDjH3hv4Qo1NOVdIfojUcigrLOfe/nzzW5/kUeH5PAA/1hvKqdMECdh4b3uAmqGIu42lvaOQ/gbyuyBJ4Sng9eAPNiNLb994w+pLgc3Pe5WaR+RRtW1zEffEVdRQ0ql/h9jFv0HAm+0y24QV99FT09kRkSlos58D/0enoOJzCGw7xmDeMT1kvi+PpQ5TDIW5ePzkHHuoNeYPdwBvcBFXMZUzrp7pt1RNu20kVdGOaqCQMefpk3afCHxaXiak/X6Ibe2/QpZVVGhY6nbwOr9QZ5pOat+NyE9qeRgV0EPjj3jCUp1WhlnXyJPVdzMMLWlr0OcwPoaOxH/eG/hB+30Oi+lX7+kPduH5yDjzU8IYbAW9wE1Qxl/HU+jlh1wZ35P0CNskQF5lzPgaaKzXzBp5WnRVTb6A1/XQGunG5ej556j/hDbxFRsl0y+4Q9N8ucVOpBy1G3lAOh9h1s9xT/wlvGE4514fw5RBR9+dZo35yDjzU8IYbAW9wE1Qxl/H0OIXubxjiqPSYhT+MU+xoemTCYwBTb8gpE5xuowdv0NlZql3fadBR0qyN4In4BikvkP6GWIpTXT8Dh2Hs+sGPvr/h4CEejW8YnbLuuIjHXRrob7gNeKjhDTcC3uAmqGIu4whv0DENO2qCA2k5q5E30Mt+IsGNY2/QuZ2KfW+gsEa/D3rwy65wP6Wmv5HcDsncG3QZOr6B9SXYj28IZucQzA4RSjRFJEXNvGF8yjrP/+QQEeIbbgIe6mO94aRMDGAfeIOboIq5jCO8Iedv93lC7XmpVBj7XtF7g/Q8yEJ0jWQ+0G12pBfeO+ANJb8om+cZlZvojUN+U8Imem+IeFZEOirPU0XFu9KhWsOgdPQ82WHIUsvH8/gQMQuCBDp2h6glgX23Q6T/3TtE0U3ZKDkBBHVzVOfEeOP5PQE81Ed6gyz5IAx5V8DxYB1tN0EVcxlHeAOvLhMpGVxoiiEDPL/ftq9RkPCEA5+2G41TcNaHQ/0N7bd4ylmX6HJr0QQvUfpbv0qycVZ9auB5heC+PMrLkFFSCDoUte1R1s3+lFGLLhBheohoeohw8AY6RDM5ZTpE2B+CAiP0IWJVnCEOeH5PAA/1cd5QduFG0+cWHA/6G9wEVcxl7NdPw9rV/eREzqeYSdPvV0kWlKN8kRGZRMj1F2VuKvs2m9NDpd4hb2gb5YDHJfosjJRXSiU8TFBTosYgH63Gk3JSp1F5kmoyi+VQPq1g02XBz7gq7bNDR6NDFKNDqO4Q4g20XXLoEPneIfwkOaN3GM/vCeChPrK/oR5NUIY3nAO8wU1QxVzGU/VTnfcNZB5PV77m/obu/Xq0AgRlkOwrszj2d2Ve0suye+8ktfzgj8qthx/9XG/aba//25dH0HBBf6iq37fi2IXhHPx8dHYHDlE+cYj44CH8cwaV8fyeAB7qM+Ii4Q3nAG9wE1Qxl3Fi/eQHHMsYnz+xYGn8QpWXl3J18PyeAB7q6XPp6WXgask/locqFdnVk37yVEUNvOEc4A1ugirmMk70hrpQiRenpy5WfUsCdU4e6KXB83sCeKinz2Wp85UGpAZxJglWJASZUp+E8gK84QzgDW6CKuYyTu0PlRUjVYgJYKeB5/cE8FDPnkudNiVTFfWnZRXNaCJL0CupFJ5P2dfgDacDb3ATVDGXccY4auPFsIZTwfN7AnioZ8+lJByLaRZSIxOGSp4cTd5Q6iRoBbzhDOANboIq5jKQl+424Pk9ATzUs+fS16vApjpTyk5nPCFvyJVijb9g0TWHgTe4CaqYy4A33AY8vyeAh3r+XKY0UFEoToIuWd85jIe8oVufpYI3nAG8wU1QxVwGvOE24Pk9ATzU8+eyVpmexNStSJt23qDzsrf/hTecDrzBTVDFXAa84Tbg+T0BPNR7z2Wm6pSNIdWrxWSjcQqebHHB4ikOA29wE1QxlzEbR82J46Meh9ySh5mXdUreh3pYhfOlx9k+eH5PAA/1njc0KpDEJA2naKdUDnUfF0k+4WM+xTnAG9wEVcxlTOunXAnRkamTXpZrRql8+kI2WpP7aSzLvY/n9wTwUO95Q0lPpX6ECo/ypNNv/HwFlMyBlpoz/RlZA3iDm6CKuYy5NxRhyGlkjhOH8TrXh9jzhkAPxh5BOsoRAW9wCjzU++OHkZ5uKWurqCKlp4OfLz/lnCqYT3EO8AY3QRVzGXNv4EWe4uTIfJAne0N9rJEcOo7J4Pk9ATzU+96Qh/0jUHphI04dhrLMixcGNdbRPgeso+0mqGIu45A3dHlm6IdmWBTKkwWick9y4nuVbJ97mUo9Hn7IG29YT6ppN++8wW+6MYc9I8ll17bu80r5XYuF/r2tJWt4g1vgoUa88o24vjdsCxPOcQ1QxVzGYW/wOerKp3Wx9erRjfSF7miRHV4T2+vWufYk8XSfgpoNoeS+00q8gXtWMzEQT0Zp634QopL8d/q/VdgfUfal/LmqMH+OGZ7fE8BDDW+4ERincBNUMZdx2BtipVptaK0h9QpVlJywLq3a36t9b+j6G9rNE69JONy73VylPA6bc2FF0Db/3IUhPRlUXHfMQkIlI8psQ1sF7b50BN63kn3Nz6GL5/cE8FDDG24EvMFNUMVcxkFvqBP6r6cy6hQIqYeAuwn8IDzgDV18Qx4ltLnOiJu1slEm3Pa3WtG+kfOEc5qxQXtXST/+EXAPREk9HDmLiR+wqoz3NT9WHM/vCeChhjfcCHiDm6CKuYxD8ymy9kt+3Gem4wGERvVxCY95g+CzHogj0F6cl4aDtwKJudwLjKw5vz5nvetmWxR0sPG+CbzBJfBQwxtuBLzBTVDFXMbh/A0Jtdbtf8KQp2Vyc68SCVR83BvKKg1lkEHHQ9b03y7GMpaehr0pFhIqmVBPQyhF76KujG5fD97gEnio4Q03At7gJqhiLmPuDUme55G01qonp0BHjov0n/CGiLbIaJ0+Xy/RN1l3p+y8YT4Rs1IRvelTQTLtgncZ7xvDG1wCDzW84UbAG9wEVcxlHIpvKDnMYN4zUMYhT6h4NL5BFU1NYw3cVxBLce078WTChLaHMWQZDcdJhkqmoIddf0O3bwBvcAk81PCGGwFvcBNUMZdxMC4y5UkRocx58CWtgn59162/l8y9QQ8ycGhDIgLgUdtf6xgFyWeXH0gYmaoqYdHw9JvsLTq+IZdC4Q0OgYca3nAj4A1ugirmMg56Q8lBCpUqaBZlRo25BDpyH0PZTa7svSFSNDsi1dkdaEtPFRVPoaBNQ5XQjEqZb6kzMdTj3HaxSmRkpFUMz9+VEWuLnk/R7ut7mE/hFHio4Q03At7gJqhiLuNw/gaPW+5EqYzSLtUyE9KTaZX8ctueD97QOkTmUaMfBpkqyBso9UNGaRdoh5yW3Ml0088hj7Ro1VgcMqUDIgOlikjnjpJ9KQ1UgfwNboGHGt5wI+ANboIq5jIeyRfJeZn8gOdWcFomj1JHJjwXk3NBBvngDbv2hUxvkurwB0oSlcUiGpx3UpJAdtMw02K8MLbXB0tS2YXM25B9S1roL0JcpFPgoYY33Ah4g5ugirmMaf3k57o5r/UPed7nZyrzcthMb9pvL+/VsT9sRv/td+9ebLo8kZNJFX4+SgDR/djt67f/7Y9jLHh+TwAPNbzhRsAb3ARVzGXcuH7KHl0603Lw/J4AHmp4w234D+/u/tEF1wjeYCqoYi7jtvVTfGA2hRvg+T0BPNTtc/njtW9ZF/jh3auXXKNDz/T92rfOEecIUMVcBr7X3AY8vyeAh/rZt++8tW9ZF/jJ3SvnXyMTnmkTznENUMVcBrzhNuD5PQE81M9+4+7un6x9z9rPj+7u/uz8a4RxCnNBFXMZ8IbbgOf3BPBQP/vet+/+8T/5D9a+ay3nh3d3r/7p+dcI3mAuqGIuA95wG/D8ngAe6mfP/tGrd3d3//5/9E/BQvxHP/nHrTacHxUJbzAZVDGXAW+4DXh+TwAPdcs/+u4dWJjvfu+SKwRvMBdUMZcBb7gNeH5PAA+18Jv/8Xdt5D/5T9Y+A+Y//o0LxigIeIO5oIq5DHjDbcDzewJ4qK3m+fO1z+A6wBvMBVXMZcAbbgOe3xPAQ201v//7a5/BdYA3mAuqmMuAN9wGPL8ngIfaZj59ePh07XO4CvAGc0EVcxnwhtuA5/cE8FDbzK///M9/vfY5XAV4g7mgirkMeMNN+Cme3xPAQ20zv//w8Ptrn8NVgDeYC6qYy4A33IQf391dNOXLLfBQW8ynDw+WDFTAG8wFVcxlvHr3w7XbVBfw7r699pU2CDzUFvPrP3x4+EMrBirgDeaCKuYyXrn7+KdrN6oO8PHda2tfaYPAQ20xf0D9DX+w9llcA3iDuaCKuYxv3d39ZO1G1Xp++hM8vqeAh9pe7h+Yba02fR5YR9tcUMVcyGt3dx97P0afw2L89Ec//PjukuV63QMPtb188oekDX/4ydrncQVMaJNNOMc1QBVzKa+snSTeBTBKcQp4qO3lL6S/4S/WPo8rgHEKc0EVczHfeu3bazerdvPqK3h2TwIPtbXoYQorBirgDeaCKuYafO9b2+ef/bP91x4e1j6rI8AEzFPBQ20tn3TeYMFABbzBXFDFuMKf/Mn+a7j6VoLLai3/sPOGf7j2mVwOvMFcUMU4wv2hrk1cfSvBZbWWh561z+Ry4A3mgirGET451LWJq28luKy28s3gDd+sfS4XA28wF1QxjvAPD3Vt4upbCS6r3WyraT0beIO5oIpxg/uDMdi4+laCy2o322pazwbeYC6oYtzgk4Mx2Lj6VoLLajfbalrPBt5gLqhi3OAvDiaLwdW3ElxWu9lW03o28AZzQRXjBI9ktcfVtxJcVruxYhVteIPJoIpxgkey2uPqWwkuKzAAeIO5oIpxgj+Q/ob58ru4+laCywoMAN5gLqhiXODTbtL3rIcTV99KcFmBAWAdbXNBFeMCv/5D0YY//PX0dVx9K8FlBQZgQptswjmuAaoYF/hPu/6G/3T6Oq6+leCy2s22uvLPBuMU5oIqxgE+HbLTTgcqcPWtBJfVbrbVtJ4NvMFcUMU4wDd/8Hc1fzDNao+rbyW4rHazrab1bOAN5oIqxhkOPJC4+laCy2o322pazwbeYC6oYpwB3uAKuKx2s62m9WzgDeaCKsYZ4A2ugMtqN9tqWs8G3mAuqGKcAd7gCrisdrOtpvVs4A3mgirGGeANroDLajfbalrPBt5gLqhinOFAIjZcfSvBZbWbbTWtZwNvMBdUMS6Dq28luKx2s62m9WzgDeaCKsZlcPWtBJfVbra1hMPZwBvMBVWMy+DqWwkuKzAAeIO5oIpxGVx9K8FlBQYAbzAXVDHOgPkUroDLCgwA62ibC6oYZ4A3uAIuKzAAE9pkE85xDVDFOAO8wRVwWe1mW135Z4NxCnNBFeMM8AZXwGW1m201rWcDbzAXVDHOAG9wBVxWu9lW03o28AZzQRXjDPAGV8BltZttNa1nA28wF1QxzgBvcAVcVrvZVtN6NvAGc0EV4wzwBlfAZbWbbTWtZwNvMBdUMc4Ab3AFXFa72VbTejbwBnNBFeMM8AZXwGW1m201rWcDbzAXVDHO8On+S4eu/s9/8YshZdsvh19+/oufr/0JwHHgobabJ5tWc55feIO5oIpxmQNX/7e//vrrX/S//c7XX/91/ePvfv27a58uOA481HbzVNNq0PMLbzAXVDEus3f1f/l7X8/rne637dU74BHwULuKUc8vvMFcUMW4zN7V/9XXv/ob83rnb0pP5/bqHfAIeKhdxajnF95gLqhiXGbv6n/9e798Nq13fu9XX/8O/7i9egc8Ah5qVzHq+YU3mAuqGGc4Zj7Fb7f/l3rnnmub3/n6d9uvLBxQtb16BzwCHmpXMer5xTra5oIqxhmOnYfJ9c7973FAVVvvPPubX/8evby9egc8Ah5qlzHm+TWhTTbhHNcAVYwznOsNf+vrr//2sy3WO+AR8FDbzdNd+cY8vxinMBdUMc5wkjc8u6e6huudZ3/n61/9cov1DngEPNR2c4Q3mPD8whvMBVWMM5zmDQLXO7/8Ff27vXoHPAIears5xhuETT+/8AZzQRXjDGd7w7O//fXXf2uD9Q54BDzUdnOiN2z1+YU3mAuqGGc43xvaOudX99urd8Aj4KG2m1O9YaPPL7zBXFDFOMMF3vDzr7/+7e3VO+AR8FDbzcnesM3nF95gLqhinOECb+A895urd8Aj4KG2m5O9YZvPL7zBXFDFOMNp3vDzv0MJWLp65xnlvd9avQMeAQ+13RzjDQY8v/AGc0EV4wwnecMvf8XZYvp65xcbrHfAI+ChtpsjvMGE5xfeYC6oYlzmif6Gv/7133g2qndofd6t1TvgEfBQ282nT75rzPMLbzAXVDEuc/Dq/+IXnCL+F/TPL3/xc/3q/S/6H8HGwUPtMsY8v/AGc0EV4zK4+laCywoMAN5gLqhiXAZX30pwWYEBwBvMBVWMy+DqWwkuKzAArKNtLqhinOHY+RTAdHBZ7WZbX8nPxoQ22YRzXANUMc4Ab3AFXFa7sdobtvXh4A2HQRXjDPAGV8BltZttNa1nA28wF1QxzgBvcAVcVrvZVtN6NvAGc0EV4wzwBlfAZbWbbTWtZwNvMBdUMc4Ab3AFXFa72VbTejbwBnNBFeMM8AZXwGW1m201rWcDbzAXVDHOAG9wBVxWu9lW03o28AZzQRXjDPAGV8BltZttNa1nA28wF1QxzgBvcAVcVrvZVtN6NvAGc0EV4zK4+laCy2o320rFfDbwBnNBFeMyuPpWgssKDADeYC6oYlwGV99KcFmBAcAbzAVVjMvg6lsJLiswAHiDuaCKcRlcfSvBZQUGgHW0zQVVjDNgPoUr4LLazba+kp+NCW2yCee4BqhinAHe4Aq4rHZjtTds68PBGw6DKsYZ4A2ugMtqN9tqWs8G3mAuqGKcAd7gCrisdrOtpvVs4A3mgirGGeANroDLajfbalrPBt5gLqhinAHe4Aq4rHazrab1bOAN5oIqxhngDa6Ay2o322pazwbeYC6oYpwB3uAKuKx2s62m9WzgDeaCKsYZ4A2ugMtqN9tqWs8G3mAuqGKcAd7gCrisdrOtpvVs4A3mgirGZXD1rQSXFRgAvMFcUMW4DK6+leCyAgOAN5gLqhiXwdW3ElxWYADwBnNBFeMyuPpWgssKDADeYC6oYlwGV99KcFmBAWAdbXNBFeMMmE/hCrisdrOtr+RnY0KbbMI5rgGqGGeAN7gCLqvdwBtwjiuDKsYZ4A2ugMtqN1Z7w7Y+HLzhMKhinAHe4Aq4rHazrab1bOAN5oIqxhngDa6Ay2o322pazwbeYC6oYpwB3uAKuKx2s62m9WzgDeaCKsYZ4A2ugMtqN9tqWs8G3mAuqGKcAd7gCrisdrOtpvVs4A3mgirGGeANroDLajfbalrPBt5gLqhinAHe4Aq4rHazrab1bOAN5oIqxhkOJHDF1bcSXFZgAPAGc0EV4zK4+laCywoMAN5gLqhiXAZX30pwWYEBwBvMBVWMy+DqWwkuKzAAeIO5oIpxGVx9K8FltZttNa1ng3W0zQVVjDNgPoUr4LLajdXesC1MOMc1QBXjDPAGV8BltRt4A85xZVDFOAO8wRVwWe3Gam/Y1oeDNxwGVYwzwBtcAZfVbrbVtJ4NvMFcUMU4A7zBFXBZ7WZbTevZwBvMBVWMM8AbXAGX1W621bSeDbzBXFDFOAO8wRVwWe1mW03r2cAbzAVVjDPAG1wBl9VuttW0ng28wVxQxTgDvMEVcFntZltN69nAG8wFVYwzwBtcAZfVbj5d+wSuwvfgDeaCKsYZDtQ2uPpWgssKts9v3t1978DL2/KGV+9+Y+1T2CSoYlwGV99KcFnB9nnl7tuHXt6WN7xy953vXV6KfaCKcRlcfSvBZQXb5zt3rx16eVve8K27u++ufQ5bBFWMy+DqWwkuK9g63/vuI6ED2/KGZ6/d3X3nld9En8MMVDEug6tvJbisdrOxpvV0vvet3/jO3d0rB9/b1jraNFIB9vnLv1r7DMCNeNh/CVffSnBZ7ebh8iI2wGuXt+k34VuvfXvtP9X2MKSK+bfWPgELgDesxR//8W2Ph8tqNxZ4w6uvmDS/8XvfAlP++b9Y+wyO4X/yP137DCzgYf8lM66+8fzPHi4v4xRwWe3mxrfTAjwRL2D8IIwTmDEUasZZbhzkfVqLL29cF+Ky2o3VTavVH84azKhizDjLjQNvWAt4A7gmVjetVn84azCjijHjLDcOvGEt4A3gmljdtFr94azBjCrGjLPcOPCGtYA3gGtiddNq9YezBjOqGDPOcuPAG9YC3gCuidVNq9UfzhrMqGLMOMuNA29YC3gDuCZWN61WfzhrMKOKMeMsNw68YS3gDQAcCbzBBMyoYsw4y40Db1gLeAMARwJvMAEzqhgzztI88He9CfAGAI4E3mACZlQxZpyleeDvehPgDQAcCbzBBMyoYsw4S/PA3/UmwBsAOBJ4gwmYUcWYcZbmgb/rTYA3gGtiddO6tXW0wSHMqGLMOEvzwN/1JsAbwDWx2huACZhRxZhxlhsH8ynWAt4Argm8AayMGVWMGWe5ceANawFvANfEam+w+sNZgxlVjBlnuXHgDWsBbwDXxOqm1eoPZw1mVDFmnOXGgTesBbwBXBOrm1arP5w1mFHFmHGWGwfesBbwBnBNrG5arf5w1mBGFWPGWW4ceMNawBvANbG6abX6w1mDGVWMGWe5ceANawFvANfE6qbV6g9nDWZUMWac5caBN6wFvAFcE6ubVqs/nDWYUcWYcZYbB96wFvAGAI4E3mACZlQxZpzlxoE3rAW8AYAjgTeYgBlVjBlnaR74u94EeAMARwJvMAEzqhgzztI88He9CfAGAI4E3mACZlQxZpyleeDvehPgDUvzrVdevQNW8LD/0ndf+0dr32BgihlVzK9frH0GdmLG1TceeMPCvLZ2Y7d602oPf3zw1dfWvsXABDOqmFtXvK5gxtU3HnjDsrxyd/ed3/iWOzysfQK35c+oM+nP1r7JwBgzqhh4wxXAfIq1gDcsyrfu7r77vbVP4pY4Vxt+79t3r/7p2icBRphRxcAbrgC8YS3gDYvy2t131j6F22J1bXjww/3p3d1vrH1iYIQZVQy84QrAG9YC3rAo3757Ze1TuC1W14aHP9y/vPvu2icGRphRxcAbrgC8YS3gDYtyd/eba5/CbbG6Njz84X7j7tW1TwyMMKOKgTdcAXjDWsAbFuXu7ltrn8Jtsbo2PPzhvnV3t/aJgRFmVDHwhisAb1gLeMOiwBtsAt5gAmZUMfCGKwBvWAt4w6LAG2wC3mACZlQx8IYrAG9YC3jDojjnDZ+ufQJLAm8wATOqGHjDFYA3rAW8YVGc8wargTeYgBlVDLzhCsAb1gLesCjwBpuAN5iAGVUMvGEZzLj6xgNvWBS3veF+7RO4MvAGEzCjioE3LIMZV9944A2LYp833P/gzTfeff2oLd/4wDJxgDeYgBlVDLxhGcy4+sYDb1gU67zhXcV8+P4j749up/ffe+8ovzAHeIMJmFHFwBuWwYyrbzzwhkWxzRveV+rNH7zz/Q/Vm49sML6dXrdMGx4Zd4E3bAszqhh4wzKYcfWNB96wKLZ5w5siDK8r9UiHg4O1IbxhW5hRxcAbrgDmU6wFvGFRbPMGpX7A/3373XfoP/fvfvjh99kg3lDvvPWheufNh4/4/R8oRRvzz++/9d6Hb70j+7/zpvroB2t/iCsDb9gWZlQx8IYrAG9YC3jDotjmDW+qD8a/vcfBDt9/Rt7wQfvTO+88qHvZ7k3tDe9/JBERJA6vv8E/vvf+OYfeAIhvMAEzqhh4wxWAN6wFvGFRbPOGd5TSHQwt31fvvXv//ltKvU7eoN6icIYHtoj796hfgr3hTd6o/bf1iQ/VGz949oMP1Btrf4wzgTeYgBlVDLzhCsAb1gLesCi2ecOztz+k2RRvc6fCe+pt+s8H6i3ub+D3H/i/b6sPn4k3vC49Dc8+aq3ibZYHesnQgEl4gwl8bkQVA2+4AvCGtYA3LIp13tA6AQ02vPcOz634wTstb1H/wRviEK03UMTkR6QS7A0/UO/1e76r3qDt3/lQGRriAG8wgc8+X/sMjgHecAXgDWsBb1gUC73h2bP7t98jVXhHdbzHcZH83sNH6vvP7mW6BXnDu+qjfr83+h3eXfsjnAe8wQQ+e772GRwDvOEKwBvWAt6wKFZ6AyvDO+0/772rGXnDD9QHz96WCAbxhiGY4SP1ht7+nbU/wHnAG0zg4Zu1z+AY4A1XAN6wFvCGRbHMG15/9/vyw5vqI+pVGOIUOm+4f/aeev8jGbSQcQrVb/PuZDKGgcAbDOCbByPWcoc3XAF4w1rAGxbFMm+4f4+nSzx7/z3ShA85iuH+LUrO0HnDs2dvqXcl/pG94X3J+HD/4YfvPHtbhi/e+ej7hq5bAW8wgK++WPsMjgLecAXgDWsBb1gUy7zhWasE777z+rsf6lkT6s13fvChot6FwRteV0pnoeauhrfa397/wUe8wxvqw3dfb1/4EN4AFuL+xSdrn8JRwBuuwIF6xLEGZi3gDYtimzfcv6cjIXlGxFvyC1nC4A3PPujGL9gb7t/iXXiJq9c/kB0MnYYJbzCAr16YIaW/frH2GdiJYw3MWsAbFsU2b3h2//03Pvjwjbd06qd33nrjA0kh/dYbvQz84A09heINCYm8f/uDj95+X+/90btzR6wAAIAASURBVAcffd/UdJHwhu3zpRlRkc5VhDcDf9ebAG9YFOu84WVY3fsKb9g6n7z4au1TOJK/ZsqJGoZjDcxawBsWBd5gE1hHe+P8+sGY1tiQMAzjcKyBWQt4w6LAG+wH3rAN7p+/eDAiVSTxiRmzRTcO5lOsBbxhUeAN9mOMN3z6zXNb+fyzLx4eXjw3IySS+OyvrX0GNgBvWAt4w6LAG2zC5PiG+0/alvUza/n8+Zdfrv0nPoFvHkw6280Cb1gLeMOiwBtswmBv+ObFi68MmWngAPcvjBlQ2TTwhrWANywKvMEmzPWGrx6+MqcP33p+9sUXuBrXAN6wFvCGRYE32ISx3vDVC3SLb4cvX0AbrgO8YS3gDYsCb7AJU73h8wdM+tsMn/zWw2eb1oYvv3xuSoApvGEt4A2L4oQ3PH/+TT+pDN6wPe4ffr32KVjB5fNRPvvs4eHhqy3PwKTJrA9f0Gk+PLA8PPSY8Ss1MBs4Ddt//Z8/bOI08KvBv/7bbTXzxSeGfEW5BEO94TmWQricq8xH+fz5N19u+zn50qTJrOhvWA30NyzKnSP8Z/+L/+V/tvY5LM/DY2+sfZs9zYvna5+B+WA+yhaBN6wFvGFR1m7pwDUx0xu+fDDoG+RGwXyUTXJgxMexBmYt4A2L4kR8gzOYOU5x60fcQjAfxRgca2DWAt6wKPAGmzDTG55/sfYZmI4b81HurRiHcayBWQt4w6I45g1f3lv93dZQb3Drkbs+jsxH+cSK8Fnc7TcB3rAojnnDi+dWe4OZ62g79shdH0fmo3xhzBrkT4G7/SbAGxbFMW94/sJqbzgMvMFy3JiP8umDeeMUmE+xFvCGRXHMG+4f4A2bw7FH7uo4Mh/lGwMfXXjDWsAbFsUxb3hmtzcgvsFFHJmPYuJtAm9YC3jDorjmDV9YXcfCG1zEkfkoJt4m8Ia1gDcsimve8Bm8YXM49shdHUf+fiZOhYI3rAW8YVFc84afGVj5HA+8wUVc+fsZ+OjCG9YC3rAornmDiZXPpR8O3mA3rvz9DHx04Q1rAW9YFHiDTcAbXMSVv5+Bjy68YS3gDYsCb7AJeIOLuPL3M/DRhTesBbxhUZzzBqunusMbXAR/v80Cb1gLeMOiOOcNVgNvcBH8/TYL1tFeC3jDosAbbALe4CL4+5kErtZNgDcsinPeYOAg6aUfDt5gN/j7mQSu1k2ANywKvMEm4A0u4srfz47QJFeu1srAGxYF3mATWEfbRVz5+9nx6LpytVYG3rAo8Ab7gTfYjSt/PzseXVeu1srAGxYF3mA/8Aa7ceXvZ+Cji3mYawFvWBR4g00gvsFFXPn7GfjowhvWAt6wKPAGm4A3uIgrfz8DH114w1rAGxYF3mAT8AYXceXvZ+CjC29YC3jDosAbbALe4CKu/P0MfHThDWsBb1gUeINNwBtcxJW/n4GPLrxhLeANiwJvsAl4g4u48vcz8NGFN6wFvGFRnPMGq4E3uIgrfz94AzgaeMOiwBtsAt7gIvj7bRZ4w1rAGxYF3mAT8AYXwd9vs8Ab1gLesCjwBpuAN7gI/n4mgat1E+ANi+KcNxg4SHrph4M32A3+fiaBq3UT4A2LAm+wCXiDi7jy97Pj0XXlaq0MvGFR4A02gXW0XcSVv58dj64rV2tl4A2LAm+wH3iD3bjy97Pj0XXlaq0MvGFR4A32A2+wG1f+fgY+uphPsRbwhkVxzRseDKx8LgXeYDeu/P0MfHThDWsBb1iUC73hW6+8emcUDw9rn8FpfPu1U64P4iJdxJW/H7wBHA28YVEu84bX1m5WXeCV468HvMFFXPn7wRvA0cAbFuUib3jl7u7jH/4ILMePvY/v7l47+oLAG1zElb8fvAEcDbxhUS7xhrY9+slPd2BZfnLCJYI3uIgrfz94AzgaeMOiXOINr919vHaj6gA//fj4kQp4g4u48veDN4CjgTcsyiXe8O07b+1G1QV+ePfqsVcE3uAi+PttFnjDWsAbFuUSb7i7+/HabaoL/Oju7ntHXhF4g4vg77dZ4A1rAW9YlMu84Udrt6ku8NPjrxG8wUXw99ss8Ia1gDcsCrxh+8AbwFPg72cSuFo3Ad6wKPCG7QNvAE+Bv59J4GrdBHjDosAbtg+8ATyFK38/A+dTHMCVq7Uy8IZFgTdsn+OvEdbRdhFX/n7wBnA08IZFgTdsn0vXHoM32I0rfz94AzgaeMOiwBueplz7BHbwBvA0rvz9DPQGzKdYC3jDomzRG/wmDdP4wgKiyr/CqVSqWuQjngS8ATyFK38/eAM4GnjDomzQG+JCEUX61EbeE6kq64wLUNEl5iAHSFV6QRlXAnGR4Clc+fvBG8DRwBsWZXveELctfhg3iVJPZbFW6tG38raArGqipwt4GfoAG+hugDeAJ3Hl7wdvAEcDb1iUzXmDn6kopx88VTzRX/CEN4Qq4QJaAbkgOuGJA9waeAN4Clf+fvAGcDTwhkXZnDc0vS4keowgj5SOdvDjtMjo55DHIcgOfC/LJJLBU2GcKG9X9boQqYj/W4VFUGoZKCMaAPHT1k4qecVvku7t1jXCIqVi5QBeW6j0WVRJ0QVM+E2WNf5s+/blKmrPLYc3nI5jj9zVceXvB28ARwNvWJTNeUOoAv1TmVMrnCfchGc+q4HK2Bd6b0glFMLjNwtu6oM+JMHnAppsCHZQKqGtvJC3rfkVKYv3iWXTxJ95QyMRF2whKf9cBKPt+dxSObca3nAyjj1yV8eVvx+8ARwNvGFRNucNiZp8Z5dhiyqhRtsvVLzLM1XsumGEpm3wyzJS7eskFUnM4jGJSahbM8h9r2AzaDepOYCi8v1Iv0IltI1+w+Wn7bEyNhc5AHtDTkVQuGZDEyz09tV0+5I0pj23DN5wMo49clcHf7/NAm9YC3jDomzOG/RX9pwhM+CWuG3r/fafoqZeBL9v1rkp3+0C2sjT4xPFVDwiFeoCStqrYrNI6AjaPyIpoeiPVXHZI2/Q4x0xjWwUMnDBRxxv34zODd5wGo49clcHf7/NAm9YC3jDomzVG2QmJXX/R2wQZAPt9/ui6Tfb8Zf8WksBNfHJ7oA3JKIWOx7WGMmA/kXJ2zn9EqqUDhVzqaNNM9UddedLVMVk+5y2b0+luCTlBLwBnAv+fpsF3rAW8IZF2Zw36HGKMAwTaZs7Kh1nEOZ9oy9dBlo2POlYmI9TdCEHIRnAIW+oe61I+mNNFWM0L2N0xNn2fG4R4iLPwLFH7urg77dZDiwYg6t1E+ANi7I5bxjiIhtqo0MVeYLMniCP6MMPulbcH3vDLC5SdxBIv8Mhb8j7EhKV6mOVM2/oox3zbnqmeEM0bN+eW6IuSxkBbwDn4Mrf7/7yIjaAK1drZeANi7I5bxjPwwx5nGL6fplQqIM0692ogR6nEG+YzcNMpCn3Hx2n8PoSwnFyyMPjFLvxEaN5Msm66Loj4A0n4Ngjd3Vc+fsZOJ/iAK5crZWBNyzK5rzBz/RIRKz0/AXSiDxq/F2V0ghEqcMPqA9Apj5I7GPnDbO8T6mEPVSqKA97A7+t4xy51Y/pWPoAvKkuwqPM1/qIqd7e77avIopuqBeZiIl1tMFTPNjRoL78c659AlcBd/tNgDcsyua8gadJJpWX6RY9U1lD8x4Tnk8R+7VMkEhUUftkFWFeZdwJ0HvDNM90WbS/5KH8csgb9NsVK0vStOVzQSEfgDctaZuy4dme8eiI/fYJO0Ts51F3Dit5w2Gs9IZvvfLqHWAeHtY+gxt9zpdu8e3XLntSNnu3g1OBNyzK9rxhl0uWJRXycINepIp6C3ZRH4VIxkBNuiR1yqrdyBv6XVIe8IhDSQ01zN6cekPQZ46icQb+xe8PIJtKEdLTMDriZPtwODd4w2mc88i9tnYjBm7OUXr0ytp38wTMp1gLeMOibNAbeBnsMIj738Ikqtgh/DhIunTPdRo2ogV6EkMVBn0BVTBeiLtOEz3FIgxly6r/pZWHuH+b4i6zVI61q4P2AHpTKiLoRiD6I/L2id7er9L2xyXSN8Ab9nnl7u47v/Et4BQPL9vgN1/5zt3da2vfzmPgDWsBb1iULXrDLdnQ8lWPgrjIA5/ou99b+7TBjTmmJfjupZK9+Ck71sCsBbxhUeANa5/By4E3zHnt7jtrnzS4Oce0BN/7zqZGKuANawFvWBR4w9pn8HLgDXO+vanGAdyGo1qC37h7de3zfPqUHWtg1gLesCiue0O4xASIKwNvmHN395trnzS4OUe1BO3NvqERLHjDWsAbFsV1bzABeMOcbQ1ig9twVEvwvU3dG/CGtYA3LAq8YfvAG+Zsqm0Am2JT9wa8YS3gDYsCb9g+8IY5m2obwKbY1L0Bb1gLeMOiwBu2D7xhzqbaBrApNnVvwBvWAt6wKPCG7QNvmLOptgFsik3dG5/uv+RYA7MW8IZFgTdsH3jDnE21DeBGHNcSbP3ecKyBWQt4w6LAG7YPvGHO1tuG9bi/vIjNAm8ARwNvWJTLvAHcBqyjPWXrbcMlvPVGy0fvvn2WAbz5gcXiAG8ARwNvWBR4gwlgXaspW28bLuENWVhVvfeD0/d9/z3V7vX2u++s/SEWAd4AjgbesCgYp9g+8IY5W28bLuEN9eY777z95nvqwzN2fv0dLuHdtT/EIhjoDZhPsRbwhkWBN2wfeMOcTbUNV6Zr9d9T5/YawBs2A7xhLeANiwJv2D6Ii5yzqbbhynSt/pvqTfrP+2+994HEOij17PsfqDff19u9026gzeL1tz5Qb3z/nrd55x0e5XiDXv/BG+/pzZW6/+g99exD9X3+9S153zDgDeBo4A2LAm/YPvCGOZtqG65M5w3ctt+/KcEOFOuglPzyBgnCOx/wzx+83v78PkVDKPXRs6k3/OBD+el1fp22f/au+oDL/lC9vfbHPAN4AzgaeMOiwBu2D7xhzqbahivTecOH9N831Ydv37/+kXrvntp+9cY79+++p97idz98+9nbH3IQxJutMtx/xHKhaHBDSrh/j/ZtN6euhVYsvv8+GwZZRKsWJk67gDeAo4E3LAq8YfvAG+Zsqm24MhwX+c67H1AT/76SIIf3aHxBSWfB20o9e/Z9+ucZvfY2vUsm8br0K/Te8K4EVr7OqqB4E3qL/quHQEwD3gCOBt6wKPCG7QNvmLOptuHKjOdhvqPee4f4iJp73fazS3QBCm9Ip0Qf9TDyhje0HHwoziEbvM0ycX7IpQFs6t6AN6wFvGFR4A3bB94wZ1Ntw5V5Q334xhsfcEcCdSto3qC2XzI6fNi2+m/oAMd36Y3XKZDhw7d1XGTnDR/qzd+k33T3BCnD689+cNYUT1PY1L0Bb1gLeMOiwBu2D7xhzqbahisjrf4H3KHwffXhu8LbekzimfQWdEEQ70q/w9sfvad0DMQ7Qwmy+dQb3lRvySvWsql748AD+blbDcxawBsWBd6wfeANczbVNlwZafXfYQOYBDAqGXjggIVuYsQHvQK8yVpxYJxCx0bozV5XH7avvH/cqRjJpu6NAw/kZ5+vfVJOAG9YFHjD9oE3zNlU23BldFfCG2QG77/HnQbvv/nW+9T28/DCu+o9Do6ktv99koX33/pIdnhTewNHQzz7PndAkHq8PvIGmqbBMzatZVP3xoF1tD97vvZJOQG8YVHgDdsH3jBnU23DldHe8A73H7SS8Obr339Pt/3qw7ffeUPpUYj33n39TY57uP9Qvfn++2IS7A3tj99/nV6WTajbYfAGCpl4e+3PeB4Gzqc49Cm+WfsMnADesCjwhu0Db5iz9bbhErrQhY+oe4HSMhAUBakU//Leu9SN8LrkgOJ5FD+QbcQP3uHMDbTv67L5mxIv2RV/r6i/wkis8IZvHj69vBDwUuANiwJv2D5YR3vOxtuGi3jrjbf5v++/8QZNiPjBmx+88S6lZiAnaH95t7vG77/b//zOu298INu8wdkh3//+GzwU8f5bH3xfNnljyCv9hpnJG55Z4g1ffbH2GbgBvGFR4A3bB+tazdl427AM6ipZF+7f45SRJmKDN9y/+GTtU3ADeMOiwBu2D7xhzrbbhoW4jje8YeSSVowN3vDVCxMzfBsIvGFR4A3bB94wZ9ttw0Jcwxs+UOo9YydhGugN81P+ElGRNwLesCjwhu2DuMg5m2obboXELlxYxntvmpti2nxv+OTFV2ufkSvAGxYF3rB94A1zNtU2gBthvDf8+gHacCvgDYsCb9g+8IY5m2obwI0w2xvun794QKrImwFvWBR4w/aBN8zZVNuwRT795rl9PBy11V/+5T9f+0T3Tvnzz754eHjxHCGRtwPesCjwhu0Db5gDb3iK+0/aVuozV/mrv/oXa5/CQHcZPn/+5Zdr3xZuAW9YFHjD9oE3zIE3PME3L1585XDU/qbujRs3XqAH3rAo8IbtA2+Ys6m2YWN89fCV0/3hm7o34A1rAW9YFHjD9oE3zNlU27AtvnrheIf4pu4NeMNawBsWBd6wfeANc+7AI/yvHv7Xa5/CYvzxkdvBGwC8YVngDdsH3jBn7RZss/zxw/9m7VNYjocjt9uQN4C1gDcsCrxh+8Ab5qBteITnL9Y+gwUxMH8DWAt4w6LAG7YP1tGeg7bhEV48X/sMFgTeAI4G3rAo8Ibtg3Wt5qBtOMyXDzZPpYA3gKOBNywKvGH7wBvmoG04zK0ry9sCbwBHA29YFHjD9oE3zEHbcJjnX6x9BktioDdY7XGbBt6wKPCG7YO4yDmbahs2hN2VF7wBHA28YVHgDdsH3jBnU23DhrC78oI3gKOBNywKvGH7wBvmbKpt2BB2V17wBnA08IZFgTdsH3jDnE21DRvC7soL3gCOBt6wKPCG7QNvmLOptmFDOFZ5HWRT9wa8YS3gDYsCb9g+8IY5m2obNoRjlddBNnVvwBvWAt6wKPCG7QNvmLOptmFDOFZ5HWRT9wa8YS3gDYsCb9g+8IY5m2obNoRjlddBNnVvwBvWAt6wKPCG7QNvmLOptmFD2F15IS4SHA28YVHgDdsH3jBnU23DhrC78jLQG8BawBsWBd6wfeANc9A2HMbuygveAI4G3rAo8Ibtg3W056BtOIzdlRe8ARwNvGFR4A3bB+tazUHbcBi7Ky94AzgaeMOiwBu2D7xhDtqGw9hdecEbwNHAGxYF3rB94A1z0DYcxu7Ky0BvwHyKtYA3LAq8YfsgLnLOptqGDWF35QVvAEcDb1iUy7wB3AZ4w5RNtQ0bwu7KC94AjgbesCjwBhOAN0zZVNuwIeyuvOAN4GjgDYuCcYrtA2+Ys6m2YUM4VnkdZFP3BrxhLeANiwJv2D7whjmbahs2hGOV10E2dW/AG9YC3rAo8IbtA2+Ys6m2YUM4VnkdZFP3BrxhLeANiwJv2D7whjmbahs2hGOV10E2dW/AG9YC3rAo8IbtA2+Ys6m2YUM4VnkdZFP3BrxhLeANiwJv2D7whjmbahs2hN2VF+ZTgKOBNywKvGH7wBvmbKpt2BB2V14GesP95UWAs4A3LAq8YfvAG+Zsqm3YEHZXXgZ6A1gLeMOiwBu2D9bRnoO24TB2V17wBnA08IZFgTdsH6xrNQdtw2HsrrzgDeBo4A2LAm/YPvCGOWgbDmN35QVvAEcDb1gUeMP2gTfMuVHb8K1XXl17ZZLT+M//i7XP4DS+/dop19FAb8B8irWANywKvGH7IC5yzm3ahtfWblZd4JXjrwe8ARwNvGFR4A3bB94w5yZtwyt3dx//8EdgOX7sfXx399rRFwTeAI4G3rAo8Ab/hE0976pHPvLQ8IY5t2gb2r/aT356yxvRSX5ywqWEN4CjgTcsykreUIXVZfVN7oVhUF+h4vKT6GhzqFRyhSMOR06OOzK8Yc4t2obX7j6+4sUGh/npx6eMVGzl3jgaeMNawBsWZSVv8NTj39wrr3zZ7n6qmCy+oMrKvbz9ty6Klx6uI1PNBcc7cOTjxAfeMOcWbcO3767auQQO88O7V6973eAN4Bm8YWE26A2hyl+2e6JUEcRBpooTRhkeOYf66F6LWKkLDnf+keENc27RNtzd/fgqFxs8yY/u7r535esGbwDwhmUx0hsqpRpuwTMVnF9jPXUOB0lVdP7RLjgyvGHObbzBhuidzfPTa19LeAN4Bm9YmOt6Q+lVo5+LLJVxhDrKVNJFI1RZkebScvpporpt4jRTUUNtKuHtchXGiQrbjYJ+o/b7flSo3a7o2t1cKR5kqNN2a36llY6gPVi+a3fOAnqzPVQcqT6eogyKhKQj5+OEVOhOF9GdYhwWKvR010KVFIEeyMhU3H2yItXllWmhi26P07RHjtvdVdEfOS2SavQHacruyKo/cltEFogqxe3HS4LuyGGR8pHv7v63R14ReMP1gDfchuOv5aebuTeOBt6wFvCGRbmuN+TUEDMUgVC0rSM1mnX7Q9b+Sq1ylXGjGVHL7yf8Om/TNqZFQb4weEPG7Tpt1BWkVEINbj2MF9R527LW4RDsELZFt5sXFe9F/QMe79S+ne+GwIhq5g1URNGdouLT4qDFppDTpZ99pdgrdBEU6lDqI1f6OFREzCWF/Eq4f+Rm5g26CNUdudBH1n+osP18d/+levu4KwJvuB7whttwaW/aGvfG0cAb1gLesChLeUPb/Kel31BLXBbtj7syYVUoqJGlNtGjKIWkpvaU9gnbF6gJrbtxirZ1TUgEZKOAZzK0rap8YZ9Oa2i/33t+LMEOITkBFdQ2uBKP4Cl9yGxHbX77c92qRdmPFnDrzUWUKTXZMQ+CtG7SnkX7b5j7XvsB5IyGT1bxqUa0Wx5yr4dHTuBHfOS8e0WOXPBpZJVfBvqN+ZEDlfm0Fx25oG6NsjtyxN7w5nFXBN5wPeANt8FqbziuiwRcH3jDoizlDdJBsAvStnUt+ceG3mtFQrZjiajoi3VNzaevex2oX773Bj1qQK+V3MYqCWfw+qMwtd6Sgx1CdopYXkqoUE/GMtojxFQMDwgUqpm03nq8w49ojKDm0QjuEYnkSDG/XbF5yL7t3mmu5YKOk7IYyMlIt4cMudRyhIZ2q+QkvcmRu5OPaGSj5COn9G4qbsRv3939V0deEXjD9YA33AarvQGsBbxhUa7nDX6e541K2n/rIfBgeLPiYIUutFD1EQpxpL92qy6MoPOGoVOh20gXOvOGRtrzXUAvh1xw3zXgde05Ne40+FHkRESKMWq9u206yrwppEek0aebd4ftGnoiFguSd8adCN2RC/2BhiPzH2C0aaW3mRyZP4dEfJJuYB3tOfAGe4A3gAWANyzK9bxBD9tL0MAkQxJFNurXQ90Q87f5XRN2Q/27POviBHpv0HLQRP1GOpBwNk7h8SgCteLZYW+Qt4O2xW7G5zhqvdPxvIw6zXSMxa5zhFAKirjobHTkqPvoh70h0puF1GVx8Mjd2cmRg6zbpNCTSugPhXWt5jjrDdeZB7yNo2jgDWAB4A2Lcj1vKD3PS1XW/lvpNrwjVSrxmmroDpAv/xQGmAVerW2giigkcDf3hni0UTf1YRoX2TXP1WPeEOmzSKlrwhOqSesdjFvvtu2OvCoQb8j16TZ0JiEXPXQQeP05Foe9Qd4O2BuKg0f2xnM7Q31k9gaZuwFvOIRZ3lB60XVym+7S5MgcZUFIeNVZBnD0Ua4CvAEsALxhURaKbxj35tcyvMDeIPGNFGzgUQNN/QultoEdC0Y89wbJ0eiPvWFI28DDIV1Xf/rYOEWhd6LRglHmplHr3Yw0R/+cyjiFp08374yhHH0yfRgZITnkDfI2lVKPB24eGaeoKDiyH2+Rj0h/EXjDHKO8QXdyZZekn5QJzmWijkyQqjvyVHFGOnc5iuQ0vQFWewPmU6wFvGFRloqL1CkWwrbiauQrdSjjF9xwx4qbUm4yuXXNU24mWRJkLEMXpfsWvIk3tKVwegWfowx1dKKvd973Bn6bt/IlqLFM6euf/qqvoxO5iCKr22/4LCqFjk7kOZE8/2Inp6KlJSwacgiql/1kFi4xHJmqedmq0Bkrgnxy5FK2aY+cd6MlhVhIJkdudePu7n930TWGN5zDtbyBJhZHMQ3VXdAQ66fBPzaveqjSPI/TYhY9cxx8lJOzop0LvAEsALxhUZbyhobmEeYpTUGkuRJ+nEpOg0wVXp0qPQ8zKOug4OazbdDL2uMZi0G7fdkX1daA3Ua9N/DXqZSrRWpc2+LS2iu4pT3oDW0lmnYpFYq0pqQMNctLU+tCIyoiZrWJVRb7Vchn2J5W4cWhjuKUsYOKPlmddqcaxl6hJ1oe8AY6McUdGA2dRVXonguVdkemky9jngaSqyIu6cghe4scuVWJu/898jdMMcgbWjGMuKcpnUbznkZ+4s7deGB2bAfFHvCGawBvWAt4w6Isli/SkxA/+o4lGY8SmY7APahFoOMb+HVqPnVnLtVVJUcGjuIb+o2GEY1ANk/4K5wfcHamqN49Et/Ab1NLzfkVuqRNO8rSpAv1U96mkA4FOSIXJKcrySNTiYJoZAPuJvB4tzDfHfaGdDix7pS9nT5Ed2Q5ee7QSEZ/qDzqj3z3f1AfHHdF4A3X40re0OuCr2fi+l6WSdwB5RNNVNbs6qgo+PZsb/o66N5uN22yzJOeLokM1inYx6lY01Eq1taOU+nU6LwhkJ6tdodEMrO3JTSRPAuyu4p0N0jttTceb9Ru02dF4xtRb64UPSb9EFozm4S0uDds5944GnjDWsAbFmXB9SmqKGpkTD9Ok7TqnKJMw6bUK0IGSdT4HldxuRd2m5dNGAwKMtrIG74C1V4UNn3EgF+FehZnxQWXXZk8KOC1BabdtnEahk2t94oivyvUb7eR+rp9OQnybny3Pd0+UXTX6xv3n4yyQeui9Q5PHDkIQ284ctkfuRodOaMjV9Mj3/1b/8f7464IvOF6XMkbiv4bf0kTlLVEF3w7a6ONxRx3PFlHfpYUIZKsNJ15w5DzVFKxdtaZa+0c9Jna9mS6Q6izp1Ie0j7RqozRcZZUycE2eEOuZ/hQoYrzn3Z5TPpJyhcCbwALAG9YlJXWtbohV+xwDdVJYWbXOjLWtZpjkDfM1lDlbKPUi8VeqQLfD7jhliyhuRolIKUpOGXp6ZGtUG7A/EAq1prDfHbZKC/qMG+JI2+yhpKhkl2E4wyoCfkL7cHDbBGfS9UfheNxKL8rbS7pWhX1fvh9wNBVpl3AG8ACwBsWBd5wAvEswfWNjgxvmGOON+TD2Bqjs41yOlCPncKXUTOeCpzrNKvc3IsN7CIaahh7Q9GlYs1nqVj5SL5u+lNKw5bwcNo4VWkonQWcAbVbF57PKWOTqOvdxBt0fldOtrpTerayjNcFV1odFt4AFgDesCjwhpPKOqkoeMNxOOQN3fzkWHJ3sAyoYd5xl2Y1kAXXKsow6knIbO8Nj6ViDfpAYm86D3NIkhqxUPBOdFBPa3BErwVd/ObEG7r8rsk4m4mkSc1O63y7wt29nXvjaOANawFvWBT7vaEKr1O/rXdkeMMcc7xhNk7RZRv1qfE/5A3yNrXMdZ9hVE28YZJSzff2UrF68ksWhqH0XkxSlXZDbRScEOkAR86swuuyZp6Oi+y8oducOxf6maQ0SyM/a4rnAnf3GvfG0cAb1gLesCj2e4P5wBvmGOQN07jIrrUtH/MGeZtCD1tv0BlGvce9gVKxBtNUrIF0K0irL4u8jZKkdnZBvQVpPzFCT5wolI6BGHlDowtNR95AvwXj1Oxr3t1r3BtHA29YC3jDosAbtg+8YY5B3jCdh9llG60eHaeo+53UKPfCyBvG8Yi6uGo8TpHIOIWejlzN1pgL9cRMGacQA4n6LOuBkp33ximy8TgFTyzKhrSp697da9wbR4N1tNcC3rAo8IbtA2+YY5A3zPI+FaNgx4PewLMYdAgjN+e0YDsNYPQjCF0q1uxgKtZSx0Xqw2S7LhZTUpWGkqOkof9oS+FIyjKIJIVa1HsDFa0LlbCMIeNlW/xpIcIL3t1r3Btg88AbFgXesH2wjvYcg7xhlmeas41W2Whh9pk3tG/rBKQ57Uf5Expu29Nct+jNkLCU5jn0qVgTnYpVUjCwN5TsIa0k9KlKQ5rpWesMqGGXaJVVJa39qlDdUXQ21WxU6OANlc4Gcdu7G94AjgbesChb9YYjF/IrvRNyz9xylb9rgnWt5pjkDbtGcjNlOmyREyklsgTEvjckSf82GwdJB/1M2UNrnS/ysVSs8gvnGeuCHSQdejqkKg0V/1Kk3Deh95BUlX2KSDmKZFPtCvV3Y2+gJFHXWmwb3gAWAN6wKFf1Br9Jw+i8tXtnVEcu5OefsFpQWgwjsnV4wWIBtwbeMMcob5ivo12FOhl0FcoKaZyMsaZfWnnwqyjsbuk6CJNAghzo5XoXhLXec0jFmqVVLQW1B0okI3q7oc45GoYxb5Ukks60dYI66Lbi+Rie1um6CXXCajlK2YQ8dFH2m4dh/yGi8cLzt7q74Q3gaOANi3JNb6gT/QXpEnPwuB4Ljq2X0qOzz/jJJM5MHbnbBoA3zDHLG47n1OWrTie8ZFXOHv/89bL2gDeABYA3LMoVvYEmnGdVFRUXfRfRHQjHjp7Gx3eYjhchhjdsCHhDhyneEF0tKtJyb8A8zLWANyzKFb0h1MtTdpPJzuOEgQfmvLR1lnoD5lNcD3jDY0isxbWAN4AFgDcsyvW8Ie6niXczyauw0ItBKuVHFIvlp5mSkdf2lSZR/VqReaiieNflx/X6FM1VoiJZANgPQlVEOgqSFhLWcRTdiEZfHXbL9em57ZRet1tbmP9bpyppYnjDdoA3dHSBCssRhJe3+O1jfbVRCuSZBosAb1iU63mD1w9P+DnPOMuGBXtpBd5CqSCif3loVKlI3qbWnyabUfi2P/MGHYlOFuInvAl3LvijtYg7TUj7bgdf58tp6I1ubWE6IVmEONQR6PCGzQBvcBl4A1gAeMOiXM8boukqTmW3YC/FLSqV1Rz/0Pi+rKbH07/obY9ndUU5dy3sunEK9gYuQq8SnFIJvmS4o4WEfb0WsR5x8JMh7a0cgDPwz9YWzql7Qi9UDG/YDPAGl4E3gAWANyzK9bwhmY6cphI61WWaq/ilTF7ZcQ8Evc3r9Db92r67iTdEXd58Gp2IdWq7sitNT6XwddK7IY9DzHPWOR2vXlt4x7lz2Bv6hYrhDZsB3uAy8AawAPCGRVnMG0LdAUBZ+fWigDpoQesB/8yteysAvNBvIQ177w3JbB3qPI7UaCHhShYB2g+k5FDJYJTJV05mvAhxAG/YDvAGl4E3gAWANyzKYuMUXXMeyYo49OPUG+RtcoWwX+i3mnjDJGq7iQqdJa/Sk8BKsZFkzxs4tT7PMO/S5jWyYGA+WqgY3rAZ4A0ug/kUYAHgDYuyWFxkt37wo94gbyv2hkgv9JvPvGEwglypLPXy8ULCpZQ6Xu1v173h19wZ0XV6eIM3dAsVwxs2A7zBZeANYAHgDYtyPW/I+2Y+lVZammwWhEPeEOid/GnOx5E3hEOso+458IvRWAPHRnT2MCFUccD7dqv2Jd3ywHW/UDG8YTPAG1wG3gAWAN6wKNfN+8Qxh5L3yZOVfysdyUhvTL2BW/SA+g70Yr15SJkapCPCkzkUiaz5G3VjEpUaLyTMupF3oxajM6lUmrAfyNH7tYWHfTN4w3bYqjeA22CxN4C1gDcsyhW9oSxo0b8mkq4Ev1CFF4fyyyFvUFlF8yErbsWzpo5EJSJVxKVsykXUDUdWRiqty0DWAm66tYjLXR/6OF60qrWDQtsErRScp6Nl/rxuXyu9AetoX4+1W1N3gDeAqwNvWJQF1rUqZF0rTpJA2RIe8QZvyN1US4qogjwgVqQasqkUwXETssxvkowWEuaV/nYJm0frLONMe6mebtmvFFx23rDzOLyysdMbDgNvOAeMU9wGeANYAHjDolx1He1dFYSjFLRlqlfz3XmsB7ks5cu/tO123L6t16TymyhMKxlqqIOw6TalIvQKxGWThI1f6VV/qyjVL3OyBtprfB6lN1opONQ/6339JgxyfUZmAG+YA2+wB3gDWAB4w6Jc1xuO51rf91NlkACcCbxhDrzBHuANYAHgDYtiuDf4xd4sTPuAN8yBN9iD1d5w4JR//otfDGFIvxx++fkvfr722doEvGFRDPeG0jtnFW3DwHyKOfAGe3DMG37766+//kX/2+98/fVf1z/+7te/u/bZ2gS8YVHW8oYwXLu+Mgd4wxx4gz04lWf6l7/39dwbut/gDVcF3rAoa3kDOB54wxx4gz045Q2/+vpXf2PuDX9TRirgDVcF3rAo8IbtA2+YA2+wB6e84evf++WzqTf83q++/h3+Ed5wVeANiwJv2D7whjnwBntwyht+u/2/eMM928LvfP27v/P11xwQCW+4KvCGRYE3bB94wxx4gz0cfy0/3cy9cTSHHkj2hvvf44DI1hue/c2vf49ehjdcFXjDoizmDf7xNcetyK87+eJmnxDeMAfeYA+OzafY94a/9fXXf/sZvOHKwBsWZSlvSJP6hLrjRPIwzCcvHDc7I1PX9Ia6uNUUUHjDHHiDPbjpDc/uyRXYG579na9/9Ut4w5WBNyzKQt7gJyo+pfI4jVTWrNj1qav3skFUXr63Vyxral6OxwmrA7101vLAG+bAG+zBUW8Q2Bt++Sv6F95wVeANi7JUf4O/oDb4qugUYLxU1pjwQPrplNfdvgK8KGfrJst9winwhjnwBnuw2hsOsecNz/7211//LXjDdYE3LIqJcZGVSiM95HCKNxTX6gLR3nAzsI72HHiDPcAbqK/hV/fwhqsCb1iU63rDkPaZF61u//ESFUlzXTaJSvRylr6XFSlvqpQfFdzqV0nBa1xmquFtAkVBC36TZQHv1CqCl7EOhCqu+E1ZXFv13lCmRUJLbMrrtEXcFq7Xw8xVIaeWp/157OKwSOVHPpEi9XdBpmSdzvaV9pTTbv2LPJJPwut/t+fhKQmqqEIVNnwEPwhVEcnZtx+xyPRyn/6FoR5Yn2IOvMEe4A3Pnv38669/G95wVeANi3Jdb8hVF6CovSHhRpbXuM4UDS8k1JSmhW57qXFOuOVvMn4paX9S2U62b1tgT7akaAZPZbJP2TbovqL1rKbeUEbyazx4Q6XkoDven8+tllMqSAdiOWhY8omEfKSUduDejPYXeZtOOe93m3pD1Z83fVzel8TBl10L+oh+UlwmDvCGOfAGe4A3PJN1KuAN1wTesCgLe4Nq/DJgEaio/fXYIdrWPC39irv727a1KdkF2peaom2P2x+pma0phCFvW96y9MgFaN+I29+G4hQiGYgYj1NEKqmoVyDzu3GKmI5PJeX8NsdSZiqrSDHalr4sVBb7rZqEXERW7+q23fd8XyIhSBlyetvj3cJ8VyV603ynPaSkbXZ1Rh8rUEW+8z3u1vDo8+Qhb1lfOkACb5gDb7AHR73h53+HBhU7b3hG61bAG64IvGFRFvYGan99FoH257Y9L6nll5Z416Qxf6mnnyOJWfRIMSLun0jpjUS6KlIq1tP9EDKdspLfRt5Qi2/4LBk6vqGOpXAZ3aB/K4mo9MPA34nQ6B2lnyDll0reSPciVNwdIoMcOXdzjLwhlW3ykHaO9fFL+ohNf+L6LG5Rsx4G3nAO8IbbYLU3PDqf4pe/4mxPvTf8At5wXeANi3I9b/DzPG9U0v5Lzaf2Bo5h4Ba7bX51Sgd/HFeof06U1+6YcxsdcxvNX9KVquhlVgZPHEI6IrSMjL2hNQnaNuejDXGRZd4UXVQE7zDMngx1iTwiIj6hD6K7Qvhn7v8IVMSFF/JG7w1dER11ntK7NcsDd3hsoGaFN5wDvOE2OJVnmpD+hr/+9d94NvIGWl8b3nBF4A2Lcj1v0MEGOiCxi4vc7XQj7oc83u+PAhQJ7Q39vmQDpAwxqUI5vNwrAvUSeB6FSErQQ+8NXr9tNPQ3pFkfScFN/mSiRabHD1J6TVr4vjzWg1hvlu/CvvBm4g3FeGpFFUk0Rt5+ROkb8bU/3KpmhTdcD3jDbXDOG37xC5729Av655e/+Ll+9f4X/Y/gCsAbFuV63lC2jXnKbTp1Mux5A81joNBIalRHX8J7b0g9oSQzCNq2PGBv0K96gzcUXQsucQQjb8j0tlV/yPaAkVcFur+BzisadRB0+SOjx7yh0gckbwh14fnMG4YxiLo9pdSLQ/YGUaPyKqmm4A1z4A324Jw3gFsAb1iUheMbxt6wk4jI4Ys80Y9TNEMpZfttvVAyyWFIrqSb9LhziYLeG3lDPO7GkEPqqRncn7ATe5iOU0jWSS7pkDfw27Uep9jNznlvnKJ3lbyL7ZTYiBvWrPCG6wFvuA3wBrAA8IZFuZU3+B5PZ+TkzJmOhSz6Pn8dj7hrIvaE1iKkoC5cMo37Jj3tUkzzpAdPNqDmuRTJKCNK9yDteSRzIgttDLRpLC16WSQlaQVPsdTBjnykiTfwOQXkI5UMOOScqUHpSAkJ1vS51IheppJlmogO/ZTz9y/sczj6Gv3X8IbrAW+4DTZ7w/N/e+0zcBZ4w6LcrL8hVFHtxzw00DbUWVy37XHde0NZqLCieYssBZXOoEBbRlWecYCCNOl+31nBy03U7R61bvTbAoPaK7jYtoSmpiCJ3K9CiW/QMQd0jLpKqEFvhaLwar3YxSFvUBmfE72UqKyhTSn/RKqKuBRvkCIanj7RikxdehnvW9H8TMrtUFP+huQycTj6Gv39/9PBl+EN5wBvuA02z6dwrDHZEvCGRVk6X6T87LEZENx262RJklxJAgsreVta2FYOCmlqmz7SUTfp1TAawdMgsiHvk6+DFyspQXo2uFAxjkJ6GiQjE3cT1JwpqggkO+RuN/eGqM/dRCka+BcqIudMVJL3KQ/7E6zlYAl/IsljlZDjxOpW+Rv+/h8dfBnecA7whttgszd8g3GKtYA3LMpS61MEYa3/of9QU143URh0sw/yKGz4vTDUuRRLLwzTWH8x98IuIqIOwjDgZrfiUoZ3dk0YtDZQRVHZraNdpWEkxe7KJoz43STIZU8JtdxRBujhQGUQ6mTQUoTelM+qlYc41SmkKeF1FEZV2Z2U124qxZVp97HKJgm9Un/oXRWl+tNWF66AdfQ1evhvDr4MbzgHeMNtsNkbPn34Zu1TcBV4w6KYuK7VmZRdJ8aR3Hr5qkc59hr9Nw//54OvwxvOwbC721hs9oZnX3y19hm4CrxhURzyhl2kTvrib5w3/F/+vcOvwxvOwbS721Ss9oZPXqx9Bq4Cb1gUl7yh9uz2hj//vx5+Hd5wDqbd3aZitTfcY5xiJeANi+KSN5xIH3qxNkePU/yrw6/DG87B8rt7M1jtDWAt4A2LAm/YPljXag68wR7gDWAB4A2LAm/YPvCGOfAGe4A3gAWANywKvGH7wBvmwBvswX5v+PLF8/u1z8E54A2LAm/YPi+9Rv/qj/78Xz/xNrzhHHB33wab80wL989fPDx88dnP1j6PrfLll8+vL1bwhkXZqjdcYRnJ2xF7x8+8OGOxiiev0X/99/+9h4c//6N/9cR1gjecA7zhNtjvDc+kaXwguH186Hl2o18/nb550q/3p/x68jneP0x/P+XXh0d//bT1hsmvk3fvT/n11JO64p/5Omcx+/X/9uSvV766h3+d16x+k4ZRdY0mPy4uzLEo1GFw8j5pmE5+1ykknzxbSZ99DJPFKqrjTu/ubv/y0y//in/6oz/61//66UoL3nAO8Ibb4IQ3gMdYahAH/Q2LcsFTtucNdaJXk7jEHDyPcjkHKr2gjJaKixnW2RqKf8mOpZKlL/ttPTXbpdwvozg6o1RZFMPsTm/v9A5yd/d/v+gawxvOAd5wG+ANYAHgDYtyxXGKmheQrCJ1UZuvsy1d2t0gS2rte4MsX/UEgSr0OhbTpa4G8v0y0uMEgP9Ko6QQR3sD4iKnwBvsAd4AFgDesChX9IZQln+kdvWChElXytJ4tjdkqh91ON4balrT+3TgDQy8wWXsn08BVgDesCjX84a414VAN4dVWKTS5d82q5EqUt9PMyXhAu0rTaL027wcdUrSIatSe31jXYUqkhUp/SBURaS7IUqvSA70SNRpojJahdLTxXTeEE+Kz7vSGjn2uIi8lYaMnWPvVJIiradl0NFkiexMBir8XphSXlqb/yrzP0X3gaMK3sDAG1wG3uAqiybhhjcsyvW8weuHJ/yc2t0q4wY2pOay/Y8qlApS+lfF/Eo6xELk7abtG5k/a6wbXQSVmfAm3Dz7smsxDzOoC96mqGfeEEsxffHt2Y1KqybDKrTYtgRXHDyVZPCG7oxYHCIe2/CTPngh1z0QKZU1/VPs+kiQBN5AwBtcBt7gKosu+gVvWJTreUM07c8v23Yy972Cv3e3jXbN8Q+N73NLuiNlyMuUGuad326Ut9/n9aYkHdxYcxG7vKCfAyrBD3gIobWCtGy/sM9HNDIVlbsy1K1+P07RFp/W1HYHu+7rfkBy4Xuq4J9HMxx2haITlQW3R+MU7bkHpd/wqehxikQlNSlMKBvRf1pxiYeTod4Mn7yiLCZ/Cj67wvPbDwxvIOANLgNvcJVFFxmHNyzK9bwhmTbjKX035wa3psay4pcyeWXHPRD0dkNNdyMBBbF+o/eGSLbJeTwhpm/yPs91kNL6oYAen6eAxnzgkTfo4itdPG86Km3XjLSh4m31qMPIGyI5lkdla2+Qo9V6HEJ/2l4b2qMmXXmzP0X3U/9HuF7Nehh4wznAG24DvMFRPn3AOIWxLOYNoZ6VwFMUpdNeRwro9pt/rqnpbgUgJwoqYeQNySwiMY8jejfXEyUr7i6Y4uf0LX438Yb2TKj0uG+2hTqP9mMwZbwhEEsYeUOmPCqD3WMUF8lnxD/sxUqWfJbcCTP7UwxnHsIbCHiDy8AbHOWbRVt2eMOiLDZO0bXJ/PJkZsKoW4Ha0lxHDCiJNxh5w2ReRhMVOrBAf7enlnk6icH3dEm7iTdkffF57w1VX9q0BKVSz/NSMZPRWfdFtKfUOUIzHK3rdhgTqUb3aHSjF/2fwtM9JYiLZOANLgNvcJRlW1p4w6IsFhe511jOvUHeVuwNkSfkM28YmvW2sc5SLyYd6OZJlvO22lMqCbxm7g1JX3zZncmotAlNrwfNbuYNaV9G3g1NqCzw6q7AZF4fkt5ULAYHvEF8IYA3EPAGl4E3OAq8wWCu5w1D2oZUjw7wLywIh7wh0Dv500CFkTd0RRCh7FuMxima2TiFz+McOkxiMk6RjouflTYhUSHLQcRqMjrrRDXjD0pHkyCIstto3wAKVUa8TXcCRfen0JMzd5hPwcAbXAbe4CoYpzCX6+Z94nBCEQiP5j1yE1ke9gb+gs4TJCoZcMg5U4N0RPCmqcx0aNpmV6IFaEvuyvDkeNO4SD1+kWpvaHZ9XCT7RayLr/uASCltV/YllJ36lDoWoh5Ohfs4GkogIVMsaynV6yZo8ClNFq1qX+u2mf0pSvmQPuIiGXiDy8AbXAXeYC5X9IaSUjA0jc4z3X77L7w6VaPZj1NvUFlFcylJNbJ2v7rdjzQhUkVcyqZSRMPhhJFK6zIouKVvaH4m5USgFj8M+zkMhWrKPJWIg4CLkXmYmUq4eGqkw/Z16uFoS/OktLrouyOCfrQhodOOeFuZElqokE835dNNcp+iNsuazki251mX40WreN4pF93/KdLu09PPNR0f3vAM3uA2yDPtKvAGc7nmOtrTda1yDhssAvrlkDd4Q+6mWkIXC/KA9lt522bLplIEN7e5JEqSSRsebx/q7+x98KRke5L+Bmq0I533qZYYSE7KUOl8UENpgRyXyPrRCJ7xUI3yPlVSBntBwNmeKp26iY6mu0NiNeRv2HFyKTm3vT+FzlyFuEgG3uAy8AZXgTeYyzW9oW1dg/E62mUa6l9Cbh/1itT8S9t8xv3bO7+JwrSS5rsOwqZfvLotIpAYhLJJwsYPQmmJqyjVTfJ4Ces6SKJKH6wMwqBbR9v3wrZ4fyieS/N0aUEnHmUYdgbhh/TW+FTKtowgljLaM4/laI3PR2t0BEM1SX4dh/1AyvxPQcUF9ZHLfMMb5sAb7AHe4CrwBnO5rjccz0vXlzqS6tIFt69Cdp3FuB4B3jAH3mAP8AawAPCGRTHdGzx16YrbVyDen4V5TeANc+AN9nD8tfx0M/cG2DzwhkUx3RvCsxawvjKxt2R3A7xhj9t4A7gNmE8Brg68YVHW8obwqIjAl1Mv2mJvA3jDHHiDTcAbwNWBNyzKWt4AjgfeMAfjFPYAbwALAG9YFHjD9oE3zIE32AO8wVUwn8Jc4A3bB94wB95gD/AGV4E3mAu8YfvAG+bAG+wB3uAq8AZzsckbau+qczI3MFFDgDfMgTfYA7zBVeAN5nIDbzgyK+KIMKxP2bxLLhmOFq28nLrYQGYIBt4wB95gD/AGV4E3mMsNvCE/bhWGEeq09It63Ytufe2LqTwqJ1g2mdMJwBvmwBvsAd7gKvAGc7HIG9LZutpnE8rh460MVMAb5sAb7AF5pl0F3mAuFnlDca2U0+Giq02cDrxhDrzBHuANrgJvMJfrekM5RCbWaaYSXmqy84Y8Umneb1hkaby/YR7SxlNvqMIi6AYgylRvu9vFUaFCj/oE9KLbXerqethmF4dKL5yplJ8WKip3QXs4Xpuy1YMm6d5u909VFO+61bhp/eywKyJs+Ph+EKoi0jEUvpdljfRI+CdFY9y+ZoU3nAO84TbAG1wF3mAu1/WGoWuhLpSi/5Xdi3nG7XFCbayf8s/cPzDZMGt/mnlDI/tF1HLXoexHZVSK90v8zhsaObbehsrbxbIvR1m2RXA5aX/kUCXyNm2aJ91uU2/QRdBhdikfUXGUpxRT0IH9pFhWHOANc+AN9gBvcBV4g7ks5A1lodJyVybUovOLfqayale1/+74K31a+o1q29vphirh/oqRN5Rtu577XsHLZbdf9z2/TFXm72Kl2m/7NW8p3qDDGxJVNLsyoqBGv2iPSfuGXGaWs6R4vh/wK+G46Kz9eRcn+o2cTzKUIuJdndA2gSrine9xt0ZDn6A9ExXzZ403XbPCG84B3nAb4A1gAeANi7JUf0PJAsB9APxiI6MIPn/Vl+/7u4DGCCYbal8YeUMqsxpy6mSopafBj2jYoq7kba/zhpD/jWVSRbuN3xaa8anwborfbtt+eaWkHfjtSim//aegHgU5wsgbAtmmDml0Iq7l5GqKpeDhCnm7XlYb4A17wBvsAfMpwALAGxblet7g53neqKT9t+5eqJLeGwI92YFa9/mEyWHDTF4YeYPYADXUcecBPWXeFGNvIJPwRrMnQ+5JoL4Ej8osd7suaIHNIJQRh5KO1r6eE5m80XuD3qanzgPaXFSELWVTNeth4A3nAG+4DfAGsADwhkW5njfkqoOaZj9Iup9zaYAlnpBa42rc/s83JEbe0P0YccRBOuxXB5kOROi9IefthoY+0RMsAnpNWvipN8T9ZmF/8t7EG7LxEARFYhJ5e6ZFd3oLx0SeVrMeBt5wDvCG2wBvAAsAb1iU63lD6XleqrL2X2qtU6USr6lG3iD9BtTvEI+9Yb4hMfEGabhD9oZRgobWNiKvCsbe0HBx+96QPuYN8ja5QaRCT8hn3jDM7SyVKlIvDkfe4MMbrgC8wWXgDWAB4A2LslB8Qy3DAtVonELeoQDIejROsbchMRmnCPqXqu5bPu+QUUDCyBs83tIbOUmkPSMjozjkDZE+g3wyvDEdp0h3s1OhoQxfnyHGKa4BvMFl4A2ugvkU5rKQNzTSJoe9DlTiByX3HxTS+RBm1f6GxDQukvyAd5fZEzu/yHI9HuGP4htkHqaOnSyLpG5f4WDHXMdFUnFTbygk+0PRn14eUUqGLlKCwzlZT2L6ueCSYz6JTBwikuIWTiwJb5gDb7AHeIOrwBvMZal5mK0f+HE6CltIlPJqeYEmV4R5nlK77e9tuKM2vuEoxdwnMyhobEBPtVRpGWvHKGK/CkfxDTqqsn0preOEdMTP2n3pmNHusDeMig5V5tWBYk1oTywu+3mYbREVT59IVVSXlE4iZ88I80p+3qXJsuIAb5gDb7AHeIOrwBvMZal8kZIXaZhPQVkciZRHKLxMBxge2HBHbbym3SAPJcESNc1+UPQ5nXQ+psEbfOkPoKyQtA1Pq+RUT0Xq7w57Ax+7CHhTnfeJiqjpPPWmUgT/WMoWCZ+2pKPKKtn8mutwXlKzHgbecA6ne4OfHxXsUp2cd/1JgtMjbPz8SonUjzx2+2g+vuIcvMFV4A3mstj6FHGapBUvod2to116khaaqaJIkjcf2HAXdnC1VKZhH5zoV2HKSaLbn6IsyHkJbb2Odjfdwm/CtFuTqgxCnQw65Mq6kkMEoaRpqIPhlJoojCo5JXq525SKCCQ2s2yS0CuDsMtzHenatzp1nfATgTfM2aY3HLkQS3atdVQYTxT5lNPMWKavkHSkOfbY6Xgm1Ax4g6vAG8zlButa3YryxBp0a8tXPQq8YY7J3hBTnrFrIPevn5xoIZ50mik9wekmx37qM8MbXAXeYC4WeYMkjzy17jMAeMMck73hqe/eJ3He/ZsrReuxlZ56Yuzg6sd+oo8FeaZdBd5gLjZ5Q+2d9NUL3rARTPQGv/K6u6euPBkWI28oPe2u8n4ZezL2Ra/L/dmvZlI2Vf8lvPTKbreybLy6PUDsxd0r7Z5DIEEpB869TKVtgX1IUe31Iw950wzbV9Xkq37SJUEJux8OHru67rGDceqV697da9wb4BrAG8zFJm84kS5QYfPAG+as4w2j/gQJuKXG0k+6NKP8vq8TlUkmcgn6jfg91U0akpQfedrF2/JS7e2PvF+oGi6upOjeIudXaN4OLbvGu9GRM8/Xy7aG3UlVHD7MgTZ10Uf40nr1FPnLYlClch7aEsqQF4J99Njxpcf2R8fWidL8A48cvMFV4A3m4rA3GAO8Yc7a3lCpwvNk0k6ksqCJZOoPva+HIXgtlUAVaZPyJF7Kwp4FFb2RyPttk9q+Ra1tSq1xpvSSryppUlUk7Z4ZG0eoChXSRCKatOPRpiE10t13fjkpLiJiZ2mb7sRrEm6o/Xa3lASlZJPx+tXme448tnfBsXmWk/wnHGVuu9bdvca9Aa4BvMFc4A3bB94wZ21v4GVLappQU6YZNYhRv2B8LNG5CTXzQUZf2j3dzSA99TK9t21UafpvrZd5pe7+Si/SSlqRcjNbczRhyE7iB5ztpJhsmncnlUsRPL+h4plDvu7vSMgYOOPJrqI0I950obbh2PXo2DlbxuFjx6MlY1927Lo/tk7lVhf7I4nwBrAA8IZFgTdsH3jDnLW9IdFd8T3RkH+EQwDLUdRhQ1+y824lk0gPacgEg9ofUqNnsqaaNM6ZHCbvWnNZtrXqN40nbXeXJn0I2PF1cnXOLDJKhx5OY4dnx26eOHZ84rGLybHDR3OcYD4FWAB4w6LAG7YPvGHO7b2hDsOwtYX2X/q+TqMMqf7q7MdBmI3ynfLqa10cYM7vqSGsQTeg4/VQIj3Bgkc4Rg3ydLl3XmXF4zMIw2JYtjXfX+69rKKQQy66Zdf8IXH7rL/hZscOH53rBG8ACwBvWJStesPCSz5cgcq7YB7bScAb5tzeG6arxO84XLCQZVHop9H6KtzDL+uv5zqn6dgbIh0rMF4vbVhi/mDb3fQ7pvvLveu2e9T/z1GKCTXv/UGz3htm8Q1d4c3Ljx2ceexEewP6G8ANgTcsylW9wW/SMKqu0eTHxRk59Y6eILG3YRCedDhObBlcax7+S4E3zFl7nILugaagb9QUqJDrhc/6FrcqJf4vVFHsSwvaN6NiDOP+hvRl3/nlbQovmKwkP9o0Gt2LsSqaWn/BH77z1/1nmMynuPKx84PHpk2zRyc9H30tfwZvAEcDb1iUa3qDXuNBRZeYg8df489qlI9OyLC3YXhaxiiuL+uLEuecArxhztre4PMyJkW/iknb7g7eUKmo4b77WBZTbSbeIKtTdM03pXDw9CSD+QBA33ZzXEEtMQY6LGK4i3WMgcQeUBoFSbEkK8XqhWer0XLvo/wN6e52x378YTn6Wn72fDP3BrgGmE9hLlf0hpoXeqoiddEXcT0Ue04K/9t6Q1sDL7wuRQe8Yc7K3qAXa6dWsteAwRvaZjORxdx5akWZTbxBZzLIVFTqyQllQau9lSmv13ao7Vaevysjap7bolN/58u0z4iXmOdNS96GmnC/HwiRFd+o3y5P+ImsAzk+p2CoAz7cKcfOLjm2fHw/9c+/u7+AN9gFvMFcrugNoUpiXTNdkFBJnZ/F8cbe0OgvWosDb5izdn9DpIoozfj6t5IQJJTmYHg/VXoUov26nlIKhLE36DGDmNZcTWS+A4VIUEqlZvfId/72aErySdFuUSFmHpMB6E0DCtTMuGia8cnrxnrc1qssVJ0isDjw+hRZtz4FHTu87NjeI8dOhmN3WSuS0fDMyXf3w5ebuTfANYA3mMv1vCHudSHQ9WcVFrJsdisD7feUIvX9tn6RUIL2lSbRq2rveLXsVBLUSeCVpxvyKlSRLGjpB20NHOluiNIrDiypo3XAb7Ks6b7XxKEK9cKbDRXQDBvW/mjPsTfkkUo7sWiPlOmlA+v25BNeObgPgOOC66VjOOENc9bOM03futubiW6SmAbnknF8Q5cUQS/CntUTb2itgptvn7ItZXLblW1bqxMrHmq746jPu7jLOZejjASmRWsuetOSlo8Xb+eF5AN9S1MuR/2opHruKA8nZt0S2Lc5diJ/kUqdn7/hHt5gGfAGc7meNwwh4n5O9Q+HnLdfZqjOoe80bY0SpPQvf3nhtLtdLASt7Nu+kfkzb2iyPoKdvr3Qvjx+KrsW8z4CqfdSSXXLJxNLATzMTDsVXWK8nIanE3/Ycygrl32SejgSH5VS6GaSQ1fXl7LSwLgceMM5mOcNdJv0XVZlXLa3PC3rkNfde90d4ce1bOr329d9N1U+dMv53R41/6BL4l/oZu3f5heH3fJyOKif9xEEMWWl6n6t+82HCIN83CF4wrHLY47t7x+77PJEHghyOPZaPn+xnXsDXAN4g7lczxuiaV9/SWntKUU9hWHRty6Of2h8X0K4SRnyMpUezXajfFclelOqYNkbuAj6luNRH0Zbgh9wneu1rX+Zh2p/tCHnOKy0pIIrLjir6PsVz6injPsco9ZtWJTDnsO5Z7RPlQ1H8huSBT0SnPSJAbu9xuUsA7xhzga84XxCZczya9c69lMr1R57LV8cF94AbzAGeIO5XM8bkmkdk8pQpoSQyTf2lNtiCZHS8+A5l54OFIj1G703RLJNzoMLsU5zX3altcXN1tjjWk6HcXujguvQ6wqQ+WBSHcb1aM++Xmt0BBcfRFLr7oKUMuZW8vbQIa0nscUXRHMcBbxhjtHeUB0Y5H8CC7zBf2rq0bHX8sv77dwb4BrAG8xlMW/o0shx0ytTuHTQgtYD/pknM7YCkBMFlTDyhmT2LSWPOZi7m8NWzRfJ4V5V3QvBiXyj2cyOOg/U4A2TPfsjdZn+QsldM6nv/LxKRt7gzdYIWgp4wxyjveFELPCGJ5lfy28+/+TC6wZvMAN4g7ksNk7RjSJEkgOGfpx6g7xNrhD2meiqiTdM5mU0EcctcJJ++b5W6gnlk1ou72SCCk7GPcJx2hXwpDeMs/fF4xkTfpB00RZ511kCb7gG8IanqPP1cqfe4tjja/mzX//Fw8PDkQMSK94b4BrAG8xlsbhICRp8whvkbcXeEHlCPvOGoXmnaeepF4ejBXbKUTYbRrxBvygFD95QUqykFPASb5Afqd9h4g00u85rqkl/w20SOMAb5rjkDbbTXcv7b/7k3334wwd4gzPAG8zlet4wpG1Ix8vdsCAc8oYuC40/DVQYecN4xRzdnBejcYrm0DhFJyQcLBGNCtYHSV7mDd3gAw2S1KMej1J+HntDdFrWh4tr1nOBN5wDvOE28LX82fO/+9Az84ZvvnrxzcbuDbB54A2Lct28T/z1XgTCk9mPsY5kpDem3sCDDTxBopIBh5wzNUi7z5umnJSu9YO0y5VQqVHoY3gwLjKTbg+OwWw4YZ8084WenD54QzneszeASo5U8nl0R8qqtqxItgynU9wPzi1boGa9AHjDOcAbbsPdH/+3f/LvSEfDvjf87LPPHh6++OTIkMib3Rtg88AbFuWK3lBSgoOm0Xmm/UIVXp1Kv8Ihb1BZRXMpSTWydj/KkUOaEKkiLmVTKaLhyMpIpTWlqKGmuqH5mZQeglrsMIy7E+B2POdk11m3mk7hle0vPJEzqssmG7yhLsZLEqYcmUnzzpP2lOm8JSVke6Q8Jf3wW5Hw43QU36Az/43LWahmhTfMgDfYw93dP/uThz0+ba8A/fe/e/7Np9u7N8DmgTcsynLrWuUc7lgE9Mshb/CG3E21pFriPAiUzTbQm0oRrCF6SWKZtOHx9iwMo6X+9Pd/yTeVcdcHJ+yTro1SDjHMwwwm+RuGJYJLyfUkqSzlSJJPSi+K3HtDJdEPAfI3XIjJ3lCPIm/9fOkZuTZC1/L+k78Y9TggvgFcDLxhUa66jvauCsbraJdpqH8JZaFASTHNv7TyEPdv7/wmCtNKmt86CJtuUyoikFiEsknCxu9WwK6iVH7IR6GL3Zt5FA3J/IIwiLsCEq/kbWTDoB7tqeGjll7o9R+iiiKdpzpOk7TiJbT5n12kZ14EyN9wGQZ7Q9mF/8q9eJv5NXahr+X9J//m4c/hDeBKwBsW5brecDzzuRDnUl20+OYlyGqHtwDeMGcz3rBLR0nG4Q3nMFzLT3/9+9zrAG9wgxMHoE4D3rAopnuDd1rS3isS3GoZbXjDHtvxhjHwhnOYXMtPP/978AZXwDxMczHdG0K1Vlacylt8IoUG3jDn5t6Qe6KnvidXve4uvv59V3o1vOEs5tfyZ/8A+SLdAN5gLmt5Q3ilKrZeLwnvzYA3zLm5N3Q5zeW/tEC0khgaiZnlAN7sVvlD7eLa1xLeYArwBnNZyxvA8cAb5tx+nEKvcBbR4FTUOgJNCaYpP0qvwVoEtFI8vOF04A2uAm8wF3jD9oE3zLm9N8hyZ5w0NJc12mX+rdK5xnyeKgxvOB14g6vAG8wF3rB94A1zbu8NNec0bSgVSKDXVStoHq5eoJWn4ibwhjOAN7gKvMFc4A3bB94wZ4X5FAlZAi+w2iUlj7q113QCsFYo4A2nA29wFXiDucAbtg+8Yc4K3kDrk8jK7aFO9cQroJE3dEuhxfCGM4A3uAq8wVyu5w1disenudY8CpeAN8xZwRv81hkaTjLWLdMadv0NsZ5sgf6Gc4A3uAq8wVyu5w3eUatKXytvg0vAG+askfcpVVWi12qV+AYOj9TxDTwnM4M3nAG8wVXgDeYCb9g+8IY5a3hDrBKJY6iV8vxdGXGecT2fIql3vof5FOcAbwALAG9YFHjD9oE3zFklz3Sm9B0eKFXQQqs0Lqf02u0qKpC/4SzgDWAB4A2LclVviNOiD3IovSLpAx6qpAgkH6/2hjpV3WKYddp+XeM1JXMV1lHRbQk64A1zVvEGTyl9Z7Z3ryokwbQMUZSUBipCXOQ5wBvAAsAbFuWa3kDJdpXKqCL1U/654C9oTca/RFTRsjfUsmVBW9Ztjdu+X9TkDUnCb0AcJsAb5qziDX4+5DT3u9Wz89zXL/jtBkuvqG4j8AawAPCGRbmmN6is2lUZDwK3v6QlZe3POclemPtewcHo7A2hCivK6d9uWbYvl7syoS7gXKkk3uU8Ux4MwBvmbHM9THAO8AZXwTra5nJVb6CvW76SNHo6nX9E/3D3bcz9COQNtfQolGIVvCEvCdR6A32Nq3S8OtDAG+bAG+wB3uAqmE9hLtf0BpnFTtPacz3WwMsHJjqcjDWBvMFTSU50HQt+XiXiDVyCj9jJKfCGOfAGe4A3uAq8wVyu6Q2p/m/YdxmUpAA6e3+XJ4fj0TUerQ8kMQ3sDRJXBm+YAm+YA2+wB3iDq8AbzOWa3hDxf2nlwFhn7NfeIPFkI29IPCGndDrtb00Fb3gceMMceIM9wBtcBd5gLleNb+D/JqNxiob8Qefl9ftxikZbBVFKbwS84QngDXPgDfYAb3AVeIO5XNUbKKqx5pDIQmIaQuqDSFVCc9WqcVwkz8CMvJKXC+IN4Q2PAm+YA2+wB3iDq8AbzOWq3qDSuv2XQhsamntZZawKfqEKj+ZkkkqwE0SqCGjLoqReiNiPU8Q3PAG8YQ68wR7gDa4CbzCXq8Y3FJzeiaMgPc71FHJ6nDyUHFDU68BO4EveJ+51kARRCbzhceANc9b2hlpne7oAn6cUPVVMmZf7v6Q06FdV4zdmyab8w+neS15O4xCjdFYX4Z2X9Qre4CrwBnO56jraZROmfV1XRWlfkZRpl39ar6PdRGHUyNtxmqRVHQaURjIYbwM08IY5a3tDqC5ua3NR5yJ6tLWdLPiifympB69bf1O/MXtaEr3M95zk4PoxOc1mKtJ4dzHeo2LyNPAGV4E3mMv1vAEsBbxhjh3eEIYh9dA9Jg6HvCHgUcA0Hb8x84Yqmxco/XeNzq8yO0ZrDZlSR61J9/Rfw0+qs/aGN7gKvMFc4A3bB94wxw5vaP/1q0Slj2xxyBsyVe1t9dLeOfEGX+KW5yeR0ZrgAYUanc1lfw14A1gAeMOiwBu2D7xhzha8oZYFMXelJ025J628XzXD8FwTd133deVJ45p7uR+3P+c6iifuugFKXR4VVDbeyBviptS/1Er5w6HasuoD/Q10oKotLPdi+V0pj8qO9gcwEp1zRSY+Tc6iLaGsOGQhlnK4zO5Dy6a1nESm0vZv0P0d2h96jcib4Y8xicq44t29xr0BNg+8YVHgDdsH3jBnHW/o4m+omW1ohCGlBnISzSsRvzJSkHPIL7fHvuREpYbTU5Qg1eu9YZdxN0BMO0a5FFQpScfOekCzklQovzRyLNmVd8kCfqkalIDTq4WqokNmFf2oQ5Ar2bmO+jCEvF96tgzDcnoW7UfkjK5l0a1c25bJp6L9hz5d1vg81EHTofTfgYuQdXBrjpMu+I/hU6B04R3o1YA3gAWANywKvGH7wBvmrOMNef/VntrGMCi453/iDZ7KvECmItM84yDlRCatNmSBl3AoAzWzyai/wee2OyUDKLqpykWR9v0NobwjCVFSGdTQh2rLzyRDe62GNWS1N7RW0+6Wjfob9BGLrmuh15AeOgtq3wM5btJEqkiKtMl4l7A9CT7JRo6eeTy3uutvkL8DFxHxH6bVhsRrEu5P8dvdQjKNfXGAN4AFgDcsCrxh+8Ab5mzAG9pv3X5E7fLYG9rmMad5x2lJPwY+N9b1Lo8y+o7PwQmengzReQMv5ZJzX4Tv6dRovLV4w/COSIQ3OhSV3yhprpO+E6HzBmqhCw661EeS9Wd3VdEPHXjTkQtJ2UZFllQCR2DyPjI8oj90QPMm2qNXuy6Xm8Q35HpJWymi3SZO6Mx8tqVUJbT2bXggGAPe4Cr3SxYOb1gUeMP2gTfMWd8bInmBZ0WO+hvar9j6G3UsoQi7epicGCnuRch0YSrP8/brOH199/Q6cIUs4aIDJkabl+INMqbBh+rKL+ZNsfYGLpCzPfT5UNQ8fjGcTqPoTi2TEhr+FPxSQnvqMlk/qn7TeOIN3QcZElP4GRVUSH9IfCA1C7zBVTCfwlzgDdsH3jDn9t5Qh2GYqKL9VzrxZViAuhcm3pDS4AG37dN4RT9Ow0ypUbRj3q0JG/r9Ei4Sutg177xlF8yY6CGMvDtU10Knj3iDN5xE11gnc2+Y9TdEemoHj4aMZED/0p0kiYDHfwqaR+pNNg0nJZZVGvLgi69nm/pqf+oFvMFV4A3mspo3XJxwbwl0CPq1uNJnhDfMub039M08N6Rhv8RrM8tyyqGDWbw3i5JezWbe0La7kaeDELsuhnDmDZ2hcF8Fe8qu84Zg2GXM496QzRvtWXxDdyxPDGDfG4ZTSfs/x9wbqnF59KmLaRAovAFo4A3mspY3jEZZj6TmLzjB0dlsh+j3wxzKSrk/Pf4SquI6pcEb5qw/TsHNMn99zuWLv981jXnA4X9dfwBRKhXk/cBD7w1Dyd03/UP9Dam+MyW+ge+ocX9DdLw37EUlzuZTpC/rb5C3KbTBG4IrJ5tGo2wUuSpoFmY47W/Ye3zhDa4CbzCXtbxhng03916WO6b/xpfujkKqvMp7LKHNgaHW6sxUuXt4Ornfkaf6EuANc9b3Bm60Y2p3ZUIEhQi2//r0Y02j+V38AaVw0A1y+Kg3dJEFHAYw8QZP0jvUSs+n6OMiuza/ONob6v07fpq/QR9rNx986L0h08XkQ/RG/24X3yAfhJ5mkXCfS9Pr41aIbwA98AZzWcsb/NmAgPfSTLft97o8z2nm2XFjCfmkR3mfA1VYdKWGviv7Sp0X8IY563sDtYk5r8YmnQRlIsGKJJ48q8LPVFTyK9T3QPdVrB71Bgp79HdlxLtPvKF/h3fTX/P1fIq2fD+QgZN6uNUOeUMlR5SOEW/8iTgFQxmwhMix/JSTRx7yBn0qWTebw5fpFpFKfL2pFEH64Otz8PSnLuQPtv+AwRtcBd5gLluJizzGG6TWPvZb/OnecChq6zyuu6InvGHO+t5QqCzUK7q2X6KLRLE30HfyNM14u5i6xmS6REmJm/QqEAe9ob2pVdG6AUcQTLyhe0fGKXRySd6Vyo8KWUm2LAaZ3veGSBapDUQ6Jj190/UpKCVEWnRTPg/0N8hJxt2nKyStVUwZKfSmdLrtH4Cno7ZbU7oHzmDRvkR/sAL5G0AHvMFcrusNfa7ZtpKJ22qFfqrCItXNsV9lRVrrSoheq5u2wvXKbgyCasQ64lqxCYsianSdFWSjuHWda3fXlhXIYGnZtN94+GdvVF3S9l4XukXltXW3r8+yyIJuPLoMim6tTj3prN014rPa6dMPSi0DfvuFMPV9ahj0OLPffoB+CdA8VLywYKiP2jURVaKihg/tB22LE/X5eItuKSD/yaANeMOcdbzB75eslnSMOv2h31CjKKMAZTiscdleX0qCRD82nJ8peNwbdiXPxCh3e97Aq9AXQb8+Rdx5A++iopjudT8ZwoX2vaHmBJVdUGU6ieHJs/F6mGX7zBZyPx/yhjhS3du7mPNISu7JlBJM6U35rOS+Tjmnpj6VKuxehjcABt5gLtf1hvE3soxFIM64EeW0NI3knc16b6Aschll1xt5Q8L/pcqnkFCGUMkXu65sXkpYlyXfoEIupfCf8IZgKI9/Vvr7oR/xL1kz1LJSlUp5Eh6vuMeZz60tI4joX11/y+5ce+rduIN27A1N1ofhU7rhQucb9iUkvWh202of3nAEa69PUef+rqyGWJia0jFKa+/Ho2G0uL+sdVXuypwGA/JSS8isb8vv1rLIdfKDbstdGfe/NHwLd7uW7S4iM/7wPb6mLWvZvNSmU7ZFxl2g5uxWm56I332qms9CqxL/Qo9sf5L8kYaS2s16q/Lj/mTidvO6+xj14c48eIOrwBvMZTlvUJ4Mmaa1XxU8BEy57X36EtZ5g0eT1z2d+UZHfBUNZ8Er4iEbXVvEqGxPkvSpoPQbjiPLVVaSR6T73tB9bYq5rY45mrstNS35W9GO/KTw/Fxn15NvRn5Gaf3rUA/XyilHfG5ZzYbT+L5EQvASBVSUJ+PNOXct7LovhN0AddhKDweGpVSCH3C3hkenkUsOvrqAN5zE2t6wGu1ddu7CleGlc4WusAjoIeANrgJvMJflvIG/2+usNA2Ny0p7Se123vd8UiNbjkYY9EDrruYvbTobXZdgj+Iiq4h7DaKu6yCkf6g3o8x3j3uDLi9R1ejMFDfqsZytJOBv+FylF5hGNVL5jsbJgnV4WcqnI73SavTpGjnNWL+x2/UT6WS5Hx504e+fPg20+DpYLeIj1xinOAlnvUFngDyDult382zgDcAc4A2Lcj1v8CltLrftNVcyukEO2hdynralc8n5gze0TXSiW8zeG/p+0Jomwg9DtaN5mD5PZ6dyK51xN8snpex7w47EQkK7dYMd68ls/F7DfiADwMFoanqX/o7DzvQaxsNUuM5yauquaAWAzijnTzfyhmQW8JnTIHHeT6OrjqjO4Q1z3PWGFYE3AHOANyzK9bzhYEa9on8x75Lrd8nu8y6KzJs3xy1xmg3Z6DpvKDixrZ6J1iGLCSqJTnzUG/K+vFKriS/Jc/pYy10XkBYOSwv2IWqRCMduN/cGsR4SjrA/o2qy6STTTRMV+o9R6dHm8oipF/CGOfCGFajzRXK8whvAAsAbFuV63lB6npeqrP2Xvs/33pB6Qtn6wpDUf9KeF/XcG/xCFZEXJ1NvoDZeFutrtwv6cimGO5FIxce8QcqrAkldJyFjdKimW4ZHT6KT2RBDB0E3vS18zBvkbcXeEOkzymfeMHxLo+nyqZePFwaq4Q3wBqeBN4AFgDcsynLxDTrx/jAcK0P5km9u1OlZKdpm6g2BlHPAG3YZl5KNOgXk3ULS1Q1RFWNv0P0Kutug0YflhlwvWZx0b3fH3o1PX8k4hWw69oZAzkz1OQF3u+Fj6AUGglFxHHg5HqdourmfC9as8IZzgDfcBniDq2AdbXNZ2Bt06tqKogIlINKPem8oPZ7AmEqO2z4T3q6bpl6qA94gpeiAxSat2l3DeqcDBXRenGLsDWQJHBCpy4u6KemK8+XwnEjJYyfWIbM4Wr1JfB1yqV865A18Fhzw2YiC5JypQQYnPJlDIXNQ27L1EIl8Ar2ysERk+k/2AMMb5sAb7AHe4CqYT2EuC3uDX6ikqkOlOwlURoll+v6GRE/S5ORyPNtSe0P7/T/ndDr73rBLugmSFeWzCXg+Re7LmAYZQ0wpeXpvoFmeJUUT5H4l5dFgQZVLmgh6O8y9QvLY6ZiDhBL6VJxWj8Y3PDp96jM45A1UlCQdbj9d1lA+YOm5KOJSz8Nsi2jKhkc8ovYzloFMRG3oyHRKJXlL8pQ4wBvmwBvsAd7gKvAGc1kuX6SMQ8RFlw1JJ9ZTwZAvsh7iKHeZzvvEe/mSISo65A05DxpUUi410v4oT5MnuZQGbyi5/HF5OhFTKnmfPH4nFMnRPQ3pkKoq53BHCd085A1yPJlVoU+DiqAsvIHeVIqQfD1ScCJjJ7x9qJP2PrXmBrxhDrzBHuANrrKwNyw6DLIHvOGEfR+vWYOwyx7nhWHap9ajBHKsDPJ+3UShThbtV1FU9otbl02SBGVF6ZwDnQa6Xxc75R/KttxAsteVVRr2mXK90Ct5U7192YQpl96Vt6Oct2nsd4dqf+lS6ejlBqmQrrxdmXZpqGUHXUaoFxqM27f1h/PbD5NWUlYdhE23KRURiEXVTRI2fve3qaJU/5GqJ1PywBvmwBvsAd7gKsv2CDx8c9MPA284Yd/TatZS0vars1PeLU19RJDimOsuX/Uo8IY58AZ7gDe4yrLe8MXnN/0w8IYT9j2pZs0LSh5dXm2x6gU4MRcvvOEqwBtcBt7gKst6w/MXN/0w8IYT9j2tZk1lOalxIqSNkXvwhtsDb3AZeIOrLOsNnz58cssPA284Yd8Ta1ZKl5h429WGUwnDy8s4AnjDHHiDPcAbXGXhGQ9f/dYtIyPhDSfsi5r1FsAb5sAb7AHe4CoLe8P9i69u+GHgDSfsi5r1FsAb5sAb7AHe4CpLZ1j45uGG4gBvOGFf1Ky3AN4wB95gD/AGsBCfPPy1T291LHjDCfuiZr0F8IY58AZ7gDeApfjZbz189bPbHArecMK+y9WsiyzZayjwhjnwBnuAN4COL798fmX+x/+Ph4f/5//o//VHi/Pf++8vf4zt8PBwTW/wmzSMqms0+XFx0oTIk3nJTIg+2+UmgDfMgTfYA7wBMPfPXzw8fPHZtfmDv/v//v/8vb+/OP+D/+Hyx9gOV/UGWmeKiC4xB8+jbJLBwsmhOPNC7uWPvD2s8r0F4A1z4A32AG8AxOcPL57fdkmJq4JxihP2ndSsNS8PWUXqojZfSZO9bHfDTi+G6T3yNrzhlsAbXAbe4CqT+RRfPfx67fO5CHjDCftOatZQJbwYVH5RRkh1kyYb3rAh4A0uA29wlbE3fPXiptkdrw+84YR9xzVr3OtCoFe8rsJCLzWplB+pIvX9NFOySGT7SpOofiXKPFS8AqWsOe31TXoVqqjhYQ8/CFUR6W6I0iuS/R6JtrVvy89HxdFCmGlR8M96He5cr4CtF7WmX+IoU0m/LGdWpLX2Br/JMk8GXfwVAx7gDXPgDfYAb3CVkTd88/Dl2mdzIfCGE/Yd16xePzzh59TqVhm3yyGpQfsfVSgVpPSvivmVdIiFyNtN2zcyf+YNjS6Cykx4E153ypddi3lvQcirX+RcnOLi6KxUxi8+7g2x4qIT2rwquGSxj4B/4Y/lJ8V64gBvmANvsAd4g6sM3nDb1I6LAG84Yd9xzRpNe/3Ltr3Pfa9Q0Y6a6azm+IfGbxv9lF9RUV6m5Ag7v90o31WJ3pSabPYGLmKXF/RzQCX4AS903bpAWubh3ohG+wr1GoyLa39mj8j2vaEbpygLFfi7OlPN6KSp6IoOQ6fY8EYLR1wsWLPCG84B3nAb4A2uMnjDJy8MjogU4A0n7DuuWZNpM56qhP5T8+iF9BOk3OrXuuHmVrxRBf1Dr9P3/t3EGyLd0kcNvUvf932lyq60trhoWgOFcshxcbGifgI/9x/3hl3JpfEMDk92rfgkMhXseKuCzjo2t2aFN5wDvOE2wBtcZfCGL4zvboA3nLLvE94QSqu74y/qSsmYAbfTuuHmn2sSgVYAcoL6BsbekMziFvM44mEIlgdq3YtpDRT2PtEX14pG0ei9H/OGHYlFVdDboYy1+ErOJNanuHISKnjDHHiDPcAbXKX3hk8fvln7XC4G3nDCvk+MU3SjCPwyN9Mzb5C3qXGXoAYl0Qsjb5jMy6A1uBVHKlTSrUCDCtMGXUczTopraK+QYyUf7W8Iki6MIhFVYAeSDfUpGl2zwhvOAd5wG+ANrtJ7wzdLr3B1A+ANJ+z7RFxkoZvgR71B3lbsDZEn5DNvGBrsthXPUi8mNYhlMIG8YVoD9d4wKm7ne+QRwRPe0L4fek0l3iBRDBQX2fczwBsWBt7gMvAGV+ltwYY214bPcALX84YhbUMqXf4yTsGCcMgbAr2TPw1UGHlDVwQRyr7FaJyi2R+nyOXws7iHMqGj5H3swm7iDbkqfC6NT5p3LcfjFDnGKRYG3uAy8AZXgTeYy3XzPvG3dREIT+ZBxjqSkd6YegMPNvAEiUpa5pwzNUhrzZumMjeyUSm15OQKErBYdP0Ee3GRkmpyVFzFGR9KOiNfvCYae0O061NaZ+QNTecQVJLM79DRnLtytxrwhjnwBnuANziPDW2uDZ/hBK7oDSWlYGganWfaL1Th1an0KxzyBpVVNJeS2vWs3a+OJIVCpIq4lE2liIYjKyOV1mUgEyQbilig9BDUlodhP9Ohy/LYF8fzKWI/l4kZUfsyRVb23tAKTlq3UtFuEocc39CftCR80KdIB0iRv2Ex4A0uA29wHhvaXBs+wwlccx3t6bpWOccnFgH9csgbvCF3Uy2JmgrygJijEfQQQtgnXpIsTYlM2vB4exYGfxQ82XnDuLhI6WhKWmOTYyUHb9hlLBH6IOwWckR9GMlclXGPRTEaMzGtZoU3nAO84TbAG5zHhjbXhs9wAtf0hralDcbraJdpqH+RZasrSTHNv7QNdty/vfObKEwrGQqog7DpNqUiApGBsknCxu8WuK6iVH7QUQtMv/r1qDg/Hk7Jr6gwPryckF9FUbtVnCZpXIciBnkUVWVXUvuL7s2o19MGeMMe8AZ7gDc4jw1trg2f4QSu6w3HM58LcS7VwgtubwF4wxx4gz3AG5zHhjbXhs9wAqZ7g7di/udbAW+YA2+wB3iDq2A+hbmY7g3h2pMkbwC8YQ68wRp+Cm9wFXiDuazlDRJgcDn1yjmZbgG8YQ68wRp+fHf3vStfN3iDGcAbzGUtbwDHA2+Yc4u24dW7H6594V3Au/v2da8bvMEU4A3mAm/YPvCGObdoG165+/ina195B/j47rXrXjd4gynAG8wF3rB94A1zbtE2tH+1n6x95a3npz+5+qWEN5gCvMFc4A3bB94w5yZtw2t3dx97P0afw2L89Ec//Pju7pUrXzZ4gynAG8zFHG+ovRNmXFo1yQLeMOc2bcMrd2BxrjxKAW8wB3iDuVzPG+qQCLxj13HoEjQ+RhhOS9JLWx1Fmgzi8LLjbB94w5wbtQ3feu3bazerdvPqK9e/jvAGU4A3mMtV19FW/XISR5DzghCV95gMKDWbYhkdnRqyLFS/2JU+jsnAG+bcrm343rfAYlx3AubN7w1wGfAGc7mmNyR5ngeJGrXZTyHteageS8Cw5w2VKo5tacdZHeAN8AbgDrg3jMOGNteGz3AC1/QGaZ+DI7sFTvYGvzjSSA4dx2TgDXPQNoDHwL1hHDa0uTZ8hhO4vjfUSlI/V1kRSIRC2UQq45/1StoebUrb81ravF8TFir0JCqh9Ios8LU3lEGR6IDIVK9l3fuEp5LukDTakYdKr5Kp981TFTXwBngDcAfcG8ZhQ5trw2c4get7g8QvNoVS7f8ieiVUKmt/85/whkANmwf8YsJtvx/xL0XT70b60E2s6EIlA3ojzqSwuvOGMpQX4A3wBuAMuDeMw4Y214bPcALX9wZPZRwkGZR+Kw8N/ZyV5BHRvjd04xSxIhdo/63537QsU8Vtf6oKz89DfoMKbf/1k2EJzFB6ILL2Fb9QWeV7BZc63RfeAG8AroB7wzhsaHNt+AwncO24yCriCRV67kNAAwntP3777T/fPe4Nu5ojF9gIwm7X9p1SB1lG3BNRyyKa/hDlUJGjtKZR+LtGoiZlj/G+BbwB3gCcAfeGKWA+hbksMQ/Tpx4ALyeLoJa+fSPTTf2j3kAtfu4peltJd0JMbX+uYyUa9oODoZLcsTCYSusenmzY7ZvCG+ANwBlwb5gCvMFcrukNRRiGhcQoqJ6SWm6yifIpb8hTiU7wdr6OWeC4SG+ItTzoDRIqWdAoRqhHL3g6x3jfCt4AbwDOgHvDFOAN5nLt+IZKmn2lAk+g38o0UTxq8Jg3+IUqIq8KpK+A50SU1PY3w4QJ8YZ5k1qrbBdzZ0SoGm0S2hu6fRt4A7wBOAPuDVOAN5jL1eMiM+5wyHQrPrxbUDPuyWBCOvcG3TcQkTcUsms1HmuQCZf5gcRPmapT3iGVjg4aIenHKUopFN4AbwCugHvDFOAN5nJ1b6j0XAb+st+kVdvo89RIzvYYS8tfjL2BGv2E/y05viHqZlu25fhaIhL2jbib6Tk6aqOCgv2g4Yme1DNR93GRtK+P+RTwBuAOuDdMAd5gLtefh5nQf9tGO6zyhOdWBCrJdzHHK5IxVFWiBm/w2ta9pHkRuV9l7A0URlnR9Enyj/btMG/fKEgNdCbKtBgteNUeqO9oKLw6ld9434CSOXgFvAHeANwB94YpwBvM5frekHMkQ1VI9qb2BV9CHrk7wJMsToM3lJz3yeetCx6n2FW8fSR5nzx+J4zFDCj0sSzUeIHLqFsPo+bwy4Jmc4g3+Cnvi/kU8AbgDrg3TAHeYC7XXEdbN+cp/1B6YRjEHJ1QVmmY6pmY7cteyZvq7csmTNs2voqSoK5CmRNRhWnld+tot7/UWkgyOdBkXew87LWgLbuRTNV6X98LgxrraMMbgDvg3jAFeIO5XM8bFiedx1q6ArxhDtoG8Bi4N0wB3mAu5nhDKSMdDgJvmIO2ATwG7g1TgDeYizneUHvV5YUYCbxhDtoG8Bi4N4zDhjbXhs9wAuZ4g7vAG+agbQCPgXvDOGxoc234DCcAb9g+8IY5aBvAY+DeMA4b2lwbPsMJwBu2D7xhDtoG8Bi4N4zDhjbXhs9wAvCG7QNvmIO2ATwG7g1T+LT7wYY214bPcALwhu0Db5iDtgE8Bu4NU8B8CnOBN2wfeMMctA3gMXBvmAK8wVzgDdsH3jAHbQN4DNwbpgBvMBd4w+b5KbxhDtoG8Bi4N0wB3mAu8IbN8+O7u+9ddI3hDcAdcG+YArzBXC55yl69++HabaoLeHffvuwawxuAO+DeMAV4g7lc8pS9cvfxT9duVB3g47vXLrvG8AbgDrg3TAHeYC6XPGVte/STtRtV6/npTy6uCOENwB1wb5gCvMFcLnrKXru7+9j7MfocFuOnP/rhx3d3r1x4jeENwB1wb5gCvMFcLnvKXrkDi3PhKAW8AbgE7g1TgDeYy4VP2bde+/bazardvPrK5bUgvAG4A+4N47ChzbXhM5zA5U/Z974FFuOyCZgaeANwB9wbxmFDm2vDZzgBPGX2A28A7oB7wzhsaHNt+AwngKfMfuANwB1wbxiHDW2uDZ/hBPCU2Q+8AbgD7g1TwDra5oKnzH7gDcAdcG+YAuZTmAueMvuBNwB3wL1hCvAGc8FTZj/wBuAOuDdMAd5gLnjK7AfeANwB94YpwBvMBU+Z/cAbgDvg3jAFeIO54CmzH3gDcAfcG6YAbzAXPGX2A28A7oB7wxTgDeaCp8x+4A3AHXBvmAK8wVzwlNkPvAG4A+4NU4A3mAueMvuBNwB3wL1hCvAGc8FTZj/wBuAOuDeMw4Y214bPcAJ4yuwH3gDcAfeGcdjQ5trwGU4AT5n9wBuAO+DeMA4b2lwbPsMJ4CmzH3gDcAfcG8ZhQ5trw2c4ATxl9gNvAO6Ae8MU7rsfbGhzbfgMJ4CnzH7gDcAdcG+YAuZTmAueMvuBNwB3wL1hCvAGc8FTZj/wBuAOuDdMAd5gLnjK7AfeANwB94YpwBvMBU+Z/cAbgDvg3jAFeIO54CmzH3gDcAfcG6YAbzAXPGX2A28A7oB7wxTgDeaCp8x+4A3AHXBvmAK8wVzwlNkPvAG4A+4NU4A3mAueMvuBNwB3wL1hCvAGc8FTZj/wBuAOuDeMw4Y214bPcAJ4yuwH3gDcAfeGcdjQ5trwGU4AT5n9wBuAO+DeMA4b2lwbPsMJ4Cmzn617wzcPp+6BuxY8Bu4N47ChzbXhM5wAnjL72bo3fPrwzYl74K4Fj4F7wzhsaHNt+AwngKfMfrbuDc+++OrEHXDXgsfAvWEKmE9hLnjK7Gfz3vDJi/vTdsBdCx4D94YpwBvMBU+Z/WzeG+5fnNjhgLsWPAbuDVOAN5gLnjL72bw3PPvm4cuTtsddCx4D94YpwBvMBU+Z/WzfG5599eKTUzbHXQseA/eGKcAbzAVPmf0Y4A3Pvnr49Qlb464Fj4F7wxTgDeaCp8x+TPCGZ58/vHh+dHQk7lrwGLg3TAHeYC54yuzHCG94dv/8xcPDF599/vwI/vIv//kxm7nCN5+uffE2BGo0U4A3mAueMvsxwxtavvzy+eefHcNf/dW/OGo7R2h965MTZ7LaC2o0U4A3mAueMvsxxhuOBnftlG++evHi1JybtoJ7wxTgDeaCp8x+4A32c//Vw6lJNy0F94Zx2NDm2vAZTgBPmf3AG1zgy1OTZ1kK7g3jsKHNteEznACeMvuBNzjBJw+fr30KWwD3hnHY0Oba8BlOAE+Z/cAb3ODXDwiOxL1hIDa0uTZ8hhPAU2Y/8AZHePF87TPYALg3jMOGNteGz3ACeMrsB97gCM9frH0GGwD3hilgPoW54CmzH3iDI9yfuDyYleDeMAV4g7ngKbMfeIMrwBtwb5gDvMFc8JTZD7zBFb5AgAPuDWOAN5jLxU/Zn7727TuwIN955c++d9klgje4wmeYiYl7wxjgDeZy6VP2j15du111gFf/9KJrBG9whc/dqrwOgnvDFOAN5nLhU/abrTZ4P/4RWI5/+pO7u29f1OMAb3AFxyqvg+DeMAV4g7lc+JR95+4f/4c7sCz/5O7uX15ykeANruBY5XUQ3BumAG8wl8uesj+9u/vx2q2qA/zw7u6SDgd4gys4VnkdBPeGKcAbzOWyp+zP7u7WblNd4D+4u/uzC64SvMEVHKu8DoJ7wxTgDeZy2VP2L+9+snab6gT//t1rF1wleIMrOFZ5HQT3hnHYcNva8BlO4LKn7Lt3/3TtJtUJfgJvmIC24TCOVV4Hwb1hHDbctjZ8hhOAN5gAvGEK2obDOFZ5HQT3hnHYcNva8BlOAN5gAvCGKWgbDuNY5XUQ3BvGYcNta8NnOAF4gwnAG6agbTiMY5XXQXBvGIcNt60Nn+EE4A0mAG+YgrbhMI5VXgfBvWEKmE9hLvAGE4A3TEHbcBjHKq+D4N4wBXiDudjuDf7aJ3AV4A1T0DYcxrHK6yC4N0wB3mAu2/WGOiSCpp6/UYXV0YWkyWz3ttS0+9lvy39kv/kbfMxTDnxd4A1T0DYcxrHK6yC4N0wB3mAu2/WGXGnS2Rue8mZbevkjZfiJivdL7VSian9+ZMf5G3zMvQPfDHjDFLQNh3Gs8joI7g1TgDeYy5a9IcnzPMiUmlnBXvP9RHvux3ulDiISwhsMBW3DYRyrvA6Ce8MU4A3msmVvkLGCdN7hcIo3HCi1UIX8WLY/whuMBG3DYRyrvA6Ce8MU4A3msn1vqFXBwY1VVgR134bv/CBUWRp34xm8bR6qtNTtvh8ViroUuLPC94qk6krNlPwYqFTrge9lWSM77sq0SBpf3ojbMkLPH3lDe4SskVjLJiyKqJF9mkQlXglvuBVoGw7jWOV1ENwbpgBvMJfte0OpVNsiNwXrQdS14X6iqLugVYDeG+JMfqrZGxIehGBv8FN+o/Ck1EAXnKlY9CCVsskB9KYRv1FJfEXi994Q8ZYZ76T4BKgvxC/4xwTecCvQNhzGscrrILg3TAHeYC7b94aA2ulWDoLSb+Wh0W14qrJ65/N7XQdEobLK9wrerW3IuQOBvcFrm/cyDzlQoi1VRGQXt/uyHjTttn4ZcLykbJqyc7RW0fh05Lz3BhXVu6qgDdudYjaLkl4PfXozgDfcCLQNh3Gs8joI7g1TgDeYy5a9geIiq/YrfvudPpIgB+4qkP6GiroVWgXoOgPalpz7AUpu/7tGnL2hkIGJlHoryEYSfjNq/2Vv0G/zq4WEMIT8Rs1BlVEf2uCJcKS8e8xvZjRfI1RRexZlfvxngzdcBtqGwzhWeR0E94Zx2HDb2vAZTmDL3tDNw/S5PW8lIm+oPe/DE+s8GjoDOrVom3KPvKHsvSHXv1S0M3lDRZGRPr1Kr7SiEVPZ5CS+nqTZdHGRZd4UI2+gYZJdrDtC2jdbk/B466Q++nPBGy4HbcNhHKu8DoJ7wzhsuG1t+AwnsGVvKMIwLKStVj1l170gsQaDNyRDuOMwH4K8IZaOCJICn73BL1TcNvahbNb7SbtZruda1NLfEEjEhDedTyEDKHHav+mHHD2xYGpKeMMUtA2HcazyOgjuDeOw4ba14TOcwJa9gZrnRjoLlAo8QXtD29pnqRcf8AYeRjjkDWXnDTxiwZuLNxS6aI9K1cem/7ZiEHpVcNAbWvcoIq9K9EskEcVyfQ7whiloGw7jWOV1ENwbxmHDbWvDZziBrXtD23in/O+Q4pmbb2mw/ck4BfdMtJs2U2+o9eADD09wqfQKz+7U4xR9g9+Wx2ELAb1Rqcznnw95QyBHS/qUDtV+Ykt4w1KgbTiMY5XXQXBvGIcNt60Nn+EENu8NFatBJLMcm7SS5lsCIvWbHgcqNpLnIddxkYM3DMGOUVdqokJu5XW3Au3uB0He/dy+r3RAJHUsHPIGDoik0/B2vheKXyw3ERPeMAVtw2Ecq7wOgnvDFD7tfrDhtrXhM5zA5r2hbaFDbqDDqk54mgQ335ThqQwK9obWHmj1q0wVXp1KjoeJNzTtznmVsVBIqZVepaJL05DmlPyh4p9lU56HmeV+FR6Ob/BUUvtNpuRcotqPx10i8IZlQdtwGMcqr4Pg3jAFzMM0l+17gyRQqCQKkr7Sd/EN9GvC+SALzsVUR5zdiaZfTL1h53EIYxL3pfqFdA7IZoGERXJPg8fHCbr4BtrtcHyDpJLiyRtlofp0UPCGW4C24TCOVV4Hwb1hCvAGc9muN9ShzqOU8g91ECZBzIMTvJx1HWRh4wecHbJsQo42KINEJ4Hu1sGW92mfNB+X6oXxaLM8bcvW6Rf8KkljecOvoizIhyW09TraUkTZJElQBnIuTdTvD2+4ATdqG771yqt3RvGf/xdrn8FpfPu1619HeIMpwBvMZbveAAbgDVNu0za8tnaz6gKvmHlvgMuBN5gLvMEE4A1TbtI2vHJ39/EPfwSW48fex3cX3dmr3RvgCsAbzAXeYALwhim3aBvav9pPfrr2hbeen1z9UsIbTAHeYC7wBhOAN0y5Rdvw2t3Ha192B/jpx9ceqYA3mAK8wVzgDSYAb5hyi7bh23fe5RcOvIwf3r1q3r0BrgG8wVzgDSYAb5hyi7bh7u7Ha192F/jR3d33jLs3wDWAN5gLvMEE4A1TbuMNP1r7srvAT699LeENpgBvMBd4gwnAG6bAG+wB3uA8NrS5NnyGE4A3mAC8YQq8wR7gDc5jQ5trw2c4AXiDCcAbpsAb7AHe4Dw2tLk2fIYTgDeYALxhCrzBHuANzmNDm2vDZziBS70B3AZ4wxh4gz3AG1wF62ibC7zBDOANY+ANl+GvfQIj4A2ugvkU5oJxChPAOMUUu7zB61Zv1fQrwT5BFRJeVZ5zwLSob/TRjgDe4CrwBnOBN5gAvGGKXd5QKFXJT5VHHpCrcLaFt5e60lNCUZ1+PD9RcXsUb8mV348H3uAq8AZzgTeYALxhilXeUKlCRfJjqKgt3/cGpeY7eSrN8zgtVHHGmIMfcwnbyKMNb3AVeIO5wBtMAN4wxSpviFRVKGn9T/EGafUzdUaHw6SEtYE3uAq8wVzgDSYAb5hikzf4Svmpanbd2IPXe0MeqpR6BkL9+s73QlVEtGnf6jeyre8VWcOxDq16VJFKuzGIOlWR/rluEhV6vmyTyzAHHybtNg8V9WC0IiPxFZXKbvD54Q2uAm8wF3iDCcAbptjkDY2K2hY62c29Ic7418wfvCFSqpCfem/gtr31DoaMIlSyeUgWUcvPGdmHX/De4W7qDXnCPyQ1v07HpIETLjtRL4/PvBx4g6vAG8wF3mAC8IYpNnlDoirqc+AZDqNxiraZj/JdlXHog3QMBKqId77HrXrnDYlK6Zei8cuUC2lNIcx9T0ImQlV4flsGBUF4KvT9gOWCD6NLyFRW0WEy3lxRYGZ7aBKNUqmzZmucCLzBVeAN5gJvMAF4wxSLvKFtnf1dNzQw8oZGBgkqVgYd3xCTXIhjcFxk3iQ8FaOQIIeETCCUzoKYtsp1y5+RLLBh7Op6N/GGRor2uZyQN9ntUv6vtxdmsQjwBleBN5gLvMEE4A1TLPIGjzsGdCjByBsiFgMaT8jHcZF1Hihp9VU/NlErFdOmKe0X6rkZtJWnAxRSes3TYxe7iTcEevNQnCPmX3J2mfNDLk8C3uAq8AZzgTeYALxhikXekKnQ87xWBiQCsveGsBODkTfEUdG90ipBGIYS0pD3m2a0H8dNsgikfYBjstuVVGLRxUV23tBt7skx8+6kqtZGzpnieTrwBuexoc214TOcALzBBOANU+zxhrpv82loYOINkSeUnTeUbbufevGk1c94+0Jv6umOgx0NSzS7QI87VDLikEdZW0I58wbZnPsdem+gWM1u56WBNziPDW2uDZ/hBOANJgBvmGKPN6Qq4QY/5aGB6TjFsJV4Q9hFMvatfslhCZMAxlBPzByPU0RdXikKlwhm4xQSxKBjI7Q3lKqQw9wAeIPz2NDm2vAZTgDeYALwhin2eEPRBREUEpgo4w4cF8m5oPKoBgiYFwAAKCpJREFU8ckbKJxR/q3UaDZEyoMJBY9H+EGQ8/gG7ReTS9S8Kc2PaHa+F/k7HeqgvUECK3jzksdJem9oTcO7SfKGHbwBWNHm2vAZTgDeYALwhinWeEOsdKbIHQc1UsxjqfM3ZCppykhxZodIFbFPbX5dNtnYG0rO5tA2/mkeF7rtV4VXpzLu0e6e1l7BCpC0P/pVoXLtB7lSQU0vy+Y6r4M+L8p93dzm3oY3uMp994MNba4Nn+EE4A0mAG+YYo03DCMINXUQtBrQviDeUEveJ4pHIDFo/UBiIbJk5A2U08Fn3yCo1yFU8ktKPuKnHEgZ1bs+kmLwA87xRAklefNyN/YGWmvrFskbdvAGd8F8CnOBN5gAvGGKNd4Qhn1LHYXxbld6YdCto+17YZLqhbLrIGw9oWyS0CuDsKZ1tGV8ww/5hzgNE1nfsm376yDxuqkQfpMEWgDqJkoCTi/FJez8KorordLrNpfXmbQXmqWBN7gKvMFc4A0mAG+YYo03XJ/wKuGMfqZTOSwPvMFV4A3mAm8wAXjDFHjDo1zHG9JbRUXCG9wF3mAu8AYTgDdMgTc8yjW8gUIe6otLORJ4g6vAG8wF3mAC8IYp8IZHGcUonE1URLcapYA3uAu8wVzgDSYAb5gCb7AHeIOrwBvMBd5gAvCGKfAGe4A3uAq8wVzgDSYAb5gCb7AHeIOrwBvMBd5gAvCGKfAGe4A3uAq8wVzgDSYAb5gCb7AHeIPzfG5BmwtvOAF4w22AN0yBN9gDvMF5Pvt87TO4HHjDCcAbbgO8YQq8wR7gDc7zxfO1z+By4A0nAG+4DfCGKbfxBnAb4A2O8/Dl2mdwOfCGE4A33AZ4wxR4g03AG9ykW0f7Ht5gHPAGE4A3TME4hT3AG1ylm0/x/MXaZ3IF4A0nAG+4DfCGKfAGe4A3uErnDS8sCG+AN5wCvOE2wBumwBvsYWlv+Nnnnyx+r4Bz0N7w64f7y8rZBPCGE4A33AZ4wxR4gz0s6g2ffv73Hh5s+DprI+INnzxYMAsT3nAS8IbbAG+YAm+wh+W84dNf//7DHz7AG7YKe8OXL75a+zyuArzhBOANtwHeMAXeYA8LecP9J//m4c8fGHjDNmm94f6rBzu0Ad5wCvCG2wBvmAJvsIclvOH+k7/gngZ4w5Z5+OarFy++WfssrgS84QTgDbcB3jAF3mAP1/eGf/YnDxP+v8/B5vj8s88eHr74xIaQSAbecALwhtsAb5gCb7CH5b3h//cZ2B6fP3/4dPGH+HbAG04A3nAb4A1T4A32gHEKV3m4vIjtAG84AXjDbYA3TIE32APiIoEFwBtOAN5wG+ANU+AN9oB5mMAC4A0nAG+4DfCGKfAGe0DeJ2AB8IYTgDfcBnjDFHiDPSyeZ/ofIM80WBx4wwnAG24DvGEKvMEesK4VsAB4wwnAG24DvGEKvMEe4A2ugvkU5gJvMAF4wxR4gz3AG1wF3mAu8AYTgDdMgTfYA7zBVazyhl+/WPsMbgq8wQTgDVPgDfYAb3AVq7zhS6s+zUuBN5gAvGEKvMEe4A2uYlVL++nDz9Y+hVsCbzABeMMUeIM9wBtcxSpvePZbv177DG4JvMEE4A1T4A32AG9wFbu84asv1j6DWwJvMAF4wxR4gz3AG1zFLm/42cOXa5/CDYE3mAC8YQq8wR7gDa5ilzc8+8ylDgd4gwnAG6bAG+wB3uAqlnnDpy4thHKpN4DbAG8YA2+wB3gDsIPnD+6ERsIbzADeMAbeYA/wBmAJnzx8db/2OdwIjFOYAMYppsAb7AHeAGzhkxcvvvp07ZO4CfAGE4A3TIE32AO8AVjD/Se/9fDwW599/tx2/vIv//kFe8MbbgO8YQq8wR7gDcAmfvbl8+efWc9f/dW/uGDvB3jDTYA3TIE32AO8wVUsm0/hFJc9ZfCG2wBvmAJvsAd4g6vAG8wF8Q0mAG+YAm+wB3iDq8AbzAXeYALwhinwBnuAN7gKvMFc4A0mAG+YAm+wB3iDo/wM3mAu8AYTgDdMgTfYA7zBUT5zKC2zdcAbTADeMAXeYA/wBkf5At5gLvAGE4A3TIE32AO8wVGcWnfaNuANJgBvmAJvsAd4g5vcwxsMBt5gAvCGKfAGe4A3uMnzF2ufATgfeIMJwBumwBvsAd7gJi8Q3mAw8AYTgDdMgTfYA7zBTb50ZclpK4E3mAC8YQq8wR7m1/Kbzz/Z/L0BgNvAG0wA3jAF3mAP42v5s1//xcPDw2Ud2PAGAJYG3mAC8IYp8AZ76K7l/Td/8u8+/OEDvAGAzQNvMAF4wxR4gz3wtfzZ87/70ANvsJpvvnrxzdrnAC5kY96QE+UTG5S8xYE36mr+il+ocleo/Y3z3O9/9vzdyzjhkEsBb5gCb7CHuz/+b//k35GOBniD7fzss88eHr74BCGRprMxb1BCmD+2gScbFMGsvS8LFe9tmux2gQoPHKQvPqBtXoI+ZHbEIZcC3jAF3mAPd3f/7E8e9vmUrsHw6/2Tvz479ddHj/PpdY/z7LzjXHDYWx3n4bzj/HfPv/l08UcXLM7mvCEJw6JtpR9rkT1VhGFCzfjsjSaZ9xwUqtrtaqXK/YP03lBn0z6D/IBmPHpIL3l5Z8V1gDdMgTfYA13L+0/+YtTjgP4GALbN5ryBmvQ4UtEjG3jcsJfNy7/rx0pRs56o5vBBDnLYG4495GLAG6bAG+xBX8v7T/7Nw5/DGwAwgWW9oar8XeXJF36/0l/t2xdKebGuPGnBS6/axfSzbtJLafPpjXq6k6cb9kClXGjuVWW3gRyl2yOVLZr9kYiRN+T6BGqvogN6qco8b+ig8KmsRw/pzQ5ZPqojlwJvmAJvsIfhWn7669/nXgd4AwDb5ureEIS63d75Hg04BCG30iX9UqTU0IaqUdR0+wnHDVB3QPs1v/3FG5p06SXII4p1YN3oduoa8Vyp9t+KS+DhAjlMxMEPsRTBO9a84c6P6v4UR97g0UF3TUa7RV14RT58AG+3Gx2ymB5SjQ6Zy6dYyBzgDVPgDfYwuZaffv734A0AbJ2re0PYNbt+2xiHQaF4RkNJoYyp4u/+IbXR7Vf1SGVp07a6NVuASkb9DTseE/BU++2/LSXVO6Wj/oaKog3a3cImyHhQg49bqcJr9yqGVn1o3Yv+FOfe4BcqbRIymHF/A2vP2Bv4kHF77t0h1eyQ9ZMRnZcAb5gCb7CH+bX82T9AvkgAts1y3uCpLKfv+dy6htzQtg10Qz9zu16mGXUBRNQ250pHIegmPaYmunUNmiVZ6QJ4p74Rj2iHKgl2XdcDHzcj3aijKOdXZagj46LrYgiAnHuDDGV4YTOKb2BrEAnoDhlSQc3okGp2yPYjLWQO8IYp8AZ7wPoUAJjGct4QSjhAzK0r9ypQzEFEbwSj7SNqlfOuN6D1hzyvQkWbNPrFhNr2kL/68+TKPM/bL/zDNImaC9feUHTDEdK074Y9B+beUKl+E+0NI2t44pDaG7JhBETvWO+uDLxhym28AdwGeAMAZnFVbwhCmkSZtP/WehqkbqVpQIFIqFkeRjLiIKTBjNHXfNUlcPApDlEmVQTjnbxuC2np6yYKle6QyEk1VJFWYwOg3V/mDT6PkpTDXnXb+KejbTTN7JBqdsjBHK6dEAreMAXeYBPwBgDM4qreEHYtrBqFKmTiDR2DAjQcUBjOvKG1jsiLpTRp8KupNxStf6R6JkPBMYqDN+wqinDknAx5N48ifak3yPiCoqBNOZFcl7EbHTLYP6SaHVLIQ7V3RHjDdcE4hT3AGwAwjeXGKXTihFL6Gwp/vkXbAgcxjWNMvWGIDvAO9zeMEix4KqEpkSNvoO6AggcRymGcYp52Yc8b2q3jiOMv9YlQ2591KagfPaSaHbLbszgiefVpwBumwBvsAd4AgGks5w2RNLeNbmL5C3k5zJjsmuP0UW9odMufSXzDvjeUsvhEOXgD51uoC46s6Jry/RUq9rxBx14UoxMZtf+zQ/IhBm/oDskxG/Ei1gBvmANvsAd4AwCmsZw3UExDXgYFt66pStpv6Q03r3qLqhsSeMwb/EJF5c73OB7xYH9DpsYzNvK2OS9KfpkkJdHdGto+Rq353BsSSeJAczjqITaBzSF+6pC6J6U/ZJktYw3whjnwBnuANwBgGst5w47TPqmM2++Sphkk7W/+sEWhkiBRxaPewAEQUcFzKx4bpyjSVGeI4A0oJUSayUISkXQBVPLbeAErDqIIOXrT07NAQy9U2jZU2E2byMNJ/obhkEoOqWaHzBeyBnjDHHiDPcAbADCNq3tDPSxS7VdZ4pU6XyTHTPIMxU4BOKAweTy+od2J0kZxjsnD3uBzrsYqHMYp+CicS6EtU+sDRzBUMitUH6SP3pRxCo/PhDUjT8azIfL4qUOq/pAFH7JeyBrgDXPgDfYAbwDANBZf18ovVLd6QyzN6mAWZVzu/LzeyT9Enk+bXl/v0+9U5pPkCH6V6/e6DfI+CjKTRJU6InO0W97ht8WV/Zl0J5XP18t+7JD53iGXAt4wBd5gD/AGAExjOW/wU/6GX+2vK3UjOIDCG/UzmAu8YQq8wR7gDQCYxnLeECuVNFVaXD0J0tEUquT/mw+8YQq8wR7gDQCYxoLjFLJypE7CAC4B3jAF3mAP8AYATGPR+Ia88RYf+ncCeMMUeIM9wBsAMI3F4yLBFYA3TIE32AO8AQDTgDeYALxhCrzBHuANAJgGvMEE4A1T4A32AG8AwDTgDSYAb5gCb7AHeAMAprExb+B0TC+ZOemP8jDVL5/kOU8l9US5kpIyV8WQLmpa0rDtEStl1/xhDrxR5S/feQq8YQq8wR7gDQCYxsa8QSeATp5qWfMh73NZqKcnbOjE09Ux6pDrFbBCWtgiUftm0K3MvaO3g5eWF8pnyeYF5f2i20cDb5gCb7AHeAMAprE5b0jCkNbDeqIfYeQNuyB50ghyKiqh/x9xbO0NJTfrFa2qvXdy/Y9VNm36J2tYaEKVhbSW114Gi/TkFJbwhinwBnuANwBgGpvzBuppyKMDzXBP/tSbE3xZFsuvCtW8fGvtDbyeNi2/vdeTMfKGOYe9gXoa6kCpi5e7gjdMgTfYA7wBANNY1huqyt9VnsQr+JXuQ2hfKOXFuvJkQKL0ql3s5f16mO13ft6p3yBv/1t7UoD2hthrm2WPyml/8GOv7wDwm5hf40Wvpclu+nCFSg9ZtAX6UngZe7J4lvaGRBwj3V/YYtzfoM8r5sRWpReqzBuNR5T0bqiHOnSB7XEq+UvoLcuqkXN+WUAHvGHONr3Bz48af6oOe2/58ttgj3p2xCPKSE9YsKUalX7O6R0FvAEA07i6NwRhV9n4Ho0SBHodbfpF1sQOVcNrWPsJj/9To9qqQPuLN6yjzW2t3oBswVMeLWBdBLvOG3J+Q8l61jWPR/CBy5S2q7iNH9bGSEM6jN/QgtlpzgUGBR8x5WOku94bdPSBXo+rjobOgpE3iBPwB2zPNJdIhr6KTfndzhukL0KOk/TllPzhspI3SF9SJ8MbpmzTG47sCMsOD8J56ohY2ym+krXiTykjP777K1bFcF+ecXrHAW8AwDSu7g2hbvl3fttGh23jXMhy1m2bn0q7SfGCkVfuIpWlTcTNNDW8yai/gUcJWm3IAr2B1xYTeRl3Q3D13JoCtfXaGwounF4oSQJSacX92cCC3zbzKZ2RTwW2Z9ceMW1lpkl5HEO8oYuO1P8tRm3B3BvK9jM1bZn1pL+BxaXZDd7A3/AqVUR0HK8rJ1VJ025JpZNGPW0O8IYpJntDvNdwy02/3zA/MS4m0I1Tj7fdK+PAKWXHjNkxfjTqmoA3AAA0y3mDp7Kc6h6uFUMODvS5fQ5l0KBMObYwovooV7oyU7pzgurWPMpoO+568CTcIJH2Pey0ofMG+tZVcyRjqJK2BS4zqkfzWWyjpyiKstWRlAukI/lpQf8J6PTEFBr9Fc6XDapi6Kude0NKkyr8NKxG8Q1sDdyj0XsDz/kIsooLD3U5MhKTh+wLefoSc4A3TDHZG/YHCs72hvZO7go73hu88xa2hzcAADTLeUMoVVrcDSVInRnpeY49HALZt/A8n4J68L3RBh73N9DPjbTvYacNnTewdGTyM3cCB1SP6oHkOiSCvoOYRyCmgYwNFS/e0L/RDZkM7HtD0fU4673KsQC0f4A8j9Ni1Jcswye6L2Q8FaR82hzgDVPW94ZRQE1d9QEyYau8+s6dBc/Q6xKg000d7t7KW4VN2437hjlvSimgfQo4DMjPu8iYKaXKSnkuum37MnQYj5d2/WBDdE0XOzQwRBnJ3nHjT35vz6iGNwAAOq7qDUFIkyjblp9iHLrgAmp/2yaZG++EmtdhJCMOwkyJN/SNNaPbYz9OQ4lC8MQ1ctk4KyaNu27hqdyuUsxH/Q0SfRBqKWEtGX99ygMWlcEb9De48KXeUNOAi9Sx4g3VpPEPuw8j7UTu6eN04xQqC0ZTNtgcHpt9Cm+Yso431GEvvFF/YXUQjqfvzm4ejnRXTYJnAr4Ja30X9W95en99R1YUghPF3e2Td+vRs2X60TgOMmgfioTvmW5bKcP3OIyn7h6n/mgyITjRal0N5ST6v6GOAZJAJD1UV/FE5gDeAAAQruoNXUs5bs25GyDv31BDg9xw3RvOvKHJ6QtYKY0xRQ5m4g3eyBv0EQ54QxedUI7iG/w854md5fgkOm/gwopk7A063ULyUm/Y5fSBC8/vvKE94TAebZNRP4eIhRw8GrxBokazYfM4VI9WzfCGKet4w9DpX7VXvb3YNN7WRenk+n09csDDXd4keKb1xIreSEQburem/Q3tnRgFGXXPdX0IFclp+1LEt9R45I2eLO6Bm/Y3jMJ4uv6GZhRdo/v7mqE/rZNtNn0dlSSfpxNcFhF4AwCAWW6copt+KP0No7TNeou2eqPv2/HMG3KuECPZM8h1Cz/zhkrHSOx5g45K2HXzKboQsEImawzf1jpvCNvvdn7XPUH7xMOpzGfV7XkDzaVMlMRf8F70ZTGrZtt0x6Gu48Eb6NMEapgfOt5zD3jDlLW9IaNOhTqK8lmUTsiTEPqonIC10NM3baRvPCqkTDluhsftxvENlUxhiPo4GCrE49uSjKEuqvHpFPyQ+MO9qZ+VIYxHn/I4ukafgZ8MYRaSHJXPXKKSyoi0J9eBODKlGd4AABCW8wadu6lRo7CD0h+20E1tesAbKt3Jm/bN79QbQpqskfTbj7yhFYRADi59B7pZrvj4Ojm0X+76AisJPvAGb5j0WEzZ72/g+ncSLjFq/8feoMVpiG/YlWV/Xi+zBnjDnPW9oZhKZTTcxRxFMw4i6IJnar3lqP3t4mR7bwi78bixXxL1XlSCfj60no+8QYfxcMfGJC6y6RKbzWMl5Sng8vQJ1KrrvGt0Fwe8AQCgWc4bKKYhL3WXZ8rTHBpu1cOuS0CnYdj3hh0PXkhbHKtD3kAV22ge5uAN1Olb1qmM6nKPbbkrPbEMj2v7uJDCPakfqT3vpl/o/A06yI3FxE8fzd/gS4RbN82ya0jYAeLd1BukHSmTvj1oFE0WKQt6OX6JNcAb5tzeG2oOjCkkwJZa4CLVV2wepcMDXYHuXeiDWjodpewl+vnodht7QyYhOCFbRrdL3dALe8Nmcvs1o5wgUkYfS6RGD9YQXUPxQbOS2ju5pq46PqaMnFGPSi4DelF/xy8CvAEA01jOG3RWpIzjBNoGklM7UWPZbVGoJGir4kPekHP+Bhpp1QOre96gv6rveYNErOlAgh3ng6IipFWnEwjll2GcIgtCNa7as25GRiS7DLPWdIUchroWpVHj9hNQ008ZrftvcVU2yfvE0DB41H7Y/nskJaeIZFqI9xJrgDfMub03DBE6/YCU0p3/sygdHjnggQy9UzLxhqi7k/vdxt4whODknQv4/BiFe95Q9ZvWE2+ox2E8+sGqxw9Fvj8Rk2YUx6wTXbcG3bx8zl3/COZTAAA0V/eGeli22q+yxCt1vkhunDmXZOcNXPcmh+IbuDlvq2TaIAwOewNFltUHvIEyU0ZNl/LJ1xrhj35LqlE1mNO3sKwZVe0SaSazOql2Hpr0SWwn7Z5SlR5Kr3A2joeoqt3MG2pOd1kP3lDTgSVuvXrpYuDwhilrj1PQ9eOMX4eidEJV6emRe8Ezu36+TqbfmnlDMp5So+Mb2hu2PDAtOOpvx2A3628o56cs0TV+t9F8oTXugki5I6SbBVUM/Q3yoRN4AwBAWHxdK+4DJcpcZrKPzKKMS0nq32f2z/V7Zc61ZN3WdpwYX2fHn2yct6/x9nqnkbHoJFD6cKOhaL87iSHdflnVNOViJ//wCZejztzRqHLeQYXK63XsD8eZffJ6mtHfjykxJi/blQ8vHAe8Ycra3uDTleMkIgeidCoVNdyWx6Oglt4bKt1bpuNq9uIbpE3nO0PiYEQD8rk3dBHAuqhJfMMQxtPlZB9F1+wOzajMKFW7BB+l8vy0T20uSVD4dR/xDQAAzXLe4Mty0dV56enOpZSv/+kkt9RppFKBv7QT4IbAG6as7A21zHqgEa0DUTqteCbsyuV+8EyXVERa8rLQkZQyWuVxNE/cvivxODxTx+c87Trt6ijapstrqjNGSO4zPZ8ikzCeiNv/anoi/a096eVq2lNmY6k4d0qe6DkgfPyopAkW8AYAgLCcN7RVYNJUaXHbBjig2e40n/781fuok7kcTxxdH3jDlLX7GyhaJc245T4QpaPXYZHgGR3U0nuDhB9S3AyFxnTrkySVHjkLlcpoBEIiblWYcxKIVEc8jKJtkt6MI9KObludA6IL42l/LqJyEl2jTyCeLBRfqu7Xbuc+fwNlUYlomRl4AwCAWXCcQgduRcdXIddAMuMVC1VyKwFvmLKONwzrZPscrRPRQEGc7EXp1F3iT4lhqSfeoLvCurgajqSMyB90xE3AwcRNt7vH7/ICr/k42qYcwml4JIG2Dbp8kUMYDx+n2tXhEF2jOwD9ZJznvDWLbmAvj+j4nAFbBxdzDnTERQIANIvGN+SNFx9bfVwNP/e8owMHDAHeMGX99Sl2eX9nPx6lI8Ezu1HwzI6sItNvlf0efl4OETd53PeVlVyQX+Vdmf07Q3n9W7nfl+HnlT+Uwa/00TXdCJw/6VArR1FAZTw7Br1Q5uf34D0JvAEA01g8LhJcAXjDlA14w/msGzpT72VvWBl4AwCmAW8wAXjDFKO9oTpque2lSJcabzgXeAMApgFvMAF4wxSjvQFMgDcAYBrwBhOAN0yBN9gDvAEA04A3mAC8YQq8wR7gDQCYBrzBBOANU+AN9gBvAMA04A0mAG+YAm+wB3gDAKYBbzABeMMUeIM9wBsAMA14gwnAG6as7Q3jJdTOoswHDhaV50/uT+t0JwfyQIxPzDvuHP35Gbzk0NcG3gCAacAbTADeMGVtbwjVhW2rpwYOFtWnpT5IRVmhqwMZnEYnFhyZ4KmZr1j19KGvDrwBANOAN5gAvGGK8d5QhS2Fyug/B5OiP91486JW/mRlqr0T85Npd0T+SJG0kJX8pNcE39tusaUpGHgDAKYBbzABeMMU471Bl/J4e/ykN+hFrVJef/vYE3vEG0qVJXoneAMA4BjgDSYAb5iyBW+oPVnoqfTke70njatfNX0HQtnEXehAXXnSOOde7sfy88gbytFSbO1eQ+NdDqXt9G40tMA9BHG/huXkxPoi9aKcDa9xVaVKed6wNpWv+yoCFTTsH6UXqow+RL/idxPv9OuhlNV/iF18vVXm4Q0AmAa8wQTgDVPW8YY6DPRPoWoKWlyaWtFu9WxubmWB7Yzb+jztl5H3E45koMbXU0GiIwp6b6Clq1UozXxJexWxNN5chH4jKLoi+jUm9FrawTAgMfIGOa84o71CemccS+F7hV4kI1N1yf6RS7RF5w18Hlng69fDyYfYhcWRUZcvB94AgGnAG0wA3jBlHW/I+wWpqBEOqSGPZ97gtV/ZA6US/lEVQVpQE9+2uFngJdzMU0RkMu1v4C0zUQxqpdNQFbo0eSPkN4rAK8QUMtXwjok2EdX3Sex5Q6bChj1l3N/gU0GR3irT5Uz7GyqShpC26vob5EOEcrBWdK5lDvAGAEwD3mAC8IYpG/CGtn32I2p0x97gF/R6HqYl/dh+WScPqHd5lFEbm1Hz7A1f+rU3lLJlxW+0bXTbtueZLm14I6JQyDIKcz5UPirAT4Ywh7k3yJwLjzpKhvgG6ivJdB9FSsU2IhHj+IaMXpez1/EN4w/RFpxdyxzgDQCYBrzBBOANU9b3hkheUOW0v6FQiQ4hiJXiVrUe2taI2l9vmB6pvaHRDTpPkuhHIhQXobdLaeeiVwI6LBHoToOBuTe0RaT971IatfhhPxGjIDEopcCRN+Sq8OWcvFlcZNQPrrTyVDSX39vwBgBMA95gAvCGKbf3hjoMw0QV7b/0PTzUAwXUvTDxhpRGFrhR9nrJIPw4DTM1a4S1N3i69ac9am0bFZXWFdFoA1Bpw2/2PQfTY0iRs3GKgkZFytFeZA3DnItKQisT/jwjb6j4o4btOafDKQ8fQh8hVEfmiHgKeAMApgFvMAF4w5Tbe0Pep2mitjXsBwqaqTfwt3mVxbMv6ZzmKcsOe0MX5hC3BeV6ikRNpXXhjxyDwK20DA2Ugze8rL9BwhtVWvbeQJ0E4y4QjURk9N7gjT+u1/lN/yEEvyqukCMK3gCAacAbTADeMGX9cQpuPH3F/Q2J/llvFSjq9vfkZaZt6INct7+H+huk2ED6G7hzQPc3SBHdBjVFONIwRhcIme4lVtjzBuoliDgIUnsDDy90gQn+kLWynvU3DGevT3n8IXhfCq4ML89jAW8AwDTgDSYAb5iyvjdwsxpTK+9LU1/JPEz6sS5U08c3UAoHnaApPOwNVR/f4PXxDZGOb9BBBjQ2QqrgJ9zDkPTdHfMVKva8gcMrUonD6MRmMIemG2fgQ0ziG0RNWGLklMcf4nrWAG8AwDzgDSYAb5iyvjdQi50n/ILMdEikpadwQp5V4WcqKvkV6nugJjd+JL6h3bzd0pfplKlK2sZYBgCGN3Lp2qBjpbshNrEQSwiG1FBzb4jYM2LSg1L1lsFDHlSEGMlOz7uoVEElsV+0guLv/IBnmnoq8btBEfkQPGZxFWuANwBgHvAGE4A3TFnfG2htCZ1HqWq/vieKvaF9I0vTTDIuUVxB+2rDTXboZeoRb6ACVNSaArXhJX2NzxTPw+Qiujc8VURBItMc9LxJHUQZkJr0RSYczxjWcrY1HVksh/owos4wWnMI+3zVO73WResplA2KD03xHFEmcQ9tIUlAm/QfgqaLXmvVTHgDAKYBbzABeMOUdbzBz7tmN1RVQp393F77TUYpIrm5LTl4UZrnkrryM5lqmXGiqEe8YVdSCqlUCucBgKTWSRu94Q0SCD2BsuyEgUcO6mKcv6FfZFMsh4+cca9CnYxXvsy9yZKZ3JFBG9c6wDPnRJMRD2cE3P0x+hA773prbcMbADANeIMJwBumrL0+RZ37u7IapiXUNF9BmlI/Hi1SGfcjCHVV7sq83Yz/6Urpf/THCz7EQ2mTlSDq/ogpz5vMdG/BsOhEW6TG7y2njPv3y3yaqKnuRah9q5ZXhkOX8SAH+t3uQ1wTeAMApgFvMAF4w5S1vWFtcglHCC8vaX3gDQCYBrzBBOANU1z3Bp5JsT+bwkjgDQCYBrzBBOANU5z3BouANwBgGvAGE4A3TIE32AO8AQDTgDeYALxhCrzBHuANAJgGvMEE4A1T4A32AG8AwDTgDSYAb5gCb7CH/3/79pbcRBJEAXTUKj2wtmDG4B3aRDCe8QbYDHscPqGgftRKlZR5zgbUge5VXlvGboB7YzfcA7vhV3ZDHnYD3Bu74R7YDb+yG/KwG+DerN0N/87+2CnhSzuueJfshvNew264BrsB7s26lr23x9kfOxW8tfa64l2yG857DbvhGuwGuDfrWvba2tPsz50C/mvbNe+x3XDea9gN12A3wL1Z2bJD+/I2+4Mnva+tLWveJLvhvNewG67g2W6Ae7OyZa/b1r5/NB3ivH393tp2zdcUdsOZr2E3XMFTa6e7ywbUtrZlP24S0XbrPlnthnNs28fZN7WCT213f9mA2la37OX4bTv7rub2cFz5A5ndcI6lPT7PPqoFPK76L8aTsgG1XaRlrxuivKx/e+yGc/z4V/s8+6im9/z54m+l3QDRtCw/u+Es+9YePz35nUOY578/Pq78k99Z2YDStCw/u+E8y+xvqCq48LcUPtEgnpblZzecabPfzT6ruW2Xy7+PPtEgmpblZzec7zT771syu+x/wLx6NqAqLcvPbqAO2YBoWpaf3UAdsgHRtCw/u4E6ZAOiaVl+dgN1yAZE07L87AbqkA2IpmX52Q3UIRsQTcvysxuoQzYgmpblZzdQh2xANC3Lz26gDtmAaFqWn91AHbIB0bQsP7uBOmQDomlZfnYDdcgGRNOy/OwG6pANiKZl+dkN1CEbEE3L8rMbqEM2IJqW5Wc3UIdsQDQty89uoA7ZgGhalp/dQB2yAdG0LD+7gTpkA6JpWX52A3XIBkTTsvzsBuqQDYimZfnZDdQhGxBNy/KzG6hDNiCaluVnN1CHbEA0LcvPbqAO2YBoWpaf3UAdsgHRtCw/u4E6ZAOiaVl+dgN1yAZE07L87AbqkA2IpmX52Q3UIRsQTcvysxuoQzYgmpblZzdQh2xANC3Lz26gDtmAaFqWn91AHbIB0bQsP7uBOmQDomlZfnYDdcgGRNOy/OwG6pANiKZl+dkN1CEbEE3L8rMbqEM2IJqW5Wc3UIdsQDQty89uoA7ZgGhalp/dQB2yAdG0LD+7gTpkA6JpWX52A3XIBkTTsvzsBuqQDYimZfnZDdQhGxBNy/KzG6hDNiCaluVnN1CHbEA0LcvPbqAO2YBoWpaf3UAdsgHRtCw/u4E6ZAOiaVl+dgN1yAZE07L87AbqkA2IpmX52Q3UIRsQTcvysxuoQzYgmpblZzdQh2xANC3Lz26gDtmAaFqWn91AHbIB0bQsP7uBOmQDomlZfnYDdcgGRNOy/OwG6pANiKZl+R3bdvYjXJjUMiIbEG3bjrMfgWDf2rfZj3BhbgMjsgHRlnY4zX4GQp1a+2f2M1yY28CIbEC0TWsPs5+BSC+71l5mP8SFuQ2MyAaE27d2WD74nUNOp837trX97Me4NLeBEdmAeEsjt2zfUrgNjMkGXMFmv5t92QhzeM/2JcVfbgNjsgHXcdqQ0+xkxXAbGJENAHpuAyOyAUDPbWBENgDouQ2MyAYAPbeBEdkAoOc2MCIbAPTcBkZkA4Ce28CIbADQcxsYkQ0Aem4DI7IBQM9tYEQ2AOi5DYzIBgA9t4ER2QCg5zYwIhsA9NwGRmQDgJ7bwIhsANBzGxiRDQB6bgMjsgFAz21gRDYA6LkNjMgGAD23gRHZAKDnNjAiGwD03AZGZAOAntvAiGwA0HMbGJENAHpuAyOyAUDPbWDgJBsA9NwGBj60dpr9DADcmG07zn4EbtPSdrMfAYBbs7SDHyr5k0Pbz34EAG7NprWH2c/ADTo9+AoLgN/tWzssH/zOgZ+cNsdDa8vsxwDgBi0N/sC3FAD8yWa/m32iuDXbxZcUAIycNvAT31sBAAAAAAAAAAAAAAAAAAAAAAAAAAAAAAAAAAAAAAAAAAAAAAAAAAAAAAAAAAAAAAAAAAAAAAAAAAAAAAAAAAAAAAAAAAAAAAAAAAAAAADANP8D8C25e+kzghEAAAAldEVYdGRhdGU6Y3JlYXRlADIwMjUtMTAtMTlUMTU6MTI6NDArMDA6MDC5vjyLAAAAJXRFWHRkYXRlOm1vZGlmeQAyMDI1LTEwLTE5VDE1OjEyOjQwKzAwOjAwyOOENwAAACh0RVh0ZGF0ZTp0aW1lc3RhbXAAMjAyNS0xMC0xOVQxNToxMjo0MCswMDowMJ/2pegAAAAASUVORK5CYII=;" vertex="1" parent="1">
          <mxGeometry x="-620" y="-440" width="2103" height="1991" as="geometry" />
        </mxCell>
      </root>
    </mxGraphModel>
  </diagram>
</mxfile>
